<svg width="196" height="246" viewBox="0 0 196 246" fill="none" xmlns="http://www.w3.org/2000/svg">
<path d="M188.091 108.429H116.717C114.74 108.426 112.844 107.64 111.446 106.241C110.047 104.843 109.261 102.947 109.259 100.97V7.81884C109.261 5.84133 110.047 3.94547 111.446 2.54717C112.844 1.14888 114.74 0.362336 116.717 0.360107H188.091C190.068 0.362337 191.964 1.14888 193.362 2.54717C194.761 3.94547 195.547 5.84133 195.549 7.81884V100.97C195.547 102.947 194.761 104.843 193.362 106.241C191.964 107.64 190.068 108.426 188.091 108.429Z" fill="white"/>
<path d="M188.091 108.789H116.717C114.644 108.786 112.657 107.962 111.191 106.496C109.725 105.03 108.901 103.043 108.898 100.97V7.81896C108.901 5.74597 109.725 3.75857 111.191 2.29274C112.657 0.826914 114.644 0.00237114 116.717 0H188.091C190.164 0.00233489 192.151 0.826859 193.617 2.29269C195.083 3.75852 195.907 5.74594 195.91 7.81896V100.97C195.907 103.043 195.083 105.03 193.617 106.496C192.151 107.962 190.164 108.786 188.091 108.789ZM116.717 0.720457C114.835 0.722577 113.031 1.47113 111.7 2.8019C110.37 4.13267 109.621 5.93697 109.619 7.81896V100.97C109.621 102.852 110.37 104.656 111.7 105.987C113.031 107.318 114.835 108.066 116.717 108.068H188.091C189.973 108.066 191.777 107.318 193.108 105.987C194.439 104.656 195.187 102.852 195.189 100.97V7.81896C195.187 5.93694 194.439 4.13262 193.108 2.80185C191.777 1.47108 189.973 0.722544 188.091 0.720457H116.717Z" fill="#57ACF9"/>
<path d="M151.141 119.957C158.266 119.957 164.041 114.181 164.041 107.057C164.041 99.9323 158.266 94.1567 151.141 94.1567C144.017 94.1567 138.241 99.9323 138.241 107.057C138.241 114.181 144.017 119.957 151.141 119.957Z" fill="#57ACF9"/>
<path d="M149.381 113.771C149.159 113.771 148.939 113.719 148.74 113.619C148.54 113.52 148.367 113.375 148.234 113.197L144.714 108.504C144.601 108.353 144.519 108.182 144.472 107.999C144.425 107.817 144.415 107.627 144.442 107.44C144.468 107.254 144.531 107.074 144.627 106.912C144.724 106.75 144.851 106.608 145.001 106.495C145.152 106.382 145.324 106.3 145.506 106.253C145.689 106.206 145.879 106.196 146.065 106.223C146.252 106.249 146.431 106.313 146.593 106.409C146.755 106.505 146.897 106.632 147.01 106.782L149.313 109.852L155.226 100.982C155.438 100.666 155.766 100.448 156.139 100.374C156.511 100.3 156.898 100.377 157.214 100.587C157.53 100.798 157.749 101.125 157.824 101.498C157.9 101.87 157.824 102.257 157.614 102.574L150.576 113.132C150.448 113.323 150.277 113.48 150.076 113.591C149.875 113.703 149.651 113.764 149.421 113.77C149.408 113.771 149.395 113.771 149.381 113.771Z" fill="white"/>
<path d="M139.949 158.245H3.06194C2.25015 158.244 1.47188 157.921 0.897855 157.347C0.323833 156.773 0.000936234 155.995 0 155.183V31.2646C0.000905787 30.4528 0.323793 29.6745 0.897822 29.1005C1.47185 28.5264 2.25014 28.2035 3.06194 28.2026H139.949C140.76 28.2035 141.539 28.5264 142.113 29.1005C142.687 29.6745 143.01 30.4528 143.011 31.2646V155.183C143.01 155.995 142.687 156.773 142.113 157.347C141.539 157.921 140.76 158.244 139.949 158.245Z" fill="#3F3D56"/>
<path d="M137.067 155.363H5.94376C5.13197 155.362 4.3537 155.039 3.77968 154.465C3.20565 153.891 2.88276 153.113 2.88182 152.301V34.1464C2.88273 33.3346 3.20561 32.5563 3.77964 31.9823C4.35367 31.4083 5.13196 31.0854 5.94376 31.0845H137.067C137.879 31.0854 138.657 31.4083 139.231 31.9823C139.805 32.5563 140.128 33.3346 140.129 34.1464V152.301C140.128 153.113 139.805 153.891 139.231 154.465C138.657 155.039 137.879 155.362 137.067 155.363Z" fill="white"/>
<path d="M12.6057 43.9208C28.0369 43.6524 43.4698 43.6139 58.9043 43.8051C74.3366 43.9975 89.7637 44.4207 105.186 45.0746C113.84 45.4416 122.49 45.8813 131.137 46.3936C131.831 46.4347 131.829 45.3539 131.137 45.3129C115.73 44.4013 100.312 43.7191 84.8833 43.2664C69.4564 42.815 54.0251 42.5944 38.5893 42.6046C29.9276 42.6104 21.2664 42.6888 12.6057 42.8401C11.9111 42.8522 11.9089 43.9329 12.6057 43.9208V43.9208Z" fill="#3F3D56"/>
<path d="M120.147 37.1445L126.894 36.6423C127.584 36.591 127.589 35.5099 126.894 35.5616L120.147 36.0638C119.457 36.1151 119.452 37.1962 120.147 37.1445Z" fill="#3F3D56"/>
<path d="M120.147 43.6286L126.894 43.1264C127.584 43.0751 127.589 41.994 126.894 42.0457L120.147 42.5479C119.457 42.5992 119.452 43.6804 120.147 43.6286Z" fill="#3F3D56"/>
<path d="M119.639 40.6676L129.233 41.5391C129.925 41.602 129.921 40.521 129.233 40.4585L119.639 39.5869C118.947 39.524 118.951 40.605 119.639 40.6676Z" fill="#3F3D56"/>
<path d="M16.5991 35.6912C16.1299 35.6883 15.6702 35.8236 15.2773 36.0802C14.8844 36.3368 14.5757 36.7033 14.3898 37.1341C14.1817 37.5558 14.1175 38.034 14.2069 38.4956C14.2963 38.9572 14.5345 39.3768 14.8849 39.6902C15.2144 39.9705 15.6095 40.1627 16.0334 40.2488C16.4573 40.3349 16.8961 40.3122 17.3088 40.1827C17.7309 40.0353 18.0969 39.7606 18.3565 39.3966C18.616 39.0326 18.7564 38.5971 18.7582 38.15C18.777 37.654 18.6426 37.1642 18.3733 36.7473C18.104 36.3304 17.7128 36.0065 17.2529 35.8197C17.1148 35.7822 16.9674 35.8008 16.8428 35.8715C16.7183 35.9422 16.6268 36.0592 16.5883 36.1971C16.5542 36.3351 16.5743 36.481 16.6445 36.6046C16.7147 36.7283 16.8296 36.8203 16.9656 36.8618C17.0598 36.8982 16.8796 36.8155 16.9675 36.8634C17.0037 36.8831 17.0405 36.9009 17.076 36.9219C17.1062 36.9398 17.1351 36.9594 17.1645 36.9785C17.2653 37.0444 17.1152 36.9302 17.1797 36.9894C17.2356 37.0407 17.291 37.0908 17.3418 37.1474C17.361 37.1688 17.4363 37.2284 17.3778 37.1867C17.3331 37.1549 17.3606 37.1624 17.3778 37.188C17.3909 37.2074 17.4048 37.2262 17.4177 37.2457C17.4598 37.3095 17.4981 37.3757 17.5324 37.444C17.5403 37.4598 17.5476 37.476 17.5556 37.4917C17.5708 37.5212 17.5927 37.5289 17.5571 37.492C17.5232 37.4567 17.5448 37.4591 17.5569 37.4931C17.5649 37.5154 17.5737 37.5374 17.5814 37.5598C17.6068 37.6327 17.6281 37.7069 17.6452 37.7822C17.6531 37.8169 17.6594 37.8519 17.6662 37.8869C17.6904 38.011 17.6627 37.8098 17.6686 37.902C17.6734 37.9789 17.6791 38.0551 17.6778 38.1323C17.6772 38.1677 17.6756 38.203 17.6732 38.2383C17.6719 38.2558 17.67 38.2734 17.6688 38.291C17.6632 38.3758 17.663 38.26 17.6749 38.2521C17.6502 38.3241 17.6338 38.3986 17.6261 38.4743C17.6164 38.5079 17.6049 38.5408 17.5941 38.574C17.5565 38.69 17.6294 38.5108 17.5893 38.5901C17.5564 38.6581 17.5195 38.7242 17.4789 38.7881C17.4613 38.8148 17.395 38.8752 17.4492 38.8332C17.5082 38.7876 17.4184 38.8661 17.3992 38.8863C17.3746 38.9123 17.349 38.9373 17.3226 38.9615C17.3056 38.978 17.2877 38.9936 17.269 39.0081C17.2655 39.0063 17.3592 38.9455 17.3087 38.9777C17.2445 39.0186 17.1837 39.0624 17.1161 39.0981C17.1082 39.1023 17.0217 39.1423 17.0221 39.1437C17.0183 39.1292 17.1333 39.1033 17.0544 39.1288C17.0378 39.1341 17.0215 39.1406 17.005 39.1462C16.9332 39.1703 16.8599 39.1899 16.7855 39.2046C16.7685 39.208 16.7505 39.2097 16.7337 39.2141C16.6779 39.2285 16.7871 39.2056 16.7904 39.2075C16.7491 39.2057 16.7078 39.2094 16.6674 39.2184C16.5908 39.2228 16.5139 39.2228 16.4372 39.2184C16.4195 39.2173 16.4018 39.2156 16.3841 39.2145C16.3429 39.2122 16.3127 39.1825 16.3675 39.2147C16.4097 39.2395 16.4062 39.2214 16.3688 39.2145C16.3513 39.2113 16.3337 39.2085 16.3162 39.2052C16.2403 39.191 16.1652 39.1727 16.0914 39.1502C16.0516 39.1381 16.0127 39.124 15.9735 39.1103C15.9564 39.1053 15.9398 39.0989 15.9238 39.0911C15.9235 39.0867 16.0248 39.1395 15.9713 39.1107C15.9038 39.0743 15.834 39.0439 15.7681 39.0041C15.733 38.9829 15.6992 38.9598 15.665 38.9371C15.6499 38.928 15.6357 38.9178 15.6222 38.9065C15.6234 38.9019 15.706 38.9785 15.6626 38.9371C15.6078 38.8849 15.5491 38.8381 15.4971 38.7824C15.4852 38.7696 15.474 38.7563 15.4621 38.7436L15.4507 38.7304C15.4214 38.6946 15.4208 38.6948 15.449 38.731C15.4777 38.7394 15.4764 38.7708 15.4492 38.73C15.4395 38.7155 15.4292 38.7013 15.4196 38.6868C15.3757 38.6242 15.3383 38.5574 15.3079 38.4873C15.3105 38.4853 15.3547 38.6173 15.3209 38.5177C15.3145 38.4988 15.3073 38.4803 15.3011 38.4614C15.2887 38.424 15.2777 38.3862 15.2683 38.3479C15.2589 38.31 15.2542 38.2709 15.2447 38.2331C15.2289 38.1695 15.254 38.2833 15.2511 38.2805C15.2421 38.2716 15.246 38.2164 15.2453 38.2032C15.241 38.1184 15.2506 38.0361 15.2521 37.9518C15.2533 37.8865 15.2467 38.0027 15.2454 37.9993C15.2457 37.9798 15.2492 37.9604 15.2556 37.9419C15.2654 37.8975 15.2745 37.8531 15.2865 37.8091C15.3002 37.7588 15.316 37.7091 15.3338 37.66C15.3405 37.6416 15.3487 37.6235 15.3549 37.605C15.3776 37.5371 15.3098 37.6869 15.3472 37.6257C15.3986 37.5416 15.4369 37.4505 15.4915 37.3673C15.5044 37.3476 15.583 37.2378 15.5413 37.2933C15.4997 37.3485 15.584 37.2438 15.6 37.2261C15.6663 37.1523 15.7442 37.0917 15.8128 37.021C15.8535 36.9792 15.7845 37.0416 15.7804 37.0445C15.8017 37.0293 15.8225 37.0136 15.844 36.9988C15.8815 36.9729 15.9199 36.9484 15.9593 36.9254C16.0036 36.8994 16.0537 36.8801 16.0967 36.8526C16.1475 36.8201 16.0579 36.8668 16.0563 36.8678C16.0795 36.8563 16.1037 36.8471 16.1287 36.8402C16.1705 36.8254 16.3525 36.7469 16.3907 36.7714C16.3889 36.7703 16.2525 36.7824 16.3628 36.7753C16.3888 36.7736 16.4148 36.7711 16.4409 36.77C16.4937 36.7678 16.5463 36.7692 16.5991 36.7719C16.7421 36.771 16.879 36.7137 16.9801 36.6126C17.0813 36.5115 17.1385 36.3746 17.1394 36.2316C17.1364 36.0892 17.0785 35.9535 16.9778 35.8529C16.8771 35.7522 16.7414 35.6943 16.5991 35.6912Z" fill="#3F3D56"/>
<path d="M24.1639 35.6912C23.6946 35.6883 23.2349 35.8236 22.8421 36.0802C22.4492 36.3368 22.1405 36.7033 21.9545 37.1341C21.7465 37.5558 21.6823 38.034 21.7717 38.4956C21.8611 38.9572 22.0993 39.3768 22.4497 39.6902C22.7792 39.9705 23.1743 40.1627 23.5982 40.2488C24.0221 40.3349 24.4609 40.3122 24.8736 40.1827C25.2957 40.0353 25.6617 39.7606 25.9213 39.3966C26.1808 39.0326 26.3211 38.5971 26.323 38.15C26.3418 37.654 26.2074 37.1642 25.9381 36.7473C25.6688 36.3304 25.2776 36.0065 24.8177 35.8197C24.6796 35.7822 24.5321 35.8008 24.4076 35.8715C24.2831 35.9422 24.1916 36.0592 24.153 36.1971C24.119 36.3351 24.1391 36.481 24.2093 36.6046C24.2795 36.7283 24.3944 36.8203 24.5304 36.8618C24.6246 36.8982 24.4444 36.8155 24.5323 36.8634C24.5685 36.8831 24.6053 36.9009 24.6408 36.9219C24.671 36.9398 24.6999 36.9594 24.7293 36.9785C24.8301 37.0444 24.68 36.9302 24.7445 36.9894C24.8004 37.0407 24.8558 37.0908 24.9066 37.1474C24.9258 37.1688 25.0011 37.2284 24.9426 37.1867C24.8979 37.1549 24.9254 37.1624 24.9426 37.188C24.9557 37.2074 24.9695 37.2262 24.9825 37.2457C25.0246 37.3095 25.0629 37.3757 25.0972 37.444C25.1051 37.4598 25.1124 37.476 25.1204 37.4917C25.1356 37.5212 25.1575 37.5289 25.1219 37.492C25.0879 37.4567 25.1096 37.4591 25.1217 37.4931C25.1297 37.5154 25.1385 37.5374 25.1462 37.5598C25.1716 37.6327 25.1928 37.7069 25.2099 37.7822C25.2179 37.8169 25.2242 37.8519 25.231 37.8869C25.2552 38.011 25.2275 37.8098 25.2334 37.902C25.2382 37.9789 25.2439 38.0551 25.2426 38.1323C25.242 38.1677 25.2404 38.203 25.238 38.2383C25.2367 38.2558 25.2347 38.2734 25.2336 38.291C25.228 38.3758 25.2278 38.26 25.2397 38.2521C25.215 38.3241 25.1986 38.3986 25.1908 38.4743C25.1812 38.5079 25.1697 38.5408 25.1589 38.574C25.1213 38.69 25.1942 38.5108 25.1541 38.5901C25.1212 38.6581 25.0843 38.7242 25.0437 38.7881C25.0261 38.8148 24.9597 38.8752 25.014 38.8332C25.0729 38.7876 24.9831 38.8661 24.964 38.8863C24.9394 38.9123 24.9138 38.9373 24.8874 38.9615C24.8704 38.978 24.8525 38.9936 24.8338 39.0081C24.8303 39.0063 24.924 38.9455 24.8735 38.9777C24.8093 39.0186 24.7485 39.0624 24.6809 39.0981C24.673 39.1023 24.5865 39.1423 24.5868 39.1437C24.5831 39.1292 24.698 39.1033 24.6192 39.1288C24.6026 39.1341 24.5863 39.1406 24.5698 39.1462C24.498 39.1703 24.4246 39.1899 24.3503 39.2046C24.3333 39.208 24.3153 39.2097 24.2985 39.2141C24.2427 39.2285 24.3519 39.2056 24.3552 39.2075C24.3139 39.2057 24.2725 39.2094 24.2322 39.2184C24.1555 39.2228 24.0787 39.2228 24.002 39.2184C23.9843 39.2173 23.9666 39.2156 23.9489 39.2145C23.9077 39.2122 23.8775 39.1825 23.9323 39.2147C23.9745 39.2395 23.971 39.2214 23.9336 39.2145C23.916 39.2113 23.8985 39.2085 23.8809 39.2052C23.8051 39.191 23.73 39.1727 23.6562 39.1502C23.6164 39.1381 23.5775 39.124 23.5383 39.1103C23.5212 39.1053 23.5046 39.0989 23.4886 39.0911C23.4883 39.0867 23.5896 39.1395 23.5361 39.1107C23.4686 39.0743 23.3988 39.0439 23.3329 39.0041C23.2978 38.9829 23.264 38.9598 23.2298 38.9371C23.2147 38.928 23.2004 38.9178 23.187 38.9065C23.1881 38.9019 23.2708 38.9785 23.2274 38.9371C23.1725 38.8849 23.1139 38.8381 23.0619 38.7824C23.05 38.7696 23.0388 38.7563 23.0269 38.7436L23.0155 38.7304C22.9862 38.6946 22.9856 38.6948 23.0138 38.731C23.0425 38.7394 23.0412 38.7708 23.014 38.73C23.0043 38.7155 22.994 38.7013 22.9843 38.6868C22.9405 38.6242 22.903 38.5574 22.8727 38.4873C22.8753 38.4853 22.9195 38.6173 22.8857 38.5177C22.8793 38.4988 22.8721 38.4803 22.8659 38.4614C22.8535 38.424 22.8425 38.3862 22.8331 38.3479C22.8237 38.31 22.8189 38.2709 22.8095 38.2331C22.7936 38.1695 22.8188 38.2833 22.8159 38.2805C22.8069 38.2716 22.8108 38.2164 22.8101 38.2032C22.8058 38.1184 22.8154 38.0361 22.8169 37.9518C22.8181 37.8865 22.8115 38.0027 22.8102 37.9993C22.8105 37.9798 22.814 37.9604 22.8204 37.9419C22.8302 37.8975 22.8393 37.8531 22.8513 37.8091C22.865 37.7588 22.8808 37.7091 22.8986 37.66C22.9053 37.6416 22.9134 37.6235 22.9196 37.605C22.9424 37.5371 22.8746 37.6869 22.912 37.6257C22.9634 37.5416 23.0017 37.4505 23.0563 37.3673C23.0692 37.3476 23.1478 37.2378 23.1061 37.2933C23.0645 37.3485 23.1488 37.2438 23.1648 37.2261C23.231 37.1523 23.309 37.0917 23.3776 37.021C23.4182 36.9792 23.3493 37.0416 23.3452 37.0445C23.3664 37.0293 23.3873 37.0136 23.4088 36.9988C23.4463 36.9729 23.4847 36.9484 23.5241 36.9254C23.5684 36.8994 23.6185 36.8801 23.6615 36.8526C23.7123 36.8201 23.6227 36.8668 23.6211 36.8678C23.6443 36.8563 23.6685 36.8471 23.6935 36.8402C23.7353 36.8254 23.9173 36.7469 23.9554 36.7714C23.9537 36.7703 23.8173 36.7824 23.9276 36.7753C23.9536 36.7736 23.9796 36.7711 24.0057 36.77C24.0585 36.7678 24.1111 36.7692 24.1639 36.7719C24.3069 36.771 24.4438 36.7137 24.5449 36.6126C24.6461 36.5115 24.7033 36.3746 24.7042 36.2316C24.7012 36.0892 24.6433 35.9535 24.5426 35.8529C24.4419 35.7522 24.3062 35.6943 24.1639 35.6912Z" fill="#3F3D56"/>
<path d="M31.7287 35.6912C31.2594 35.6883 30.7997 35.8236 30.4068 36.0802C30.014 36.3368 29.7053 36.7033 29.5193 37.1341C29.3113 37.5558 29.2471 38.034 29.3365 38.4956C29.4259 38.9572 29.6641 39.3768 30.0145 39.6902C30.344 39.9705 30.7391 40.1627 31.163 40.2488C31.5869 40.3349 32.0257 40.3122 32.4384 40.1827C32.8605 40.0353 33.2265 39.7606 33.486 39.3966C33.7456 39.0326 33.8859 38.5971 33.8877 38.15C33.9066 37.654 33.7722 37.1642 33.5029 36.7473C33.2336 36.3304 32.8424 36.0065 32.3825 35.8197C32.2443 35.7822 32.0969 35.8008 31.9724 35.8715C31.8479 35.9422 31.7564 36.0592 31.7178 36.1971C31.6838 36.3351 31.7039 36.481 31.7741 36.6046C31.8443 36.7283 31.9592 36.8203 32.0952 36.8618C32.1894 36.8982 32.0092 36.8155 32.0971 36.8634C32.1333 36.8831 32.1701 36.9009 32.2056 36.9219C32.2358 36.9398 32.2647 36.9594 32.2941 36.9785C32.3949 37.0444 32.2448 36.9302 32.3093 36.9894C32.3652 37.0407 32.4206 37.0908 32.4714 37.1474C32.4906 37.1688 32.5659 37.2284 32.5074 37.1867C32.4626 37.1549 32.4901 37.1624 32.5074 37.188C32.5205 37.2074 32.5343 37.2262 32.5472 37.2457C32.5894 37.3095 32.6277 37.3757 32.6619 37.444C32.6699 37.4598 32.6771 37.476 32.6852 37.4917C32.7003 37.5212 32.7223 37.5289 32.6867 37.492C32.6527 37.4567 32.6744 37.4591 32.6865 37.4931C32.6945 37.5154 32.7032 37.5374 32.711 37.5598C32.7363 37.6327 32.7576 37.7069 32.7747 37.7822C32.7826 37.8169 32.789 37.8519 32.7958 37.8869C32.8199 38.011 32.7923 37.8098 32.7981 37.902C32.803 37.9789 32.8087 38.0551 32.8073 38.1323C32.8067 38.1677 32.8052 38.203 32.8027 38.2383C32.8015 38.2558 32.7995 38.2734 32.7984 38.291C32.7928 38.3758 32.7926 38.26 32.8045 38.2521C32.7798 38.3241 32.7634 38.3986 32.7556 38.4743C32.7459 38.5079 32.7344 38.5408 32.7237 38.574C32.6861 38.69 32.759 38.5108 32.7189 38.5901C32.6859 38.6581 32.6491 38.7242 32.6085 38.7881C32.5909 38.8148 32.5245 38.8752 32.5788 38.8332C32.6377 38.7876 32.5479 38.8661 32.5288 38.8863C32.5042 38.9123 32.4786 38.9373 32.4521 38.9615C32.4352 38.978 32.4173 38.9936 32.3985 39.0081C32.3951 39.0063 32.4888 38.9455 32.4383 38.9777C32.3741 39.0186 32.3133 39.0624 32.2456 39.0981C32.2378 39.1023 32.1513 39.1423 32.1516 39.1437C32.1479 39.1292 32.2628 39.1033 32.1839 39.1288C32.1674 39.1341 32.1511 39.1406 32.1346 39.1462C32.0627 39.1703 31.9894 39.1899 31.9151 39.2046C31.8981 39.208 31.8801 39.2097 31.8633 39.2141C31.8074 39.2285 31.9167 39.2056 31.9199 39.2075C31.8787 39.2057 31.8373 39.2094 31.797 39.2184C31.7203 39.2228 31.6435 39.2228 31.5668 39.2184C31.5491 39.2173 31.5314 39.2156 31.5136 39.2145C31.4725 39.2122 31.4422 39.1825 31.497 39.2147C31.5393 39.2395 31.5358 39.2214 31.4983 39.2145C31.4808 39.2113 31.4632 39.2085 31.4457 39.2052C31.3698 39.191 31.2948 39.1727 31.2209 39.1502C31.1812 39.1381 31.1422 39.124 31.103 39.1103C31.086 39.1053 31.0693 39.0989 31.0533 39.0911C31.0531 39.0867 31.1544 39.1395 31.1009 39.1107C31.0334 39.0743 30.9636 39.0439 30.8977 39.0041C30.8625 38.9829 30.8287 38.9598 30.7945 38.9371C30.7795 38.928 30.7652 38.9178 30.7518 38.9065C30.7529 38.9019 30.8356 38.9785 30.7922 38.9371C30.7373 38.8849 30.6786 38.8381 30.6267 38.7824C30.6148 38.7696 30.6035 38.7563 30.5917 38.7436L30.5802 38.7304C30.5509 38.6946 30.5504 38.6948 30.5786 38.731C30.6072 38.7394 30.6059 38.7708 30.5788 38.73C30.5691 38.7155 30.5588 38.7013 30.5491 38.6868C30.5052 38.6242 30.4678 38.5574 30.4374 38.4873C30.4401 38.4853 30.4842 38.6173 30.4505 38.5177C30.4441 38.4988 30.4369 38.4803 30.4306 38.4614C30.4182 38.424 30.4073 38.3862 30.3979 38.3479C30.3885 38.31 30.3837 38.2709 30.3743 38.2331C30.3584 38.1695 30.3836 38.2833 30.3807 38.2805C30.3717 38.2716 30.3755 38.2164 30.3749 38.2032C30.3705 38.1184 30.3802 38.0361 30.3817 37.9518C30.3829 37.8865 30.3763 38.0027 30.375 37.9993C30.3753 37.9798 30.3787 37.9604 30.3852 37.9419C30.395 37.8975 30.4041 37.8531 30.4161 37.8091C30.4298 37.7588 30.4456 37.7091 30.4634 37.66C30.4701 37.6416 30.4782 37.6235 30.4844 37.605C30.5072 37.5371 30.4394 37.6869 30.4768 37.6257C30.5282 37.5416 30.5665 37.4505 30.6211 37.3673C30.634 37.3476 30.7126 37.2378 30.6709 37.2933C30.6293 37.3485 30.7136 37.2438 30.7296 37.2261C30.7958 37.1523 30.8738 37.0917 30.9424 37.021C30.983 36.9792 30.9141 37.0416 30.91 37.0445C30.9312 37.0293 30.952 37.0136 30.9736 36.9988C31.0111 36.9729 31.0495 36.9484 31.0889 36.9254C31.1332 36.8994 31.1833 36.8801 31.2263 36.8526C31.277 36.8201 31.1875 36.8668 31.1859 36.8678C31.209 36.8563 31.2333 36.8471 31.2582 36.8402C31.3001 36.8254 31.4821 36.7469 31.5202 36.7714C31.5185 36.7703 31.3821 36.7824 31.4924 36.7753C31.5184 36.7736 31.5444 36.7711 31.5705 36.77C31.6233 36.7678 31.6759 36.7692 31.7287 36.7719C31.8717 36.771 32.0086 36.7137 32.1097 36.6126C32.2108 36.5115 32.2681 36.3746 32.269 36.2316C32.266 36.0892 32.208 35.9535 32.1074 35.8529C32.0067 35.7522 31.871 35.6943 31.7287 35.6912Z" fill="#3F3D56"/>
<path d="M15.9411 64.0706L16.423 82.5159L16.9049 100.961C16.9657 103.289 16.6369 106.463 18.9977 107.827C19.9825 108.395 21.16 108.52 22.2761 108.551C23.7577 108.592 25.2441 108.562 26.7263 108.563L45.188 108.583C47.6136 108.586 50.2779 108.515 52.0158 106.561C53.4664 104.93 53.8775 102.669 54.023 100.56C54.2149 97.7757 54.1228 94.9568 54.1477 92.1672L54.2306 82.8972L54.3135 73.6272C54.3387 70.811 54.4718 67.9719 54.3483 65.1575C54.2541 63.0102 53.891 60.7171 52.4514 59.0296C50.8113 57.1072 48.2181 56.8478 45.8528 56.772C39.7357 56.5762 33.6175 56.4109 27.5 56.2305C26.0926 56.189 24.6811 56.1134 23.2729 56.132C22.0206 56.1078 20.7734 56.2989 19.5857 56.6969C17.6078 57.4373 16.0627 59.2137 16.1315 61.4168C16.1359 61.8782 16.2378 62.3335 16.4304 62.7529C16.623 63.1723 16.9019 63.5462 17.249 63.8504C17.777 64.297 18.5451 63.5362 18.0132 63.0862C16.5715 61.8665 17.2697 59.5812 18.53 58.4988C20.356 56.9304 23.2187 57.1849 25.4454 57.2506L42.7753 57.7617C44.1193 57.8013 45.467 57.8147 46.8094 57.8937C48.0077 57.9642 49.2594 58.1199 50.3319 58.697C52.1866 59.6948 52.9104 61.7423 53.1541 63.7224C53.4607 66.2139 53.2761 68.7846 53.2537 71.2872L53.1748 80.1072L53.0187 97.5671C52.9997 99.6908 53.0325 101.883 52.318 103.913C52.0109 104.855 51.4486 105.694 50.6935 106.335C49.7453 107.023 48.6122 107.411 47.4411 107.447C46.1257 107.553 44.7953 107.502 43.4769 107.5L38.974 107.496L30.3285 107.486L25.8257 107.482C24.5099 107.48 23.1846 107.526 21.8705 107.454C20.8619 107.399 19.7365 107.224 18.9934 106.474C18.161 105.634 18.0837 104.336 18.0455 103.221C17.6476 91.6148 17.4379 79.9988 17.1346 68.3895L17.0218 64.0706C17.0037 63.3765 15.9229 63.3738 15.9411 64.0706L15.9411 64.0706Z" fill="#3F3D56"/>
<path d="M84.3845 64.0706L84.8664 82.5159L85.3483 100.961C85.4091 103.289 85.0803 106.463 87.4411 107.827C88.4259 108.395 89.6034 108.52 90.7195 108.551C92.2011 108.592 93.6875 108.562 95.1696 108.563L113.631 108.583C116.057 108.586 118.721 108.515 120.459 106.561C121.91 104.93 122.321 102.669 122.466 100.56C122.658 97.7757 122.566 94.9568 122.591 92.1672L122.674 82.8972L122.757 73.6272C122.782 70.811 122.915 67.9719 122.792 65.1575C122.697 63.0102 122.334 60.7171 120.895 59.0296C119.255 57.1072 116.661 56.8478 114.296 56.772C108.179 56.5762 102.061 56.4109 95.9433 56.2305C94.536 56.189 93.1245 56.1134 91.7162 56.132C90.4639 56.1078 89.2167 56.2989 88.0291 56.6969C86.0512 57.4373 84.5061 59.2137 84.5748 61.4168C84.5793 61.8782 84.6812 62.3335 84.8737 62.7529C85.0663 63.1723 85.3453 63.5462 85.6924 63.8504C86.2203 64.297 86.9885 63.5362 86.4566 63.0862C85.0148 61.8665 85.7131 59.5812 86.9734 58.4988C88.7994 56.9304 91.6621 57.1849 93.8888 57.2506L111.219 57.7617C112.563 57.8013 113.91 57.8147 115.253 57.8937C116.451 57.9642 117.703 58.1199 118.775 58.697C120.63 59.6948 121.354 61.7423 121.597 63.7224C121.904 66.2139 121.719 68.7846 121.697 71.2872L121.618 80.1072L121.462 97.5671C121.443 99.6908 121.476 101.883 120.761 103.913C120.454 104.855 119.892 105.694 119.137 106.335C118.189 107.023 117.056 107.411 115.885 107.447C114.569 107.553 113.239 107.502 111.92 107.5L107.417 107.496L98.7719 107.486L94.269 107.482C92.9533 107.48 91.628 107.526 90.3139 107.454C89.3053 107.399 88.1798 107.224 87.4367 106.474C86.6043 105.634 86.5271 104.336 86.4889 103.221C86.091 91.6148 85.8813 79.9988 85.578 68.3895L85.4652 64.0706C85.447 63.3765 84.3663 63.3738 84.3845 64.0706L84.3845 64.0706Z" fill="#3F3D56"/>
<path d="M34.5949 112.576C34.2172 112.213 33.7522 111.952 33.2448 111.82C32.7373 111.688 32.2045 111.689 31.6974 111.823C31.1935 111.961 30.7266 112.209 30.3302 112.549C29.9338 112.89 29.6178 113.314 29.405 113.791C28.384 115.965 29.2987 118.5 30.7094 120.275C32.0204 121.925 34.1501 123.012 36.2248 122.146C37.1701 121.741 37.9643 121.05 38.4954 120.169C39.0266 119.288 39.2678 118.263 39.1852 117.238C38.9236 114.824 36.9616 112.868 34.6576 112.279C33.9835 112.106 33.696 113.148 34.3703 113.321C35.1712 113.515 35.9126 113.902 36.53 114.447C37.1474 114.993 37.6221 115.682 37.9129 116.453C38.1679 117.207 38.1789 118.022 37.9443 118.783C37.7097 119.544 37.2415 120.212 36.6059 120.692C33.3857 123.165 29.7023 118.437 30.0634 115.343C30.1019 114.887 30.2449 114.445 30.4813 114.053C30.7178 113.661 31.0413 113.328 31.4268 113.081C31.8022 112.86 32.2387 112.766 32.6718 112.813C33.1048 112.859 33.5112 113.044 33.8308 113.34C33.9332 113.436 34.0689 113.488 34.2091 113.486C34.3493 113.484 34.4831 113.427 34.5822 113.328C34.6814 113.229 34.7381 113.095 34.7405 112.955C34.7429 112.814 34.6907 112.679 34.5949 112.576L34.5949 112.576Z" fill="#3F3D56"/>
<path d="M100.616 75.0713C99.3551 74.6375 97.8912 74.2068 96.5863 74.7153C95.3552 75.1949 94.6772 76.3693 94.5439 77.6439C94.3952 79.0652 94.9996 80.4209 95.6401 81.6515C96.4107 83.1317 97.2053 84.5999 97.9884 86.0735L100.697 91.1708C100.759 91.2704 100.851 91.3475 100.96 91.3906C101.069 91.4337 101.189 91.4404 101.302 91.4097C101.415 91.3791 101.515 91.3127 101.588 91.2205C101.66 91.1283 101.701 91.0152 101.704 90.898C101.551 89.1889 101.822 87.4685 102.494 85.8893C103.186 84.2932 104.318 82.9452 105.123 81.4105C105.863 79.9977 106.357 78.3767 105.965 76.7843C105.647 75.4964 104.711 74.2432 103.361 73.9434C102.679 73.7707 101.958 73.8471 101.327 74.1587C100.696 74.4704 100.197 74.9968 99.9198 75.6434C99.6649 76.2906 100.71 76.5714 100.962 75.9307C101.321 75.0181 102.58 74.7383 103.418 75.0876C104.511 75.5426 105.029 76.8485 105.028 77.9585C105.026 79.4759 104.249 80.8626 103.46 82.109C102.663 83.3679 101.826 84.5854 101.296 85.9885C100.712 87.5552 100.482 89.2319 100.623 90.898L101.63 90.6253C99.8714 87.3155 98.0159 84.0391 96.3556 80.6789C95.7171 79.3867 95.1428 77.6439 96.1217 76.355C97.1252 75.0335 99.0407 75.6702 100.329 76.1133C100.988 76.34 101.271 75.2965 100.616 75.0712L100.616 75.0713Z" fill="#3F3D56"/>
<path d="M31.8352 115.595L33.4264 118.682C33.4816 118.772 33.5615 118.843 33.6565 118.889C33.7516 118.934 33.8577 118.951 33.962 118.937C34.0664 118.923 34.1646 118.88 34.2448 118.812C34.325 118.744 34.3838 118.654 34.414 118.553C34.8286 116.416 35.8218 114.434 37.2853 112.823C37.7536 112.311 36.9914 111.544 36.5212 112.059C34.9244 113.802 33.8353 115.948 33.372 118.266L34.3596 118.136L32.7683 115.05C32.4495 114.432 31.5167 114.978 31.8352 115.595Z" fill="#3F3D56"/>
<path d="M49.885 101.347L37.3119 112.452C37.241 112.515 37.1488 112.548 37.0543 112.545C36.9598 112.541 36.8702 112.502 36.8039 112.434C36.7377 112.367 36.6998 112.277 36.6981 112.182C36.6965 112.088 36.7312 111.996 36.795 111.926L48.51 99.1355L49.885 101.347Z" fill="#3F3D56"/>
<path d="M66.6469 236.498H71.5885L73.9404 217.437H66.6469V236.498Z" fill="#FFB6B6"/>
<path d="M64.0386 245.06H67.5825L68.2151 241.714L69.8352 245.06H79.2346C79.6851 245.06 80.1239 244.916 80.4868 244.649C80.8497 244.382 81.1178 244.006 81.2519 243.576C81.386 243.146 81.379 242.684 81.2321 242.258C81.0852 241.832 80.806 241.464 80.4352 241.208L72.9291 236.024V232.642L65.0341 233.113L64.0386 245.06Z" fill="#2F2E41"/>
<path d="M108.976 236.498H113.918L116.269 217.437H108.976V236.498Z" fill="#FFB6B6"/>
<path d="M106.368 245.06H109.911L110.544 241.714L112.164 245.06H121.564C122.014 245.06 122.453 244.916 122.816 244.649C123.179 244.382 123.447 244.006 123.581 243.576C123.715 243.146 123.708 242.684 123.561 242.258C123.414 241.832 123.135 241.464 122.764 241.208L115.258 236.024V232.642L107.363 233.113L106.368 245.06Z" fill="#2F2E41"/>
<path d="M94.6931 135.462L69.6299 132.677C69.6299 132.677 58.4907 147.158 62.6679 159.69V173.645L65.7312 228.196L73.3893 228.614L75.6172 203.829L77.7058 193.943L79.465 156.278L88.4273 167.07L89.2627 171.247L92.0475 173.196L97.1994 180.276L107.782 223.74L117.107 223.88C117.107 223.88 112.098 178.766 111.541 178.766C110.984 178.766 97.0601 148.412 97.0601 148.412V146.805L96.5032 143.677C96.5032 143.677 97.8956 142.564 97.3386 142.007C96.7817 141.45 96.2247 139.779 96.2247 139.779L94.6931 135.462Z" fill="#2F2E41"/>
<path d="M85.6425 96.6144L90.6551 102.184L97.6171 104.69L93.7184 127.526L95.0115 134.092L96.9209 141.31C89.5636 145.38 80.8242 139.76 72.7954 137.263L64.8957 140.753L65.3134 131.146L65.5276 106.939C65.5359 106.01 65.7351 105.091 66.113 104.242C66.4908 103.392 67.0393 102.63 67.7243 102.001C68.4092 101.372 69.2161 100.891 70.0948 100.587C70.9736 100.283 71.9053 100.163 72.8324 100.235L78.1235 96.3359L85.6425 96.6144Z" fill="#57ACF9"/>
<path d="M40.17 106.829C40.2095 107.242 40.3392 107.642 40.5499 108C40.7605 108.357 41.047 108.664 41.3892 108.899C41.7314 109.134 42.121 109.291 42.5304 109.36C42.9399 109.428 43.3593 109.405 43.7591 109.294L49.506 117.587L51.4598 112.722L45.703 105.592C45.4711 104.932 45.0055 104.381 44.3943 104.042C43.7831 103.703 43.0689 103.6 42.3868 103.753C41.7048 103.905 41.1025 104.303 40.6939 104.87C40.2853 105.437 40.0989 106.134 40.17 106.829Z" fill="#FFB8B8"/>
<path d="M70.2601 100.353C70.2601 100.353 62.7799 100.022 63.6175 114.887L60.4353 121.418L54.035 115.444L54.006 113.543L48.5933 107.493L44.2486 112.296L47.1407 116.717L47.6981 119.187L49.4595 120.263L54.0552 127.289L56.1811 129.382C56.1811 129.382 58.8779 132.069 61.9282 131.664C62.742 131.558 63.5342 131.325 64.2757 130.974C65.7267 130.283 67.1602 129.045 68.3656 126.948C70.8915 122.618 73.1561 118.141 75.1472 113.541L70.2601 100.353Z" fill="#57ACF9"/>
<path d="M103.006 83.571C102.892 83.9701 102.867 84.3893 102.932 84.7992C102.997 85.2092 103.152 85.5998 103.385 85.9435C103.617 86.2873 103.922 86.5759 104.279 86.789C104.635 87.002 105.034 87.1344 105.446 87.1767L107.765 96.9969L111.362 93.1819L108.609 84.4414C108.634 83.743 108.402 83.0596 107.957 82.5207C107.512 81.9819 106.885 81.625 106.194 81.5177C105.504 81.4104 104.798 81.5602 104.21 81.9386C103.623 82.3171 103.194 82.8979 103.006 83.571V83.571Z" fill="#FFB8B8"/>
<path d="M87.0869 103.367C87.0869 103.367 91.0422 97.009 102.831 106.104L110.016 107.17L108.707 98.514L107.155 97.4152L105.225 89.5303L111.643 88.6616L113.655 93.5468L115.377 95.4026L115.269 97.4637L118.466 105.227L118.991 108.163C118.991 108.163 119.683 111.907 117.624 114.194C117.077 114.806 116.437 115.327 115.728 115.74C114.338 116.547 112.506 117.029 110.095 116.838C105.096 116.474 100.123 115.811 95.2022 114.853L87.0869 103.367Z" fill="#57ACF9"/>
<path d="M86.5287 94.2925C91.2033 91.7372 92.9213 85.8762 90.3659 81.2016C87.8106 76.527 81.9496 74.809 77.275 77.3644C72.6005 79.9197 70.8825 85.7807 73.4378 90.4553C75.9932 95.1298 81.8542 96.8478 86.5287 94.2925Z" fill="#FFB6B6"/>
<path d="M94.5936 82.5C94.5648 82.5108 94.5396 82.5216 94.5108 82.5324C94.4558 82.5566 94.3992 82.577 94.3415 82.5937C93.9733 82.7278 93.5896 82.815 93.1996 82.853C93.0332 82.8706 92.8661 82.879 92.6989 82.8783C92.4844 82.8785 92.2701 82.864 92.0576 82.835C91.8213 82.8054 91.5876 82.7572 91.3588 82.6909C91.2502 82.6616 91.1432 82.6267 91.0382 82.5865C90.3228 82.3303 89.6765 81.9117 89.1502 81.3635C88.6239 80.8153 88.2319 80.1525 88.0051 79.4273V79.4237C87.9809 79.3528 87.9604 79.2806 87.9438 79.2075C87.8378 78.8018 87.7845 78.3841 87.7853 77.9647V77.9575C87.7852 76.9349 88.1066 75.9381 88.7039 75.1081C89.0642 74.6002 89.479 74.5162 89.2479 73.9338C88.5106 72.0759 91.55 70.5663 93.3401 71.387C93.4047 71.381 93.4696 71.3786 93.5346 71.3798C94.7413 71.3798 95.1844 73.1629 95.9013 74.1679L95.8804 74.1747C95.6981 74.238 95.5401 74.3567 95.4286 74.5142C95.317 74.6717 95.2575 74.8602 95.2583 75.0532C95.2591 75.2462 95.3202 75.4342 95.4331 75.5908C95.5459 75.7473 95.7049 75.8647 95.8878 75.9265C96.3664 76.0838 96.85 76.2229 97.3386 76.3437C98.9463 78.2523 97.0836 83.8192 94.5936 82.5Z" fill="#2F2E41"/>
<path d="M93.693 87.6045C93.1563 89.6326 92.1692 91.6102 90.5374 92.9251C88.902 94.2399 81.2183 97.3451 80.5771 94.6686C81.0058 96.5381 80.7428 97.2514 80.044 97.9178C79.9251 97.7557 79.799 97.6008 79.6693 97.4495C79.1916 96.8963 78.6181 96.4338 77.9762 96.0843C77.9567 97.2128 78.0351 98.341 78.2104 99.456C77.9225 99.7203 77.6483 99.9992 77.3891 100.292C76.1571 96.5886 73.4473 92.15 75.4258 88.786C76.2111 87.4509 75.5596 87.2662 74.8675 87.111C73.6592 86.84 73.0051 81.8769 72.7205 80.6701C72.3675 79.1571 72.2306 77.4172 73.1708 76.178C74.111 74.9389 76.4813 74.892 76.9568 76.3726L77.9582 75.0181C79.2551 72.1831 82.6772 72.7595 85.7716 73.1341C88.8659 73.5052 91.5929 75.6881 92.9798 78.4799C94.363 81.2717 94.4891 84.5893 93.693 87.6045Z" fill="#2F2E41"/>
<path d="M88.8462 74.6271C88.7762 76.3385 89.2106 78.0327 90.0956 79.4991C90.9805 80.9656 92.277 82.1396 93.8237 82.8753C94.4518 83.1618 95.0017 82.2307 94.3691 81.9421C92.9871 81.3004 91.8269 80.2624 91.036 78.9599C90.2451 77.6575 89.859 76.1494 89.9269 74.6271C89.9647 73.9322 88.8839 73.9343 88.8462 74.6271Z" fill="#FF6584"/>
<path d="M129.276 245.042H24.0465V245.763H129.276V245.042Z" fill="#E1F0FF"/>
</svg>
