<svg width="224" height="216" viewBox="0 0 224 216" fill="none" xmlns="http://www.w3.org/2000/svg">
<path opacity="0.1" d="M111.653 215.962C173.317 215.962 223.306 212.657 223.306 208.58C223.306 204.503 173.317 201.198 111.653 201.198C49.9887 201.198 0 204.503 0 208.58C0 212.657 49.9887 215.962 111.653 215.962Z" fill="#57ACF9"/>
<path d="M118.08 209.506C167.848 209.506 208.193 169.161 208.193 119.393C208.193 69.625 167.848 29.28 118.08 29.28C68.312 29.28 27.967 69.625 27.967 119.393C27.967 169.161 68.312 209.506 118.08 209.506Z" fill="#3F3D56"/>
<path d="M118.08 202.046C163.728 202.046 200.733 165.041 200.733 119.393C200.733 73.7449 163.728 36.7397 118.08 36.7397C72.4319 36.7397 35.4268 73.7449 35.4268 119.393C35.4268 165.041 72.4319 202.046 118.08 202.046Z" fill="white"/>
<path d="M117.782 130.732C123.879 130.732 128.822 125.789 128.822 119.691C128.822 113.594 123.879 108.651 117.782 108.651C111.684 108.651 106.741 113.594 106.741 119.691C106.741 125.789 111.684 130.732 117.782 130.732Z" fill="#3F3D56"/>
<path d="M120.169 40.9172H115.395V49.8689H120.169V40.9172Z" fill="#3F3D56"/>
<path d="M120.169 189.514H115.395V198.466H120.169V189.514Z" fill="#3F3D56"/>
<path d="M47.959 122.079V117.304H39.0074V122.079H47.959Z" fill="#3F3D56"/>
<path d="M196.556 122.079V117.304H187.604V122.079H196.556Z" fill="#3F3D56"/>
<path d="M114.599 124.484L118.679 115.155L169.803 143.469L114.599 124.484Z" fill="#3F3D56"/>
<path d="M129.717 7.4978H106.443V34.3527H129.717V7.4978Z" fill="#3F3D56"/>
<path d="M118.08 14.9575C132.912 14.9575 144.935 11.6176 144.935 7.49777C144.935 3.3779 132.912 0.0380859 118.08 0.0380859C103.249 0.0380859 91.2252 3.3779 91.2252 7.49777C91.2252 11.6176 103.249 14.9575 118.08 14.9575Z" fill="#3F3D56"/>
<path d="M168.358 135.357L166.866 137.445C166.866 137.445 160.003 145.502 159.705 141.623C159.407 137.744 164.778 135.058 164.778 135.058L167.762 133.268L168.358 135.357Z" fill="#FFB8B8"/>
<path d="M210.832 142.404L212.082 144.646C212.082 144.646 216.426 154.297 212.793 152.906C209.159 151.516 209.03 145.512 209.03 145.512L208.689 142.049L210.832 142.404Z" fill="#FFB8B8"/>
<path d="M204.115 102.643C209.133 102.643 213.201 98.5756 213.201 93.5577C213.201 88.5397 209.133 84.4719 204.115 84.4719C199.097 84.4719 195.03 88.5397 195.03 93.5577C195.03 98.5756 199.097 102.643 204.115 102.643Z" fill="#2F2E41"/>
<path d="M203.27 168.18L204.463 175.938V178.325H211.326V175.341C211.326 175.341 211.624 169.97 210.431 168.478C209.237 166.986 203.27 168.18 203.27 168.18Z" fill="#FFB8B8"/>
<path d="M191.036 168.18L192.229 175.938V178.325H199.092V175.341C199.092 175.341 199.391 169.97 198.197 168.478C197.004 166.986 191.036 168.18 191.036 168.18Z" fill="#FFB8B8"/>
<path d="M195.654 105.862C195.654 105.862 193.014 107.253 194.817 110.418C196.62 113.583 207.199 146.324 207.199 146.324L213.301 144.592L207.919 123.885L204.838 110.871L195.654 105.862Z" fill="#57ACF9"/>
<path d="M203.12 102.982C206.911 102.982 209.983 99.909 209.983 96.1188C209.983 92.3285 206.911 89.2559 203.12 89.2559C199.33 89.2559 196.258 92.3285 196.258 96.1188C196.258 99.909 199.33 102.982 203.12 102.982Z" fill="#FFB8B8"/>
<path d="M206.254 97.1633L205.358 111.188L199.092 106.712C199.092 106.712 201.181 98.3569 200.584 97.7601L206.254 97.1633Z" fill="#FFB8B8"/>
<path d="M206.254 109.994L199.503 104.995C199.503 104.995 196.407 103.728 195.512 105.219C194.616 106.711 190.141 128.792 192.528 132.969C192.528 132.969 205.358 135.655 208.044 134.163L209.237 126.405C209.237 126.405 210.729 121.631 208.342 118.647L206.254 109.994Z" fill="#57ACF9"/>
<path d="M197.302 105.518C197.302 105.518 194.915 103.728 192.826 106.712C190.737 109.695 165.673 133.268 165.673 133.268L169.85 138.042L186.262 124.316L196.705 115.962L197.302 105.518Z" fill="#57ACF9"/>
<path d="M208.193 134.014C208.193 134.014 193.423 131.179 191.931 133.268L191.633 136.55C191.633 136.55 188.35 142.816 190.141 152.962C191.931 163.107 190.737 169.373 190.737 169.373C190.737 169.373 198.794 168.478 204.762 169.373C210.729 170.268 211.625 169.373 211.625 169.373L208.193 134.014Z" fill="#2F2E41"/>
<path d="M211.923 177.131L203.27 177.429L206.254 199.809C206.254 199.809 203.866 209.357 206.552 209.954C208.419 210.331 210.317 210.53 212.221 210.55C212.221 210.55 214.907 213.236 217.891 212.938C219.872 212.684 221.792 212.078 223.56 211.147C223.56 211.147 224.157 209.357 222.068 208.76C219.979 208.163 214.31 206.373 213.116 200.107L211.923 177.131Z" fill="#2F2E41"/>
<path d="M199.689 177.131L191.036 177.429L194.02 199.809C194.02 199.809 191.633 209.357 194.318 209.954C196.185 210.331 198.083 210.53 199.987 210.55C199.987 210.55 202.673 213.236 205.657 212.938C207.638 212.684 209.559 212.078 211.326 211.147C211.326 211.147 211.923 209.357 209.834 208.76C207.745 208.163 202.076 206.373 200.883 200.107L199.689 177.131Z" fill="#2F2E41"/>
<path d="M207.294 87.7548C209.37 87.7548 211.053 86.0716 211.053 83.9952C211.053 81.9188 209.37 80.2356 207.294 80.2356C205.217 80.2356 203.534 81.9188 203.534 83.9952C203.534 86.0716 205.217 87.7548 207.294 87.7548Z" fill="#2F2E41"/>
<path d="M212.306 81.9586C212.306 81.0293 211.962 80.1329 211.34 79.4424C210.718 78.7519 209.863 78.3162 208.938 78.2193C209.069 78.2058 209.199 78.199 209.33 78.199C210.327 78.199 211.283 78.5951 211.988 79.3001C212.694 80.0052 213.09 80.9615 213.09 81.9586C213.09 82.9557 212.694 83.912 211.988 84.617C211.283 85.3221 210.327 85.7182 209.33 85.7182C209.199 85.7182 209.069 85.7114 208.938 85.6979C209.863 85.601 210.718 85.1653 211.34 84.4748C211.962 83.7843 212.306 82.8879 212.306 81.9586Z" fill="#2F2E41"/>
<path d="M203.058 95.3913C206.519 95.3913 209.324 93.7081 209.324 91.6317C209.324 89.5553 206.519 87.8721 203.058 87.8721C199.598 87.8721 196.792 89.5553 196.792 91.6317C196.792 93.7081 199.598 95.3913 203.058 95.3913Z" fill="#2F2E41"/>
</svg>
