<svg width="307" height="177" viewBox="0 0 307 177" fill="none" xmlns="http://www.w3.org/2000/svg">
<path opacity="0.1" d="M306.92 155.994C306.92 163.332 299.314 170.199 286.043 176.113H35.3466C23.7473 176.113 12.8841 171.916 3.57372 164.598C1.23321 161.821 0 158.945 0 155.991C0 148.192 8.60017 140.912 23.4697 134.759L23.8894 134.591C28.0861 132.87 32.7769 131.246 37.9034 129.719C38.0325 129.681 38.1649 129.645 38.294 129.6C42.3617 128.405 46.6886 127.273 51.275 126.204C51.4202 126.171 51.5623 126.136 51.7076 126.11C53.4767 125.69 55.2813 125.3 57.1246 124.909L57.8349 124.761C71.2484 121.978 86.4956 119.77 103.031 118.272H103.05C105.366 118.057 107.707 117.864 110.072 117.694C112.703 117.484 115.366 117.307 118.059 117.142C120.115 117.01 122.197 116.897 124.286 116.793C124.294 116.79 124.302 116.788 124.31 116.788C124.319 116.788 124.327 116.79 124.334 116.793C133.758 116.319 143.494 116.07 153.45 116.07C178.069 116.07 201.339 117.581 221.958 120.267C221.977 120.263 221.997 120.263 222.016 120.267C225.186 120.68 228.298 121.116 231.333 121.581C232.201 121.716 233.067 121.852 233.916 121.991C237.34 122.544 240.676 123.128 243.923 123.744C282.114 131.004 306.92 142.752 306.92 155.994Z" fill="#57ACF9"/>
<path d="M214.781 15.0601H90.7505V77.6696H214.781V15.0601Z" fill="#33323D"/>
<path d="M253.812 96.6907H52.1143V137.903H253.812V96.6907Z" fill="#33323D"/>
<path d="M46.3679 72.1201V93.5205V98.0272V137.9H85.0041V99.8608H220.922V137.9H259.558V98.0272V93.5205V72.1201H46.3679Z" fill="#504F60"/>
<path opacity="0.1" d="M259.558 72.1201H46.3679V93.5172H259.558V72.1201Z" fill="#33323D"/>
<path opacity="0.8" d="M248.068 85.992C249.819 85.992 251.239 84.5726 251.239 82.8218C251.239 81.071 249.819 79.6516 248.068 79.6516C246.318 79.6516 244.898 81.071 244.898 82.8218C244.898 84.5726 246.318 85.992 248.068 85.992Z" fill="#8CCF4D"/>
<path opacity="0.8" d="M233.803 85.992C235.553 85.992 236.973 84.5726 236.973 82.8218C236.973 81.071 235.553 79.6516 233.803 79.6516C232.052 79.6516 230.632 81.071 230.632 82.8218C230.632 84.5726 232.052 85.992 233.803 85.992Z" fill="#FA5959"/>
<path d="M95.8089 67.6557V0.5H209.726V67.6557H95.8089Z" fill="white" stroke="#0B283F"/>
</svg>
