<svg width="552" height="277" viewBox="0 0 552 277" fill="none" xmlns="http://www.w3.org/2000/svg">
<ellipse cx="275.542" cy="241.039" rx="275.542" ry="35.9614" fill="#EFF7FF"/>
<path d="M245.18 156.514C245.18 150.534 222.671 145.686 194.905 145.686C167.138 145.686 144.629 150.534 144.629 156.514C144.629 160.347 153.883 163.712 167.833 165.637V224.966C167.833 226.299 168.363 227.578 169.306 228.521C170.249 229.464 171.527 229.994 172.861 229.994C174.194 229.994 175.473 229.464 176.416 228.521C177.359 227.578 177.888 226.299 177.888 224.966V166.705C183.204 167.117 188.931 167.343 194.905 167.343C200.878 167.343 206.606 167.117 211.921 166.705V224.966C211.921 226.299 212.451 227.578 213.394 228.521C214.336 229.464 215.615 229.994 216.949 229.994C218.282 229.994 219.561 229.464 220.504 228.521C221.446 227.578 221.976 226.299 221.976 224.966V165.637C235.926 163.712 245.18 160.347 245.18 156.514Z" fill="#CCCCCC"/>
<path d="M235.506 220.266H244.989L249.5 183.69H235.505L235.506 220.266Z" fill="#A0616A"/>
<path d="M263.277 229.07L233.475 229.072L233.474 217.557L251.762 217.556C254.816 217.556 257.744 218.769 259.904 220.928C262.063 223.088 263.277 226.016 263.277 229.07L263.277 229.07Z" fill="#0B283F"/>
<path d="M250.309 214.974L259.356 212.135L252.711 175.886L239.357 180.076L250.309 214.974Z" fill="#A0616A"/>
<path d="M279.441 215.061L251.006 223.984L247.559 212.998L265.007 207.522C267.921 206.608 271.079 206.888 273.786 208.302C276.493 209.716 278.527 212.147 279.441 215.061Z" fill="#0B283F"/>
<path d="M243.965 198.14L226.618 152.605C222.726 153.519 190.09 160.741 179.159 149.102C175.413 145.113 174.682 139.334 176.987 131.925L183.366 123.909L183.565 123.919C185.977 124.046 242.685 127.225 246.572 144.33C249.85 158.751 255.836 185.637 257.592 193.534C257.77 194.353 257.648 195.208 257.249 195.944C256.849 196.68 256.199 197.247 255.416 197.544L248.439 200.16C248.051 200.306 247.639 200.381 247.224 200.381C246.517 200.381 245.828 200.167 245.246 199.766C244.664 199.366 244.217 198.799 243.965 198.14Z" fill="#0B283F"/>
<path d="M233.91 203.554L216.563 158.019C212.671 158.933 180.035 166.154 169.104 154.516C165.358 150.527 164.627 144.748 166.932 137.339L173.311 129.323L173.51 129.333C175.922 129.46 232.63 132.639 236.517 149.744C239.795 164.165 245.781 191.052 247.537 198.949C247.715 199.767 247.593 200.622 247.194 201.358C246.794 202.094 246.144 202.662 245.361 202.958L238.384 205.574C237.996 205.72 237.584 205.795 237.169 205.795C236.462 205.795 235.773 205.581 235.191 205.181C234.609 204.78 234.162 204.213 233.91 203.554Z" fill="#0B283F"/>
<path d="M257.352 94.4001C257.096 94.7429 256.867 95.1053 256.668 95.4841L218.52 99.5032L213.029 91.9743L200.583 98.7765L211.369 117.047L258.154 105.118C259.334 106.269 260.837 107.033 262.462 107.309C264.087 107.585 265.758 107.359 267.252 106.663C268.746 105.966 269.993 104.831 270.826 103.408C271.659 101.986 272.039 100.344 271.917 98.6997C271.794 97.0558 271.173 95.4883 270.138 94.2056C269.102 92.923 267.701 91.986 266.119 91.5192C264.538 91.0525 262.853 91.0781 261.287 91.5927C259.721 92.1073 258.348 93.0865 257.352 94.4001V94.4001Z" fill="#A0616A"/>
<path d="M166.687 139.743C166.165 139.367 165.757 138.854 165.509 138.26C165.26 137.667 165.181 137.016 165.28 136.38C167.432 122.192 164.956 101.868 162.5 87.3168C161.997 84.3643 162.193 81.3351 163.071 78.4718C163.949 75.6085 165.486 72.9907 167.558 70.8282C169.631 68.6657 172.18 67.0186 175.003 66.0187C177.827 65.0189 180.845 64.6941 183.816 65.0705C186.401 65.412 188.962 65.9168 191.483 66.5819C195.671 67.6366 199.376 70.0849 201.988 73.5243C204.6 76.9637 205.964 81.1895 205.856 85.507C205.489 99.5488 208.34 117.069 209.583 123.949C209.668 124.422 209.654 124.907 209.543 125.374C209.432 125.841 209.226 126.281 208.938 126.665C208.655 127.045 208.296 127.362 207.884 127.595C207.472 127.828 207.015 127.972 206.544 128.018C192.77 129.424 177.916 136.141 170.288 140.02C169.797 140.273 169.254 140.406 168.702 140.407C167.977 140.405 167.271 140.173 166.687 139.743Z" fill="#57ACF9"/>
<path d="M203.868 103.149C203.442 102.982 203.054 102.732 202.726 102.414C202.397 102.096 202.135 101.715 201.955 101.295L194.273 83.5498C193.808 82.4776 193.559 81.3243 193.54 80.1558C193.52 78.9873 193.732 77.8264 194.161 76.7396C194.591 75.6527 195.231 74.6613 196.044 73.8218C196.857 72.9823 197.827 72.3112 198.9 71.847C199.972 71.3828 201.126 71.1345 202.295 71.1163C203.463 71.0981 204.624 71.3103 205.71 71.7409C206.797 72.1715 207.788 72.812 208.627 73.6258C209.465 74.4395 210.136 75.4107 210.599 76.4836L218.281 94.2288C218.646 95.0761 218.661 96.0336 218.321 96.8916C217.981 97.7495 217.316 98.4378 216.469 98.8054L206.532 103.107C206.113 103.29 205.661 103.388 205.204 103.395C204.747 103.402 204.293 103.319 203.868 103.149H203.868Z" fill="#57ACF9"/>
<path d="M220.999 92.8532C220.743 93.196 220.514 93.5585 220.315 93.9372L182.167 97.9564L176.676 90.4274L164.23 97.2297L175.016 115.5L221.801 103.571C222.981 104.722 224.484 105.486 226.109 105.762C227.734 106.038 229.405 105.812 230.899 105.116C232.393 104.419 233.639 103.284 234.473 101.862C235.306 100.439 235.686 98.7967 235.563 97.1528C235.44 95.5089 234.82 93.9414 233.784 92.6587C232.749 91.3761 231.347 90.4391 229.766 89.9723C228.185 89.5056 226.5 89.5312 224.934 90.0458C223.367 90.5604 221.995 91.5396 220.999 92.8532V92.8532Z" fill="#A0616A"/>
<path d="M167.515 103.923C167.089 103.756 166.701 103.506 166.373 103.187C166.044 102.869 165.782 102.489 165.602 102.068L157.92 84.3232C157.455 83.2511 157.206 82.0978 157.187 80.9293C157.167 79.7607 157.379 78.5999 157.808 77.513C158.238 76.4262 158.878 75.4347 159.691 74.5952C160.504 73.7557 161.474 73.0847 162.547 72.6204C163.62 72.1562 164.773 71.9079 165.942 71.8897C167.11 71.8715 168.271 72.0838 169.357 72.5144C170.444 72.945 171.435 73.5855 172.274 74.3992C173.112 75.213 173.783 76.1841 174.246 77.257L181.928 95.0023C182.293 95.8495 182.308 96.8071 181.968 97.665C181.629 98.523 180.963 99.2112 180.116 99.5789L170.179 103.881C169.76 104.063 169.308 104.161 168.851 104.169C168.394 104.176 167.94 104.092 167.515 103.923H167.515Z" fill="#57ACF9"/>
<path d="M182.402 59.0336C192.894 59.0336 201.4 50.5283 201.4 40.0364C201.4 29.5446 192.894 21.0392 182.402 21.0392C171.911 21.0392 163.405 29.5446 163.405 40.0364C163.405 50.5283 171.911 59.0336 182.402 59.0336Z" fill="#A0616A"/>
<path d="M168.82 53.0745C168.738 52.8361 168.712 52.5821 168.744 52.3322C168.776 52.0822 168.865 51.8428 169.003 51.6323C169.142 51.4219 169.327 51.2459 169.544 51.1179C169.761 50.99 170.004 50.9134 170.256 50.8941C170.77 50.9221 171.274 51.054 171.736 51.282C172.198 51.51 172.609 51.8293 172.944 52.2206C173.632 53.0133 174.432 53.7005 175.32 54.2603C176.239 54.7235 177.485 54.6575 178.009 53.7744C178.501 52.9451 178.164 51.8345 177.866 50.8712C177.108 48.4203 176.684 45.8785 176.605 43.3144C176.52 40.4523 176.923 37.4654 178.508 35.2331C180.553 32.3521 184.209 31.2584 187.67 31.3377C191.13 31.417 194.535 32.4852 197.963 33.1605C199.146 33.3936 200.537 33.5128 201.328 32.5957C202.17 31.6205 201.861 30.0421 201.503 28.7254C200.574 25.3087 199.589 21.7761 197.43 19.0167C195.097 16.1493 191.764 14.2727 188.102 13.7647C184.586 13.3292 181.017 13.7344 177.689 14.9469C172.266 16.6561 167.494 19.9803 164.012 24.4749C160.422 29.2548 158.871 35.2616 159.697 41.182C160.505 46.3384 163.237 50.9969 167.344 54.2185L168.82 53.0745Z" fill="#0B283F"/>
<path d="M96.2841 98.8089C97.2397 88.5176 99.879 78.453 104.097 69.0171C105.272 66.3911 106.566 63.823 107.978 61.3127C108.049 61.1814 108.066 61.0278 108.025 60.8842C107.985 60.7406 107.891 60.6182 107.762 60.543C107.633 60.4677 107.48 60.4454 107.335 60.4807C107.19 60.5161 107.065 60.6063 106.985 60.7324C101.85 69.8756 98.2523 79.8006 96.3362 90.1106C95.8032 92.9897 95.4026 95.8892 95.1344 98.8089C95.0662 99.5454 96.2164 99.5407 96.2841 98.8089Z" fill="#0B283F"/>
<path d="M110.763 63.1568C114.784 63.1568 118.045 59.8966 118.045 55.875C118.045 51.8534 114.784 48.5933 110.763 48.5933C106.741 48.5933 103.481 51.8534 103.481 55.875C103.481 59.8966 106.741 63.1568 110.763 63.1568Z" fill="#57ACF9"/>
<path d="M97.0292 99.0024C97.6491 92.3259 99.3613 85.7966 102.097 79.675C102.86 77.9715 103.699 76.3054 104.615 74.6769C104.661 74.5917 104.672 74.492 104.646 74.3988C104.62 74.3057 104.559 74.2263 104.475 74.1775C104.392 74.1286 104.293 74.1142 104.199 74.1371C104.105 74.16 104.023 74.2186 103.971 74.3004C100.64 80.232 98.306 86.6708 97.0629 93.3594C96.7171 95.2272 96.4572 97.1082 96.2833 99.0024C96.239 99.4802 96.9852 99.4771 97.0292 99.0024Z" fill="#0B283F"/>
<path d="M106.422 75.8729C109.031 75.8729 111.146 73.7579 111.146 71.1489C111.146 68.5399 109.031 66.4249 106.422 66.4249C103.813 66.4249 101.698 68.5399 101.698 71.1489C101.698 73.7579 103.813 75.8729 106.422 75.8729Z" fill="#57ACF9"/>
<path d="M96.0877 98.5561C92.47 92.9105 89.8041 86.7091 88.1964 80.1995C87.7499 78.3873 87.387 76.5574 87.1077 74.7098C87.0915 74.6144 87.0389 74.529 86.961 74.4716C86.8831 74.4142 86.7859 74.3894 86.69 74.4022C86.5941 74.4151 86.5069 74.4648 86.4469 74.5407C86.3869 74.6166 86.3587 74.7128 86.3683 74.8091C87.3898 81.5351 89.5097 88.0475 92.6435 94.0859C93.5197 95.7713 94.4717 97.4143 95.4995 99.0148C95.7585 99.4187 96.345 98.9574 96.0877 98.5561Z" fill="#0B283F"/>
<path d="M86.3623 75.5414C88.9713 75.5414 91.0863 73.4264 91.0863 70.8174C91.0863 68.2084 88.9713 66.0934 86.3623 66.0934C83.7533 66.0934 81.6383 68.2084 81.6383 70.8174C81.6383 73.4264 83.7533 75.5414 86.3623 75.5414Z" fill="#57ACF9"/>
<path d="M81.5851 102.736V93.4542C81.5862 92.5314 81.9532 91.6467 82.6058 90.9942C83.2583 90.3417 84.143 89.9747 85.0658 89.9736H106.723C107.646 89.9747 108.53 90.3417 109.183 90.9942C109.835 91.6467 110.202 92.5314 110.203 93.4542V102.736C110.202 103.659 109.835 104.543 109.183 105.196C108.53 105.848 107.646 106.215 106.723 106.216H85.0658C84.143 106.215 83.2583 105.848 82.6058 105.196C81.9532 104.543 81.5862 103.659 81.5851 102.736Z" fill="#CCCCCC"/>
<path d="M275.732 100.051H214.628C213.133 100.051 211.921 101.263 211.921 102.758C211.921 104.253 213.133 105.465 214.628 105.465H275.732C277.227 105.465 278.439 104.253 278.439 102.758C278.439 101.263 277.227 100.051 275.732 100.051Z" fill="#CCCCCC"/>
<path d="M316.726 105.465H247.887C246.554 105.464 245.276 104.934 244.334 103.991C243.391 103.049 242.861 101.771 242.86 100.438V62.5377C242.861 61.2048 243.391 59.9269 244.334 58.9844C245.276 58.0419 246.554 57.5117 247.887 57.5102H316.726C318.059 57.5117 319.337 58.0419 320.279 58.9844C321.222 59.9269 321.752 61.2048 321.753 62.5377V100.438C321.752 101.771 321.222 103.049 320.279 103.991C319.337 104.934 318.059 105.464 316.726 105.465Z" fill="#CCCCCC"/>
<path d="M282.307 86.1283C284.87 86.1283 286.947 84.0505 286.947 81.4875C286.947 78.9244 284.87 76.8467 282.307 76.8467C279.744 76.8467 277.666 78.9244 277.666 81.4875C277.666 84.0505 279.744 86.1283 282.307 86.1283Z" fill="white"/>
<path d="M491.917 156.514C491.917 150.534 469.408 145.686 441.641 145.686C413.875 145.686 391.366 150.534 391.366 156.514C391.366 160.347 400.62 163.712 414.57 165.637V224.966C414.57 226.299 415.099 227.578 416.042 228.521C416.985 229.464 418.264 229.994 419.597 229.994C420.931 229.994 422.21 229.464 423.152 228.521C424.095 227.578 424.625 226.299 424.625 224.966V166.705C429.94 167.117 435.668 167.343 441.641 167.343C447.615 167.343 453.342 167.117 458.658 166.705V224.966C458.658 226.299 459.187 227.578 460.13 228.521C461.073 229.464 462.352 229.994 463.685 229.994C465.018 229.994 466.297 229.464 467.24 228.521C468.183 227.578 468.713 226.299 468.713 224.966V165.637C482.663 163.712 491.917 160.347 491.917 156.514Z" fill="#CCCCCC"/>
<path d="M447.2 57.3999C459.161 57.3999 468.857 47.7037 468.857 35.7428C468.857 23.7819 459.161 14.0856 447.2 14.0856C435.239 14.0856 425.543 23.7819 425.543 35.7428C425.543 47.7037 435.239 57.3999 447.2 57.3999Z" fill="#0B283F"/>
<path d="M393.305 221.04H383.822L379.311 184.464H393.306L393.305 221.04Z" fill="#FFB8B8"/>
<path d="M377.049 218.33H395.337V229.845H365.534C365.534 228.332 365.832 226.835 366.411 225.438C366.989 224.041 367.837 222.772 368.907 221.703C369.976 220.633 371.245 219.785 372.642 219.207C374.039 218.628 375.537 218.33 377.049 218.33Z" fill="#0B283F"/>
<path d="M378.502 215.748L369.455 212.908L376.1 176.66L389.454 180.85L378.502 215.748Z" fill="#FFB8B8"/>
<path d="M363.804 208.295L381.252 213.771L377.805 224.757L349.37 215.834C349.822 214.391 350.555 213.052 351.525 211.892C352.496 210.732 353.685 209.775 355.025 209.075C356.366 208.375 357.831 207.946 359.337 207.812C360.843 207.678 362.361 207.843 363.804 208.295Z" fill="#0B283F"/>
<path d="M381.587 201.154C381.172 201.154 380.76 201.079 380.371 200.933L373.395 198.317C372.612 198.021 371.962 197.453 371.562 196.717C371.163 195.981 371.041 195.126 371.219 194.308C372.975 186.411 378.961 159.524 382.239 145.104C386.126 127.998 442.834 124.82 445.246 124.693L445.445 124.682L451.824 132.699C454.129 140.108 453.398 145.887 449.652 149.876C438.721 161.514 406.085 154.292 402.193 153.378L384.846 198.913C384.594 199.573 384.147 200.14 383.565 200.54C382.983 200.94 382.294 201.154 381.587 201.154Z" fill="#0B283F"/>
<path d="M391.642 206.568C391.227 206.568 390.815 206.493 390.426 206.347L383.45 203.731C382.667 203.435 382.017 202.867 381.617 202.131C381.218 201.395 381.096 200.54 381.274 199.722C383.03 191.825 389.016 164.939 392.294 150.518C396.181 133.412 452.889 130.234 455.301 130.107L455.5 130.096L461.879 138.113C464.184 145.522 463.453 151.301 459.707 155.29C448.776 166.927 416.14 159.706 412.248 158.792L394.901 204.327C394.649 204.987 394.202 205.554 393.62 205.954C393.038 206.354 392.349 206.568 391.642 206.568Z" fill="#0B283F"/>
<path d="M371.459 95.1735C371.715 95.5163 371.944 95.8788 372.143 96.2575L410.291 100.277L415.782 92.7477L428.228 99.55L417.442 117.82L370.657 105.891C369.477 107.042 367.974 107.806 366.349 108.082C364.724 108.358 363.053 108.133 361.559 107.436C360.065 106.739 358.819 105.604 357.985 104.182C357.152 102.759 356.772 101.117 356.895 99.4731C357.018 97.8292 357.638 96.2617 358.674 94.9791C359.709 93.6964 361.111 92.7594 362.692 92.2927C364.273 91.8259 365.958 91.8515 367.525 92.3661C369.091 92.8807 370.463 93.8599 371.459 95.1735Z" fill="#FFB8B8"/>
<path d="M460.109 141.181C459.557 141.179 459.014 141.046 458.523 140.793C450.895 136.915 436.041 130.197 422.267 128.792C421.796 128.746 421.339 128.601 420.927 128.368C420.515 128.135 420.156 127.818 419.873 127.438C419.585 127.054 419.379 126.615 419.268 126.148C419.157 125.68 419.143 125.195 419.228 124.723C420.471 117.842 423.322 100.322 422.955 86.2804C422.847 81.9629 424.211 77.7371 426.823 74.2977C429.435 70.8583 433.14 68.41 437.328 67.3554C439.849 66.6902 442.41 66.1854 444.995 65.8439C447.966 65.4676 450.984 65.7923 453.808 66.7922C456.631 67.792 459.181 69.4392 461.253 71.6017C463.325 73.7642 464.862 76.3819 465.74 79.2452C466.618 82.1085 466.814 85.1377 466.311 88.0902C463.855 102.642 461.379 122.966 463.531 137.153C463.63 137.789 463.551 138.44 463.302 139.034C463.054 139.627 462.646 140.141 462.124 140.517C461.54 140.946 460.834 141.178 460.109 141.181Z" fill="#57ACF9"/>
<path d="M423.661 104.169C423.186 104.168 422.715 104.07 422.279 103.881L412.342 99.579C411.496 99.2113 410.83 98.5231 410.49 97.6652C410.15 96.8072 410.165 95.8496 410.53 95.0024L418.212 77.2571C418.675 76.1842 419.346 75.2131 420.185 74.3993C421.023 73.5856 422.014 72.9451 423.101 72.5145C424.187 72.0839 425.348 71.8716 426.516 71.8898C427.685 71.908 428.839 72.1563 429.911 72.6206C430.984 73.0848 431.954 73.7558 432.767 74.5953C433.58 75.4348 434.22 76.4263 434.65 77.5131C435.079 78.6 435.291 79.7608 435.271 80.9294C435.252 82.0979 435.003 83.2512 434.538 84.3234L426.856 102.069C426.586 102.692 426.14 103.222 425.572 103.596C425.005 103.969 424.34 104.168 423.661 104.169Z" fill="#57ACF9"/>
<path d="M446.409 59.8071C456.901 59.8071 465.406 51.3018 465.406 40.8099C465.406 30.3181 456.901 21.8127 446.409 21.8127C435.917 21.8127 427.412 30.3181 427.412 40.8099C427.412 51.3018 435.917 59.8071 446.409 59.8071Z" fill="#FFB8B8"/>
<path d="M427.07 31.4765C436.068 36.9695 446.212 40.3121 456.714 41.2441L453.589 37.5001C455.864 38.3413 458.258 38.8167 460.682 38.9086C463.103 38.8709 465.64 37.9387 467.014 35.9449C467.627 34.9538 467.991 33.8291 468.075 32.6668C468.16 31.5046 467.961 30.3392 467.498 29.2701C466.546 27.1376 465.063 25.2844 463.192 23.8866C459.876 21.2632 455.962 19.501 451.8 18.7571C447.637 18.0131 443.355 18.3106 439.335 19.6229C436.578 20.4469 434.108 22.031 432.21 24.1936C430.409 26.4153 426.942 28.3948 427.864 31.102L427.07 31.4765Z" fill="#0B283F"/>
<path d="M449.603 16.1456C443.611 10.0696 436.36 5.3808 428.361 2.4094C423.226 0.507121 417.637 -0.668192 412.269 0.412112C406.901 1.49242 401.824 5.20613 400.326 10.4732C399.102 14.7802 400.366 19.4175 402.267 23.4718C404.167 27.5261 406.704 31.2857 408.241 35.4914C409.81 39.7826 410.281 44.3975 409.613 48.9172C408.946 53.437 407.16 57.7183 404.418 61.3727C401.675 65.0271 398.064 67.9388 393.911 69.8434C389.758 71.7481 385.196 72.5854 380.637 72.2793C385.912 72.9865 390.773 75.4652 395.929 76.7846C401.085 78.104 407.17 78.0145 411.001 74.321C415.055 70.4131 415.136 64.0593 414.94 58.432L414.066 33.3368C413.917 29.0708 413.79 24.6681 415.329 20.6864C416.867 16.7046 420.524 13.218 424.792 13.2542C428.027 13.2817 430.89 15.2414 433.485 17.1741C436.079 19.1068 438.825 21.1689 442.048 21.4564C445.27 21.7439 448.949 19.3592 448.708 16.133" fill="#0B283F"/>
<path d="M361.299 81.1821L405.041 82.2147L411.378 128.976L370.982 129.882L361.299 81.1821Z" fill="#E6E6E6"/>
<path d="M407.812 93.6266C408.068 93.9694 408.297 94.3319 408.496 94.7107L446.644 98.7298L452.135 91.2008L464.581 98.0031L453.796 116.273L407.01 104.345C405.83 105.495 404.327 106.26 402.702 106.535C401.077 106.811 399.406 106.586 397.912 105.889C396.418 105.192 395.172 104.057 394.338 102.635C393.505 101.213 393.125 99.5701 393.248 97.9262C393.371 96.2823 393.991 94.7149 395.027 93.4322C396.062 92.1495 397.464 91.2125 399.045 90.7458C400.626 90.279 402.311 90.3047 403.878 90.8193C405.444 91.3339 406.816 92.3131 407.812 93.6266V93.6266Z" fill="#FFB8B8"/>
<path d="M460.014 104.943C459.539 104.942 459.068 104.844 458.632 104.654L448.695 100.352C447.848 99.9847 447.183 99.2965 446.843 98.4386C446.503 97.5807 446.518 96.623 446.883 95.7758L454.565 78.0306C455.028 76.9577 455.699 75.9865 456.537 75.1728C457.376 74.359 458.367 73.7185 459.454 73.2879C460.54 72.8573 461.701 72.6451 462.869 72.6633C464.038 72.6815 465.191 72.9298 466.264 73.394C467.337 73.8582 468.307 74.5293 469.12 75.3688C469.933 76.2083 470.573 77.1997 471.003 78.2866C471.432 79.3734 471.644 80.5343 471.624 81.7028C471.605 82.8713 471.356 84.0246 470.891 85.0968L463.209 102.842C462.939 103.465 462.493 103.996 461.925 104.369C461.358 104.742 460.693 104.941 460.014 104.943Z" fill="#57ACF9"/>
<path d="M370.095 104.692H62.2547C60.9213 104.692 59.6426 105.222 58.6997 106.164C57.7569 107.107 57.2272 108.386 57.2272 109.719C57.2272 111.053 57.7569 112.332 58.6997 113.274C59.6426 114.217 60.9213 114.747 62.2547 114.747H71.1496V224.193C71.1496 225.526 71.6793 226.805 72.6222 227.748C73.565 228.691 74.8438 229.22 76.1772 229.22C77.5106 229.22 78.7893 228.691 79.7322 227.748C80.675 226.805 81.2047 225.526 81.2047 224.193V124.408L137.568 226.566C138.236 227.718 139.334 228.557 140.621 228.901C141.907 229.244 143.278 229.063 144.431 228.397C145.584 227.731 146.426 226.635 146.772 225.349C147.118 224.063 146.94 222.693 146.276 221.538L87.3566 114.747H356.56V114.812L297.676 221.538C297.01 222.693 296.829 224.065 297.174 225.353C297.519 226.641 298.362 227.739 299.516 228.406C300.671 229.072 302.043 229.253 303.331 228.908C304.619 228.563 305.717 227.72 306.384 226.566L356.56 135.623V224.193C356.56 225.526 357.089 226.805 358.032 227.748C358.975 228.691 360.254 229.22 361.587 229.22C362.921 229.22 364.199 228.691 365.142 227.748C366.085 226.805 366.615 225.526 366.615 224.193V117.398L368.078 114.747H370.095C371.429 114.747 372.708 114.217 373.65 113.274C374.593 112.332 375.123 111.053 375.123 109.719C375.123 108.386 374.593 107.107 373.65 106.164C372.708 105.222 371.429 104.692 370.095 104.692Z" fill="#0B283F"/>
</svg>
