<svg width="191" height="171" viewBox="0 0 191 171" fill="none" xmlns="http://www.w3.org/2000/svg">
<path fill-rule="evenodd" clip-rule="evenodd" d="M103.76 7.47665C139.091 10.4755 176.437 25.1908 184.572 59.7412C192.696 94.247 165.769 124.006 135.549 142.491C105.075 161.132 66.7465 171.196 38.8626 148.87C8.2448 124.355 -2.24117 80.9458 14.1315 45.2744C29.0968 12.6693 68.0502 4.44563 103.76 7.47665Z" fill="#EFF7FF"/>
<path d="M101.987 127.695H91.2752C90.9201 127.695 90.5795 127.554 90.3284 127.302C90.0773 127.051 89.9362 126.711 89.9362 126.356V90.2042C89.9362 89.494 90.2184 88.8129 90.7206 88.3107C91.2228 87.8085 91.9039 87.5264 92.6141 87.5264H100.648C101.358 87.5264 102.039 87.8085 102.541 88.3107C103.044 88.8129 103.326 89.494 103.326 90.2042V126.356C103.326 126.711 103.185 127.051 102.933 127.302C102.682 127.554 102.342 127.695 101.987 127.695ZM92.6141 125.017H100.648V90.2042H92.6141V125.017Z" fill="#0B283F"/>
<path d="M84.5805 127.695H73.8689C73.5138 127.695 73.1733 127.553 72.9222 127.302C72.6711 127.051 72.53 126.711 72.53 126.356V106.272C72.53 105.561 72.8121 104.88 73.3143 104.378C73.8165 103.876 74.4977 103.594 75.2079 103.594H83.2415C83.9517 103.594 84.6329 103.876 85.1351 104.378C85.6373 104.88 85.9194 105.561 85.9194 106.272V126.356C85.9194 126.711 85.7783 127.051 85.5272 127.302C85.2761 127.553 84.9356 127.695 84.5805 127.695ZM75.2079 125.017H83.2415V106.272H75.2079V125.017Z" fill="#0B283F"/>
<path d="M67.1742 127.695H56.4627C56.1076 127.695 55.767 127.554 55.5159 127.302C55.2648 127.051 55.1238 126.711 55.1238 126.356V116.983C55.1238 116.273 55.4059 115.592 55.9081 115.09C56.4103 114.587 57.0914 114.305 57.8017 114.305H65.8353C66.5455 114.305 67.2267 114.587 67.7289 115.09C68.2311 115.592 68.5132 116.273 68.5132 116.983V126.356C68.5132 126.711 68.3721 127.051 68.121 127.302C67.8699 127.554 67.5294 127.695 67.1742 127.695ZM57.8017 125.017H65.8353V116.983H57.8017V125.017Z" fill="#0B283F"/>
<path d="M119.393 127.695H108.681C108.326 127.695 107.986 127.554 107.735 127.302C107.484 127.051 107.342 126.711 107.342 126.356V71.4591C107.342 70.7489 107.625 70.0678 108.127 69.5656C108.629 69.0634 109.31 68.7812 110.02 68.7812H118.054C118.764 68.7812 119.445 69.0634 119.948 69.5656C120.45 70.0678 120.732 70.7489 120.732 71.4591V126.356C120.732 126.711 120.591 127.051 120.34 127.302C120.089 127.554 119.748 127.695 119.393 127.695ZM110.02 125.017H118.054V71.4591H110.02V125.017Z" fill="#0B283F"/>
<path d="M136.799 127.695H126.088C125.733 127.695 125.392 127.554 125.141 127.303C124.89 127.051 124.749 126.711 124.749 126.356V55.3919C124.749 54.6817 125.031 54.0005 125.533 53.4983C126.035 52.9961 126.716 52.714 127.427 52.714H135.46C136.17 52.714 136.852 52.9961 137.354 53.4983C137.856 54.0005 138.138 54.6817 138.138 55.3919V60.7476H135.46V55.3919H127.427V125.017H135.46V68.7813H138.138V126.356C138.138 126.711 137.997 127.051 137.746 127.303C137.495 127.554 137.154 127.695 136.799 127.695Z" fill="#0B283F"/>
<path d="M135.46 63.4254H138.138V66.1046H135.46V63.4254Z" fill="#0B283F"/>
<path d="M93.7871 60.9229C93.6743 60.0787 93.5043 59.243 93.2783 58.4218L95.8598 57.7095C96.1186 58.6488 96.3128 59.6049 96.4409 60.5708L93.7871 60.9229Z" fill="#0B283F"/>
<path d="M75.2079 84.8485C70.9899 84.8485 66.8657 83.6033 63.3525 81.269C59.8393 78.9347 57.0933 75.6153 55.4588 71.7268C53.8244 67.8383 53.3742 63.5539 54.1646 59.4106C54.9551 55.2673 56.9512 51.4496 59.9024 48.436C62.3568 45.9291 65.3893 44.0633 68.7335 43.0026C72.0777 41.9419 75.6312 41.7187 79.0818 42.3527C82.5324 42.9867 85.7745 44.4584 88.5232 46.6386C91.272 48.8187 93.4432 51.6406 94.8461 54.8563L92.3932 55.9274C90.9364 52.5819 88.5338 49.735 85.4806 47.7368C82.4274 45.7386 78.8568 44.6763 75.2079 44.6803H75.0097C71.311 44.7194 67.7065 45.852 64.65 47.9353C61.5936 50.0187 59.2218 52.9598 57.8334 56.3883C56.4449 59.8168 56.1019 63.5794 56.8474 67.2025C57.5929 70.8255 59.3936 74.147 62.0229 76.7488C64.6522 79.3506 67.9925 81.1163 71.6232 81.8237C75.2538 82.531 79.0127 82.1484 82.4264 80.724C85.8401 79.2996 88.756 76.897 90.8072 73.8189C92.8583 70.7407 93.9528 67.1245 93.9531 63.4255H96.6309C96.6135 69.0635 94.3813 74.4689 90.4154 78.4764C86.4495 82.4838 81.0677 84.7724 75.4301 84.8485H75.2079Z" fill="#0B283F"/>
<path d="M73.869 50.036H76.5468V54.0528H73.869V50.036Z" fill="#0B283F"/>
<path d="M77.2163 74.137H69.8522V71.4592H77.2163C78.1041 71.4592 78.9555 71.1065 79.5833 70.4787C80.211 69.851 80.5637 68.9996 80.5637 68.1118C80.5637 67.224 80.211 66.3726 79.5833 65.7449C78.9555 65.1171 78.1041 64.7645 77.2163 64.7645H73.1995C71.6015 64.7645 70.069 64.1297 68.939 62.9997C67.8091 61.8698 67.1743 60.3372 67.1743 58.7392C67.1743 57.1412 67.8091 55.6087 68.939 54.4787C70.069 53.3488 71.6015 52.714 73.1995 52.714H80.5637V55.3919H73.1995C72.3117 55.3919 71.4603 55.7445 70.8326 56.3723C70.2048 57 69.8522 57.8514 69.8522 58.7392C69.8522 59.627 70.2048 60.4784 70.8326 61.1062C71.4603 61.7339 72.3117 62.0866 73.1995 62.0866H77.2163C78.8143 62.0866 80.3469 62.7214 81.4768 63.8513C82.6068 64.9813 83.2416 66.5138 83.2416 68.1118C83.2416 69.7098 82.6068 71.2423 81.4768 72.3723C80.3469 73.5022 78.8143 74.137 77.2163 74.137Z" fill="#0B283F"/>
<path d="M73.869 72.798H76.5468V76.8148H73.869V72.798Z" fill="#0B283F"/>
<path d="M55.1238 125.017H138.138V127.695H55.1238V125.017Z" fill="#0B283F"/>
<path d="M61.4262 107.218L59.5329 105.325L74.2613 90.5966C74.5123 90.3455 74.8528 90.2044 75.2079 90.2043H82.6497L109.027 61.1854C109.153 61.0471 109.306 60.9367 109.477 60.8613C109.648 60.7859 109.833 60.7472 110.02 60.7476H113.421L129.088 42.4697L131.121 44.2103L115.053 62.9555C114.928 63.1026 114.772 63.2207 114.597 63.3018C114.421 63.383 114.23 63.4251 114.037 63.4255H110.612L84.2324 92.4444C84.1068 92.5823 83.9538 92.6926 83.7832 92.768C83.6126 92.8433 83.4281 92.8823 83.2416 92.8822H75.7622L61.4262 107.218Z" fill="#0B283F"/>
<path d="M54.1695 110.674L56.847 107.996L58.7405 109.89L56.063 112.567L54.1695 110.674Z" fill="#0B283F"/>
<path d="M131.443 50.0361H128.766V44.6803H123.41V42.0024H130.104C130.46 42.0024 130.8 42.1435 131.051 42.3946C131.302 42.6457 131.443 42.9863 131.443 43.3414V50.0361Z" fill="#0B283F"/>
</svg>
