<svg width="701" height="504" viewBox="0 0 701 504" fill="none" xmlns="http://www.w3.org/2000/svg">
<g clip-path="url(#clip0_471_593)">
<path opacity="0.1" d="M236.378 503.717C271.003 503.717 299.073 499.205 299.073 493.64C299.073 488.075 271.003 483.563 236.378 483.563C201.753 483.563 173.684 488.075 173.684 493.64C173.684 499.205 201.753 503.717 236.378 503.717Z" fill="#57ACF9"/>
<path opacity="0.1" d="M577.176 504C620.383 504 655.409 499.488 655.409 493.923C655.409 488.358 620.383 483.846 577.176 483.846C533.969 483.846 498.943 488.358 498.943 493.923C498.943 499.488 533.969 504 577.176 504Z" fill="#57ACF9"/>
<path opacity="0.1" d="M8.90489 217.764H74.2051V306.834H13.6855C13.5246 307.748 13.3702 308.669 13.2029 309.59H74.2051V381.422C74.0958 381.39 73.9992 381.351 73.8963 381.313C72.1719 380.63 70.4605 379.909 68.749 379.136L67.6552 378.641C65.9394 377.829 64.2236 376.971 62.5078 376.065C61.9095 375.749 61.3111 375.421 60.7191 375.086C51.1939 369.747 42.5407 362.98 35.0597 355.023C34.841 354.81 34.6351 354.585 34.4163 354.379C33.374 353.245 32.351 352.099 31.3601 350.927L30.2663 349.64C29.0953 348.204 27.9629 346.729 26.8626 345.235C26.7018 345.016 26.5473 344.798 26.3801 344.592C21.9054 338.383 18.19 331.66 15.3133 324.566C15.2232 324.354 15.146 324.122 15.0624 323.923C14.1788 321.648 13.3959 319.351 12.7139 317.033C12.4179 316.061 12.1348 315.101 11.8903 314.09C11.8003 313.794 11.7231 313.504 11.6523 313.215C7.99768 298.94 7.56659 284.111 7.56659 269.385C7.56659 267.666 7.56659 265.94 7.56659 264.234C7.56659 258.278 7.63737 252.283 7.74031 246.295C7.74031 244.743 7.80465 243.198 7.83682 241.64C7.9269 237.686 8.05559 233.733 8.22287 229.779C8.26148 228.678 8.31295 227.584 8.37086 226.489C8.37086 225.858 8.40303 225.227 8.46737 224.596C8.62179 222.304 8.75048 220.031 8.90489 217.764Z" fill="#57ACF9"/>
<path opacity="0.1" d="M74.2052 118.592H38.3862C44.2088 109.472 50.5706 100.708 57.4378 92.3468C62.7588 85.8049 68.3758 79.4303 74.2052 73.2876V118.592Z" fill="#57ACF9"/>
<path opacity="0.1" d="M74.2052 121.348V215.009H9.11084C9.11084 214.738 9.15588 214.461 9.17518 214.191C9.23309 213.45 9.29099 212.71 9.35534 211.976C9.42611 211.113 9.50332 210.244 9.58697 209.4C9.67061 208.557 9.76069 207.527 9.8572 206.593C9.95371 205.659 10.0438 204.713 10.1532 203.779C10.2626 202.846 10.3591 201.912 10.4749 200.985C10.5907 200.057 10.6936 199.117 10.8159 198.19C10.9124 197.418 11.0153 196.651 11.1183 195.879C11.2663 194.79 11.4207 193.696 11.588 192.614C11.588 192.453 11.633 192.286 11.6588 192.131C12.8331 184.212 14.4333 176.363 16.4522 168.616C18.5656 160.49 21.2643 152.528 24.5271 144.792C27.9949 136.7 32.0551 128.874 36.6748 121.38L74.2052 121.348Z" fill="#57ACF9"/>
<path opacity="0.1" d="M89.795 217.758V306.834H229.268V217.758H89.795ZM89.795 309.583V386.078C90.5929 386.245 91.3843 386.406 92.1692 386.541C93.2373 386.747 94.299 386.934 95.3863 387.095C95.5922 387.127 95.8045 387.16 96.0297 387.179C96.4544 387.25 96.8919 387.308 97.3166 387.366C98.3911 387.514 99.4591 387.636 100.534 387.733C101.042 387.784 101.557 387.829 102.071 387.868L103.313 387.964C103.989 388.016 104.658 388.055 105.321 388.074C105.732 388.074 106.144 388.112 106.569 388.125C106.891 388.125 107.212 388.125 107.547 388.125C107.881 388.125 108.358 388.125 108.763 388.125C109.316 388.125 109.87 388.125 110.417 388.125H111.156C111.71 388.125 112.263 388.125 112.81 388.074H112.849C113.228 388.074 113.614 388.074 114 388.022C114.107 388.029 114.215 388.029 114.322 388.022C114.644 388.022 114.965 388.022 115.274 387.977H115.499L117.655 387.81C118.363 387.745 119.077 387.662 119.798 387.585L121.265 387.411C127.233 386.574 133.135 385.317 138.926 383.65C151.936 380.019 164.663 374.938 177.666 371.217C194.479 366.42 213.054 364.063 229.3 369.929V309.583H89.795ZM229.268 118.592V0.00662386C213.998 -0.158936 198.77 1.62838 183.953 5.32517C148.635 14.2044 116.947 33.4633 89.795 58.0599V118.586H96.7954V121.335H89.795V215.009H229.268V121.342H125.537V118.592H229.268ZM408.414 78.5357C399.677 78.2266 390.991 75.4579 383.135 71.1824C368.111 63.005 356.111 50.3783 342.702 39.7219C314.843 17.5269 280.291 4.13397 244.845 0.811489V118.592H443.95L444.446 118.071L408.414 78.5357ZM426.552 75.3162L445.784 96.4359V69.7788C439.344 70.5772 433.701 72.4767 426.578 75.2905L426.552 75.3162ZM445.784 405.073V309.583H404.805C404.696 309.178 404.586 308.766 404.457 308.354C404.58 308.766 404.683 309.178 404.799 309.583H244.871V378.641C246.39 379.768 247.889 380.952 249.375 382.156C250.977 383.444 252.56 384.803 254.149 386.136L255.751 387.462C256.517 388.106 257.289 388.75 258.068 389.355C259.612 390.609 261.171 391.845 262.745 393.064C263.524 393.708 264.322 394.287 265.113 394.893C277.677 404.506 290.931 413.181 304.767 420.848C307.868 422.565 310.997 424.241 314.154 425.877C316.258 426.952 318.375 428.021 320.498 429.058C323.69 430.616 326.907 432.118 330.149 433.565C360.047 446.995 391.661 456.211 424.088 460.95C431.29 462.014 438.52 462.851 445.778 463.461V405.066H446.421L445.784 405.073ZM244.871 121.342V215.009H445.81V121.342H244.871ZM244.871 217.758V306.834H445.81V217.758H244.871ZM461.406 69.6629V99.3978L485.953 72.4445C477.82 71.1309 469.638 70.193 461.406 69.6307V69.6629ZM461.406 217.79V306.834H656.844V217.758L461.406 217.79ZM656.13 412.143L656.818 309.583H461.406V464.484C473.995 465.014 486.602 464.863 499.175 464.034H499.393C505.399 463.656 511.376 463.107 517.326 462.385H517.461C549.201 458.689 580.237 450.401 609.598 437.782L656.13 412.143ZM694.529 232.426C693.795 230.694 693.029 228.975 692.251 227.275C690.797 224.055 689.259 220.926 687.676 217.797H672.427V306.834H710.981C710.961 281.619 704.585 255.864 694.548 232.394L694.529 232.426ZM672.427 309.616V397.829C683.288 387.411 692.463 375.492 699.071 361.867C707.017 345.461 710.653 327.696 710.949 309.603L672.427 309.616ZM672.427 191.835V215.015H686.248C682.067 207.035 677.46 199.287 672.447 191.803L672.427 191.835ZM539.884 87.1381C538.867 86.7518 537.85 86.359 536.827 85.9791C526.038 81.9916 515.012 78.6757 503.814 76.0503L466.251 117.304L465.531 118.071L466.013 118.599H599.702C581.083 105.773 561.01 95.2012 539.903 87.1059L539.884 87.1381ZM603.62 121.374H464.147L461.406 123.885V215.009H485.431H485.47H656.87V170.87C641.365 152.104 623.469 135.453 603.64 121.342L603.62 121.374Z" fill="#57ACF9"/>
<path opacity="0.1" d="M74.2052 168.59V215.008H9.11084C9.11084 214.738 9.15588 214.461 9.17518 214.191C9.23309 213.45 9.29099 212.71 9.35534 211.976C9.42611 211.113 9.50332 210.244 9.58697 209.4C9.67061 208.557 9.76069 207.526 9.8572 206.593C9.95371 205.659 10.0438 204.713 10.1532 203.779C10.2626 202.845 10.3591 201.912 10.4749 200.985C10.5907 200.057 10.6936 199.117 10.8159 198.19C10.9124 197.417 11.0153 196.651 11.1183 195.878C11.2663 194.79 11.4207 193.696 11.588 192.614C11.588 192.453 11.633 192.286 11.6588 192.131C12.8331 184.212 14.4333 176.362 16.4522 168.616L74.2052 168.59Z" fill="#57ACF9"/>
<path opacity="0.1" d="M8.90489 217.764H74.2051V306.834H13.6855C13.5246 307.748 13.3702 308.669 13.2029 309.59H74.2051V381.422C74.0958 381.39 73.9992 381.351 73.8963 381.313C72.1719 380.63 70.4605 379.909 68.749 379.136L67.6552 378.641C65.9394 377.829 64.2236 376.971 62.5078 376.065C61.9095 375.749 61.3111 375.421 60.7191 375.086C51.1939 369.747 42.5407 362.98 35.0597 355.023C34.841 354.81 34.6351 354.585 34.4163 354.379C33.374 353.245 32.351 352.099 31.3601 350.927L30.2663 349.64C29.0953 348.204 27.9629 346.729 26.8626 345.235C26.7018 345.016 26.5473 344.798 26.3801 344.592C21.9054 338.383 18.19 331.66 15.3133 324.566C15.2232 324.354 15.146 324.122 15.0624 323.923C14.1788 321.648 13.3959 319.351 12.7139 317.033C12.4179 316.061 12.1348 315.101 11.8903 314.09C11.8003 313.794 11.7231 313.504 11.6523 313.215C7.99768 298.94 7.56659 284.111 7.56659 269.385C7.56659 267.666 7.56659 265.94 7.56659 264.234C7.56659 258.278 7.63737 252.283 7.74031 246.295C7.74031 244.743 7.80465 243.198 7.83682 241.64C7.9269 237.686 8.05559 233.733 8.22287 229.779C8.26148 228.678 8.31295 227.584 8.37086 226.489C8.37086 225.858 8.40303 225.227 8.46737 224.596C8.62179 222.304 8.75048 220.031 8.90489 217.764Z" fill="#57ACF9"/>
<path opacity="0.1" d="M138.894 134.754V215.009H89.795V134.754H96.7954V107.582H125.53V134.754H138.894Z" fill="#57ACF9"/>
<path opacity="0.1" d="M138.894 217.758H89.8015V306.827H138.894V217.758Z" fill="#57ACF9"/>
<path opacity="0.1" d="M89.795 309.59H138.894V383.637C133.102 385.303 127.2 386.557 121.232 387.391L119.765 387.571C119.045 387.655 118.331 387.726 117.623 387.797C116.915 387.868 116.182 387.919 115.467 387.964H115.242C114.933 387.964 114.599 388.003 114.296 388.009H113.968C113.582 388.009 113.196 388.048 112.81 388.061C112.263 388.093 111.716 388.099 111.156 388.106C110.918 388.106 110.693 388.106 110.455 388.106C109.902 388.106 109.355 388.106 108.802 388.106H107.585C107.257 388.106 106.942 388.106 106.601 388.106L105.359 388.061C104.716 388.061 104.021 387.99 103.352 387.945L102.116 387.855L100.579 387.713C99.4978 387.616 98.4232 387.494 97.3616 387.346L96.0748 387.166L95.4314 387.076C94.3569 386.908 93.2952 386.728 92.2143 386.522C91.4229 386.387 90.6379 386.219 89.8401 386.058L89.795 309.59Z" fill="#57ACF9"/>
<path opacity="0.1" d="M445.81 125.275H405.326V215.002H445.81V125.275Z" fill="#57ACF9"/>
<path opacity="0.1" d="M445.816 217.758V306.834H244.871V268.413H351.903V291.078H405.326V217.758H445.816Z" fill="#57ACF9"/>
<path opacity="0.1" d="M446.453 405.092H445.81V463.525C438.561 462.911 431.333 462.076 424.127 461.02C391.683 456.267 360.056 447.031 330.149 433.578C321.515 429.689 313.056 425.443 304.773 420.841C290.937 413.171 277.682 404.496 265.113 394.886C261.956 392.465 258.84 389.988 255.764 387.456C253.634 385.698 251.518 383.895 249.375 382.144C247.889 380.94 246.39 379.755 244.871 378.622V309.59H404.792C404.683 309.178 404.573 308.766 404.457 308.36C404.58 308.766 404.695 309.178 404.805 309.59H445.81V405.053C446.028 405.06 446.241 405.079 446.453 405.092Z" fill="#57ACF9"/>
<path opacity="0.1" d="M551.394 118.592H525.014V110.389H536.84V85.9531C537.865 86.3266 538.886 86.7108 539.903 87.1057V110.389H551.394V118.592Z" fill="#57ACF9"/>
<path opacity="0.1" d="M614.951 215.009H485.444C485.444 215.009 485.444 215.009 485.489 215.041L485.431 215.009H461.406V125.282H468.213V191.603H499.323V152.326H525.021V121.348H551.401V152.352H577.099V191.629H614.951V215.009Z" fill="#57ACF9"/>
<path opacity="0.1" d="M461.406 217.758V306.834H614.951V217.758H461.406ZM656.631 411.685L656.844 341.179H614.951V309.628H461.406V464.484C473.995 465.014 486.602 464.863 499.175 464.034H499.393C505.399 463.656 511.376 463.106 517.325 462.385H517.46C549.201 458.688 580.236 450.401 609.598 437.782" fill="#57ACF9"/>
<path opacity="0.1" d="M675.155 309.59H710.974C710.659 327.677 707.03 345.441 699.09 361.848C692.483 375.479 683.301 387.397 672.453 397.809V341.147H675.155V309.59Z" fill="#57ACF9"/>
<path opacity="0.1" d="M710.994 306.834H675.155V232.394H694.548C704.585 255.863 710.961 281.619 710.994 306.834Z" fill="#57ACF9"/>
<path opacity="0.1" d="M445.816 150.22H424.127V178.352H445.816V150.22Z" fill="#57ACF9"/>
<path opacity="0.1" d="M445.816 208.531H424.127V215.008H445.816V208.531Z" fill="#57ACF9"/>
<path opacity="0.1" d="M445.816 217.758H424.127V236.656H445.816V217.758Z" fill="#57ACF9"/>
<path opacity="0.1" d="M445.816 266.842H424.127V294.973H445.816V266.842Z" fill="#57ACF9"/>
<path opacity="0.1" d="M445.816 325.153H424.127V353.284H445.816V325.153Z" fill="#57ACF9"/>
<path opacity="0.1" d="M445.81 405.053C446.029 405.053 446.241 405.053 446.453 405.092H445.81V411.627H424.127V383.463H445.81V405.053Z" fill="#57ACF9"/>
<path opacity="0.1" d="M445.81 441.761V463.493C438.561 462.879 431.333 462.044 424.127 460.988V441.761H445.81Z" fill="#57ACF9"/>
<path opacity="0.1" d="M337.825 304.767H244.871V306.834H337.825V304.767Z" fill="#57ACF9"/>
<path opacity="0.1" d="M337.825 309.583H244.871V317.503H337.825V309.583Z" fill="#57ACF9"/>
<path opacity="0.1" d="M337.825 343.465H244.871V356.201H337.825V343.465Z" fill="#57ACF9"/>
<path opacity="0.1" d="M337.819 382.163V394.899H265.113C261.956 392.487 258.838 390.01 255.758 387.468C253.628 385.711 251.518 383.908 249.369 382.163H337.819Z" fill="#57ACF9"/>
<path opacity="0.1" d="M337.819 420.854V433.578H330.143C321.517 429.684 313.06 425.437 304.773 420.835L337.819 420.854Z" fill="#57ACF9"/>
<path opacity="0.1" d="M517.48 226.392H499.181V244.705H517.48V226.392Z" fill="#57ACF9"/>
<path opacity="0.1" d="M121.277 141.07H102.979V159.383H121.277V141.07Z" fill="#57ACF9"/>
<path opacity="0.1" d="M121.277 183.606H102.979V201.918H121.277V183.606Z" fill="#57ACF9"/>
<path opacity="0.1" d="M121.277 226.141H102.979V244.454H121.277V226.141Z" fill="#57ACF9"/>
<path opacity="0.1" d="M121.277 268.67H102.979V286.983H121.277V268.67Z" fill="#57ACF9"/>
<path opacity="0.1" d="M121.277 311.206H102.979V329.518H121.277V311.206Z" fill="#57ACF9"/>
<path opacity="0.1" d="M121.277 353.741H102.979V372.054H121.277V353.741Z" fill="#57ACF9"/>
<path opacity="0.1" d="M587.336 226.392H569.037V244.705H587.336V226.392Z" fill="#57ACF9"/>
<path opacity="0.1" d="M517.48 271.562H499.181V289.874H517.48V271.562Z" fill="#57ACF9"/>
<path opacity="0.1" d="M587.336 271.562H569.037V289.874H587.336V271.562Z" fill="#57ACF9"/>
<path opacity="0.1" d="M517.48 316.724H499.181V335.036H517.48V316.724Z" fill="#57ACF9"/>
<path opacity="0.1" d="M587.336 316.724H569.037V335.036H587.336V316.724Z" fill="#57ACF9"/>
<path opacity="0.1" d="M517.48 361.893H499.181V380.205H517.48V361.893Z" fill="#57ACF9"/>
<path opacity="0.1" d="M587.336 361.893H569.037V380.205H587.336V361.893Z" fill="#57ACF9"/>
<path opacity="0.1" d="M517.48 407.062H499.181V425.374H517.48V407.062Z" fill="#57ACF9"/>
<path opacity="0.1" d="M587.336 407.062H569.037V425.374H587.336V407.062Z" fill="#57ACF9"/>
<path opacity="0.1" d="M499.181 464.034V452.225H517.473V462.353L499.181 464.034Z" fill="#57ACF9"/>
<path opacity="0.1" d="M11.5815 192.118V202.594H74.2051V192.118H11.5815ZM17.8226 201.937H12.7139V192.762H17.8612L17.8226 201.937ZM24.0573 201.937H18.91V192.762H24.0573V201.937ZM30.2791 201.937H25.1318V192.762H30.2791V201.937ZM36.5138 201.937H31.3729V192.762H36.5203L36.5138 201.937ZM42.7421 201.937H37.5948V192.762H42.7421V201.937ZM48.9768 201.937H43.8295V192.762H48.9768V201.937ZM55.2115 201.937H50.0642V192.762H55.2115V201.937ZM61.4398 201.937H56.2924V192.762H61.4398V201.937ZM67.668 201.937H62.5207V192.762H67.668V201.937ZM73.8963 201.937H68.749V192.762H73.8963V201.937Z" fill="#57ACF9"/>
<path opacity="0.1" d="M11.5815 222.6V233.076H74.2051V222.6H11.5815ZM17.8226 232.413H12.7139V223.263H17.8612L17.8226 232.413ZM24.0573 232.413H18.91V223.263H24.0573V232.413ZM30.2791 232.413H25.1318V223.263H30.2791V232.413ZM36.5138 232.413H31.3729V223.263H36.5203L36.5138 232.413ZM42.7421 232.413H37.5948V223.263H42.7421V232.413ZM48.9768 232.413H43.8295V223.263H48.9768V232.413ZM55.2115 232.413H50.0642V223.263H55.2115V232.413ZM61.4398 232.413H56.2924V223.263H61.4398V232.413ZM67.668 232.413H62.5207V223.263H67.668V232.413ZM73.8963 232.413H68.749V223.263H73.8963V232.413Z" fill="#57ACF9"/>
<path opacity="0.1" d="M11.5815 253.094V263.59H74.2051V253.094H11.5815ZM17.8226 262.907H12.7139V253.751H17.8612L17.8226 262.907ZM24.0573 262.907H18.91V253.751H24.0573V262.907ZM30.2791 262.907H25.1318V253.751H30.2791V262.907ZM36.5138 262.907H31.3729V253.751H36.5203L36.5138 262.907ZM42.7421 262.907H37.5948V253.751H42.7421V262.907ZM48.9768 262.907H43.8295V253.751H48.9768V262.907ZM55.2115 262.907H50.0642V253.751H55.2115V262.907ZM61.4398 262.907H56.2924V253.751H61.4398V262.907ZM67.668 262.907H62.5207V253.751H67.668V262.907ZM73.8963 262.907H68.749V253.751H73.8963V262.907Z" fill="#57ACF9"/>
<path opacity="0.1" d="M11.5815 283.589V294.053H74.2051V283.589H11.5815ZM17.8226 293.402H12.7139V284.24H17.8612L17.8226 293.402ZM24.0573 293.402H18.91V284.24H24.0573V293.402ZM30.2791 293.402H25.1318V284.24H30.2791V293.402ZM36.5138 293.402H31.3729V284.24H36.5203L36.5138 293.402ZM42.7421 293.402H37.5948V284.24H42.7421V293.402ZM48.9768 293.402H43.8295V284.24H48.9768V293.402ZM55.2115 293.402H50.0642V284.24H55.2115V293.402ZM61.4398 293.402H56.2924V284.24H61.4398V293.402ZM67.668 293.402H62.5207V284.24H67.668V293.402ZM73.8963 293.402H68.749V284.24H73.8963V293.402Z" fill="#57ACF9"/>
<path opacity="0.1" d="M11.8517 314.078C12.1027 315.063 12.3858 316.048 12.6817 317.02V314.734H17.8291V323.891H15.0753C15.1589 324.103 15.2425 324.335 15.3262 324.535H74.2052V314.078H11.8517ZM24.0766 323.891H18.9293V314.734H24.0766V323.891ZM30.2985 323.891H25.1511V314.734H30.2985V323.891ZM36.5332 323.891H31.373V314.734H36.5203L36.5332 323.891ZM42.7614 323.891H37.6141V314.734H42.7614V323.891ZM48.9961 323.891H43.8488V314.734H48.9961V323.891ZM55.2308 323.891H50.0835V314.734H55.2308V323.891ZM61.4591 323.891H56.3118V314.734H61.4591V323.891ZM67.6874 323.891H62.54V314.734H67.6874V323.891ZM73.9156 323.891H68.7683V314.734H73.9156V323.891Z" fill="#57ACF9"/>
<path opacity="0.1" d="M26.3929 344.572C26.5537 344.778 26.7082 345.01 26.8754 345.216H30.2791V349.614C30.6459 350.052 31.0062 350.49 31.3794 350.902V345.19H36.5267V354.379H34.442C34.6479 354.591 34.8474 354.817 35.0854 355.023H74.2244V344.572H26.3929ZM42.7421 354.379H37.5947V345.229H42.7421V354.379ZM48.9768 354.379H43.8294V345.229H48.9768V354.379ZM55.2115 354.379H50.0641V345.229H55.2115V354.379ZM61.4397 354.379H56.2924V345.229H61.4397V354.379ZM67.668 354.379H62.5207V345.229H67.668V354.379ZM73.8963 354.379H68.7489V345.229H73.8963V354.379Z" fill="#57ACF9"/>
<path opacity="0.1" d="M60.7449 375.061C61.3304 375.395 61.9288 375.704 62.5336 376.039V375.717H67.6809V378.615L68.7747 379.124V375.717H73.9221V381.287C74.0208 381.336 74.1242 381.375 74.2309 381.403V375.061H60.7449Z" fill="#57ACF9"/>
<path opacity="0.1" d="M485.444 215.008H485.483H485.444ZM445.81 405.047H446.453H445.81ZM404.457 308.353C404.58 308.766 404.683 309.178 404.798 309.583C404.696 309.178 404.586 308.766 404.457 308.353ZM485.444 214.989H485.483H485.444ZM96.8212 118.573V121.322H125.563V118.573H96.8212ZM445.81 405.047H446.453H445.81ZM404.457 308.353C404.58 308.766 404.683 309.178 404.798 309.583C404.696 309.178 404.586 308.766 404.457 308.353ZM485.444 214.989H485.483H485.444ZM445.81 405.027H446.453H445.81ZM404.457 308.353C404.58 308.766 404.683 309.178 404.798 309.583C404.696 309.178 404.586 308.766 404.457 308.353Z" fill="#57ACF9"/>
<path d="M297.001 244.466C297.001 244.466 294.466 244.112 294.466 240.416C294.466 236.72 292.651 229.818 292.651 229.818C292.651 229.786 291.081 217.796 288.913 215.89C286.745 213.985 283.959 202.794 283.959 202.794C283.959 202.794 283.483 196.722 282.511 195.415C281.539 194.108 280.227 190.907 278.29 186.342C276.353 181.777 268.279 178.616 268.279 178.616C268.279 178.616 253.68 170.142 249.542 167.38C249.166 167.153 248.815 166.887 248.494 166.588C247.773 165.641 244.633 165.622 244.633 165.622C244.305 163.548 243.99 161.166 243.887 159.009C243.887 158.777 243.887 158.545 243.855 158.314C248.468 155.585 251.943 151.282 253.641 146.196C253.718 145.951 253.782 145.693 253.853 145.449C254.13 145.358 254.384 145.21 254.6 145.015C254.816 144.819 254.989 144.581 255.108 144.315C255.481 143.485 255.488 142.512 255.951 141.74C256.491 140.825 257.521 140.336 258.331 139.647C260.377 137.909 260.905 134.979 260.809 132.313C260.744 130.156 260.397 127.98 260.532 125.836L260.57 125.295C260.609 124.973 260.654 124.651 260.712 124.342C261.027 122.745 261.716 121.238 262.102 119.654C262.488 118.07 262.526 116.287 261.626 114.922C260.307 112.919 257.559 112.52 255.147 112.314C252.412 112.082 249.967 112.385 248.217 110.112C247.398 108.924 246.476 107.81 245.463 106.783C245.103 106.448 241.603 104.31 241.603 104.169C238.186 102.585 234.314 102.288 230.697 103.332C228.882 103.86 227.171 104.722 225.331 105.154C221.361 106.094 216.792 105.077 213.421 107.35C211.542 108.637 210.416 110.685 209.361 112.681C208.503 114.325 207.632 115.967 206.749 117.607C205.327 120.305 203.879 123.048 203.281 126.035C203.155 126.685 203.078 127.344 203.049 128.006V128.038C203.049 128.276 203.049 128.514 203.049 128.753V129.055C203.049 129.28 203.049 129.499 203.088 129.699C203.126 129.899 203.12 129.963 203.139 130.098C203.159 130.233 203.191 130.536 203.229 130.742C203.268 130.948 203.345 131.309 203.422 131.592C203.454 131.714 203.5 131.83 203.538 131.946C203.602 132.165 203.68 132.378 203.763 132.59C203.808 132.7 203.853 132.815 203.905 132.925C204.001 133.15 204.117 133.369 204.233 133.569C204.284 133.659 204.323 133.743 204.375 133.826C204.554 134.126 204.752 134.414 204.966 134.689C206.343 136.408 208.37 137.503 209.869 139.113C209.869 139.177 209.869 139.242 209.869 139.299C209.869 139.48 209.869 139.654 209.869 139.834C209.949 143.424 210.904 146.94 212.651 150.077C214.398 153.213 216.884 155.875 219.894 157.831C219.894 158.075 219.926 158.326 219.939 158.571C220.064 160.482 220.041 162.401 219.868 164.308C219.606 163.999 219.278 163.753 218.908 163.589C218.539 163.424 218.137 163.344 217.732 163.355C217.455 163.342 217.178 163.366 216.908 163.426L216.85 163.381V163.439C215.435 163.787 213.691 165.261 212.025 169.453C212.025 169.453 206.955 175.171 203.094 174.932C199.234 174.694 189.46 180.882 189.46 180.882C189.46 180.882 179.925 187.076 177.879 193.386C176.735 196.965 175.364 200.466 173.774 203.869L161.986 228.176L159.812 247.46C159.812 247.46 161.015 256.037 160.777 257.344C160.539 258.651 165.725 270.441 165.725 270.441C165.725 270.441 182.859 300.569 189.859 302.114L190.361 301.76C190.66 301.916 190.978 302.035 191.307 302.114L192.748 301.097C192.835 302.231 192.798 303.37 192.639 304.496C191.674 307.471 192.999 326.885 194.685 330.69C196.37 334.495 195.772 384.391 195.772 384.391L195.534 388.795C195.534 388.795 195.534 388.936 195.592 389.181L195.534 390.224L195.708 390.314C195.888 391.711 195.829 393.129 195.534 394.506C194.929 396.438 194.685 401.898 194.685 401.898C194.685 401.898 189.866 432.728 192.15 438.922C194.434 445.116 196.377 451.903 196.377 451.903C196.377 451.903 198.79 459.629 196.493 460.949C194.196 462.269 187.665 464.484 189.01 467.704C190.232 470.679 194.871 478.65 195.56 479.815L195.502 480.427L194.556 490.684C194.709 492.039 195.076 493.36 195.643 494.599C196.679 496.833 198.693 499.151 202.522 498.9C203.165 498.855 203.911 498.778 204.632 498.681C211.639 497.741 220.267 494.612 220.267 494.612C219.819 494.327 219.408 493.988 219.044 493.601C218.7 493.267 218.427 492.867 218.242 492.424C218.058 491.981 217.965 491.505 217.97 491.025C218.073 489.158 214.579 480.26 213.711 478.07C213.575 477.755 213.505 477.575 213.505 477.575C213.505 477.575 221.47 469.243 220.145 461.857C220.145 461.857 211.33 456.706 214.232 453.879C217.134 451.053 222.319 442.933 222.319 442.933C222.319 442.933 222.557 412.574 222.319 408.041C222.071 404.894 222.22 401.729 222.763 398.621C222.86 398.151 222.976 397.693 223.098 397.243C227.111 397.842 231.162 398.15 235.22 398.163C236.7 398.163 238.205 398.163 239.724 398.073C239.724 398.502 239.743 398.966 239.782 399.464C240.116 406.985 240.74 420.172 241.249 425.072C241.969 432.096 245.952 451.027 245.952 451.027C245.952 451.027 238.353 455.908 247.278 467.936C247.278 467.936 247.278 472.295 246.686 472.926C246.054 474.988 245.544 477.087 245.161 479.21C244.787 481.477 244.633 483.769 245.238 484.96C246.686 487.806 255.372 487.574 255.372 487.574L255.584 487.536C257.224 487.366 258.881 487.524 260.459 488C262.038 488.477 263.506 489.262 264.778 490.311C268.079 492.964 280.606 491.798 287.388 490.955C290.045 490.62 291.821 490.311 291.821 490.311C291.907 490.01 291.938 489.696 291.911 489.384C291.84 487.716 290.534 484.059 281.681 480.794C281.681 480.794 273.355 475.192 273.471 470.311H273.297H272.332C273.033 470.273 273.484 470.311 273.484 470.311C273.484 470.311 270.222 458.399 271.554 457.434C272.885 456.468 268.896 443.268 268.896 443.268C268.896 443.268 266.612 421.118 266.49 419.566C266.495 418.235 266.697 416.911 267.088 415.639L266.49 403.495C266.49 403.495 266.374 399.458 266.49 398.144C266.47 397.004 266.378 395.866 266.213 394.738C266.155 394.287 266.097 393.817 266.033 393.354C269.154 392.562 271.18 391.827 271.18 391.827L270.82 349.556C273.471 344.405 273.96 333.105 273.947 325.088C273.947 319.937 273.715 316.125 273.715 316.125L277.338 310.208C277.338 310.208 278.174 303.125 276.849 301.573C276.263 300.871 276.527 300.144 277.01 299.545C277.26 299.346 277.525 299.165 277.801 299.004C277.801 299.004 277.763 298.946 277.718 298.862C277.97 298.651 278.239 298.459 278.522 298.289C278.522 298.289 277.235 296.293 278.387 295.45C279.468 296.184 280.433 296.737 281.166 297.188C281.115 297.658 281.063 297.929 281.063 297.929L281.372 297.285C282.08 297.684 282.511 297.929 282.511 297.929C282.511 297.929 288.186 286.616 288.064 284.948C287.941 283.28 291.924 276.255 291.924 276.255C291.924 276.255 292.407 272.566 294.581 271.02C296.756 269.475 296.267 258.278 296.267 258.278C296.267 258.278 296.872 252.444 298.32 250.062C299.767 247.679 297.001 244.466 297.001 244.466ZM188.418 239.502L188.527 242.2C187.884 241.163 187.421 240.416 187.421 240.416L188.418 239.502Z" fill="url(#paint0_linear_471_593)"/>
<path d="M282.82 293.042L281.43 298.965C281.43 298.965 270.299 293.28 268.291 286.055C266.284 278.831 271.65 276.088 271.65 276.088L282.022 280.486L282.82 293.042Z" fill="white"/>
<path opacity="0.1" d="M282.82 293.042L281.43 298.965C281.43 298.965 270.299 293.28 268.291 286.055C266.284 278.831 271.65 276.088 271.65 276.088L282.022 280.486L282.82 293.042Z" fill="black"/>
<path d="M220.351 494.651C220.351 494.651 210.056 498.437 202.978 498.913C199.221 499.165 197.245 496.859 196.229 494.638C195.674 493.403 195.315 492.089 195.167 490.742L196.087 480.537L196.576 475.102L211.613 471.194L213.743 477.71L213.942 478.206C214.798 480.382 218.227 489.236 218.124 491.084C218.12 491.557 218.211 492.026 218.393 492.463C218.574 492.9 218.842 493.296 219.18 493.627C219.525 494.017 219.918 494.361 220.351 494.651Z" fill="white"/>
<path d="M290.669 489.461C290.695 489.771 290.665 490.083 290.579 490.382C290.579 490.382 268.562 494.058 264.058 490.382C262.788 489.308 261.308 488.511 259.712 488.043C258.117 487.575 256.441 487.446 254.793 487.664C254.793 487.664 246.274 487.896 244.852 485.089C244.26 483.911 244.414 481.625 244.781 479.371C245.155 477.259 245.654 475.172 246.274 473.119L246.615 472.848L248.642 471.219L272.371 470.518H272.551C272.435 475.373 280.606 480.942 280.606 480.942C289.286 484.162 290.566 487.8 290.669 489.461Z" fill="white"/>
<path opacity="0.1" d="M290.67 489.461C290.692 489.771 290.659 490.083 290.573 490.382C290.573 490.382 268.562 494.058 264.058 490.382C262.789 489.308 261.31 488.512 259.715 488.044C258.121 487.576 256.446 487.447 254.799 487.664C254.799 487.664 246.274 487.896 244.858 485.089C244.266 483.904 244.414 481.625 244.781 479.371C248.062 479.699 253.242 480.517 255.275 482.468C258.351 485.437 263.562 488.398 266.76 488.63C269.263 488.791 284.235 489.268 290.67 489.461Z" fill="black"/>
<path opacity="0.1" d="M220.351 494.651C220.351 494.651 210.056 498.437 202.978 498.913C199.221 499.164 197.246 496.859 196.235 494.631C198.854 495.514 202.489 496.441 204.4 495.591C206.665 494.586 214.695 493.936 219.199 493.659C219.542 494.035 219.928 494.368 220.351 494.651Z" fill="black"/>
<path d="M235.625 189.542C227.132 186.239 216.207 175.325 218.935 170.226C219.541 168.939 219.901 167.55 219.997 166.131C220.172 164.204 220.198 162.266 220.074 160.336C219.883 157.173 219.502 154.026 218.935 150.909C218.935 150.909 245.45 151.508 243.906 155.416C243.456 156.562 243.385 158.552 243.507 160.78C243.629 163.008 243.951 165.525 244.286 167.657C244.749 170.58 245.212 172.808 245.212 172.808C245.212 172.808 243.591 175.081 242.638 175.203C241.686 175.325 247.811 194.249 235.625 189.542Z" fill="#CF6F80"/>
<path opacity="0.1" d="M213.923 478.206L213.723 478.425C205.796 468.831 196.21 480.788 196.21 480.788L196.068 480.537L196.557 475.102L211.594 471.194L213.723 477.71L213.923 478.206Z" fill="black"/>
<path opacity="0.1" d="M272.557 471.194C272.557 471.194 266.767 471.071 263.678 473.802C260.59 476.532 245.663 474.394 246.306 473.802C246.497 473.508 246.612 473.172 246.641 472.823L248.667 471.194L272.397 470.492C272.487 470.923 272.557 471.194 272.557 471.194Z" fill="black"/>
<path d="M223.786 395.852C223.355 396.919 223.028 398.025 222.808 399.155C222.272 402.249 222.123 405.399 222.364 408.53C222.603 413.037 222.364 443.242 222.364 443.242C222.364 443.242 217.275 451.297 214.438 454.137C211.6 456.977 220.228 462.076 220.228 462.076C221.515 469.417 213.717 477.71 213.717 477.71C205.79 468.116 196.203 480.079 196.203 480.079C196.203 480.079 190.992 471.065 189.692 467.845C188.392 464.626 194.781 462.398 197.027 461.091C199.272 459.784 196.917 452.077 196.917 452.077C196.917 452.077 195.019 445.322 192.767 439.16C190.515 432.998 195.251 402.323 195.251 402.323C195.251 402.323 195.495 396.876 196.081 394.976C196.376 393.606 196.435 392.194 196.255 390.804C196.216 390.334 196.171 389.941 196.139 389.677C196.107 389.413 196.081 389.291 196.081 389.291L196.171 389.136L199.388 383.135C199.388 383.135 225.331 392.072 223.786 395.852Z" fill="#57ACF9"/>
<path d="M272.557 470.485C272.557 470.485 266.767 470.363 263.678 473.061C260.59 475.759 245.663 473.653 246.306 473.061C246.949 472.468 246.898 468.084 246.898 468.084C238.141 456.12 245.611 451.265 245.611 451.265C245.611 451.265 241.699 432.431 240.991 425.445C240.496 420.564 239.885 407.448 239.557 399.96C239.415 396.74 239.331 394.525 239.331 394.525L246.486 393.083L247.406 392.896L264.663 389.432C264.663 389.432 265.139 392.652 265.46 395.285C265.621 396.41 265.711 397.543 265.731 398.678C265.615 399.966 265.731 403.997 265.731 403.997L266.316 416.083C265.934 417.351 265.736 418.667 265.731 419.991C265.846 421.53 268.092 443.564 268.092 443.564C268.092 443.564 271.998 456.712 270.666 457.659C269.334 458.605 272.557 470.485 272.557 470.485Z" fill="#57ACF9"/>
<path opacity="0.1" d="M243.906 155.416C243.456 156.562 243.385 158.552 243.507 160.78C239.956 162.92 235.873 164.014 231.728 163.937C227.582 163.859 223.543 162.613 220.074 160.342C219.883 157.178 219.503 154.028 218.935 150.909C218.935 150.909 245.45 151.495 243.906 155.416Z" fill="black"/>
<path d="M254.156 141.186C254.161 143.506 253.796 145.813 253.075 148.018C251.463 152.959 248.157 157.17 243.742 159.908C239.327 162.646 234.088 163.734 228.949 162.98C223.81 162.225 219.103 159.677 215.66 155.786C212.217 151.894 210.259 146.91 210.133 141.714C210.133 141.534 210.133 141.366 210.133 141.186C210.083 138.261 210.616 135.356 211.7 132.639C212.783 129.922 214.397 127.449 216.446 125.363C218.495 123.277 220.939 121.62 223.635 120.489C226.331 119.358 229.224 118.775 232.148 118.775C235.071 118.775 237.964 119.358 240.66 120.489C243.356 121.62 245.8 123.277 247.849 125.363C249.898 127.449 251.512 129.922 252.596 132.639C253.679 135.356 254.212 138.261 254.162 141.186H254.156Z" fill="#CF6F80"/>
<path opacity="0.1" d="M235.625 189.542C227.132 186.239 216.207 175.325 218.935 170.226C219.541 168.939 219.901 167.55 219.997 166.131L231.623 175.692L238.817 181.597L244.286 167.663C244.749 170.586 245.212 172.814 245.212 172.814C245.212 172.814 243.591 175.087 242.638 175.209C241.686 175.332 247.811 194.249 235.625 189.542Z" fill="black"/>
<path d="M265.692 231.801L255.983 395.028L243.321 395.858L210.532 301.213L215.911 188.847L217.043 165.107L231.623 177.09L238.823 182.994L244.453 168.655L254.921 177.785L265.692 231.801Z" fill="#57ACF9"/>
<path opacity="0.1" d="M223.786 395.852C223.355 396.919 223.028 398.025 222.808 399.155C213.595 397.731 204.646 394.934 196.261 390.855L196.087 390.765L196.145 389.728L196.177 389.188L199.395 383.187C199.395 383.187 225.331 392.072 223.786 395.852Z" fill="black"/>
<path opacity="0.1" d="M246.634 399.181C244.279 399.582 241.903 399.852 239.518 399.992C239.376 396.773 239.293 394.558 239.293 394.558L246.447 393.115L246.634 399.181Z" fill="black"/>
<path opacity="0.1" d="M265.422 395.318C260.847 396.509 253.782 397.848 247.458 397.011L247.368 392.929L264.624 389.465C264.624 389.465 265.1 392.652 265.422 395.318Z" fill="black"/>
<path opacity="0.1" d="M247.342 397.758C220.962 402.265 196.802 389.342 196.802 389.342L197.033 384.964C197.033 384.964 197.632 335.326 195.972 331.521C194.312 327.715 193.018 308.418 193.958 305.456C194.897 302.494 190.528 258.078 190.528 258.078L189.82 240.05L163.917 229.548L175.498 205.389C177.062 202.002 178.408 198.517 179.526 194.958C181.54 188.686 190.889 182.524 190.889 182.524C190.889 182.524 200.475 176.369 204.265 176.6C208.055 176.832 213.022 171.153 213.022 171.153C216.69 161.797 220.01 166.034 220.01 166.034C220.01 166.478 220.01 166.034 219.829 167.419C218.543 177.689 240.637 210.141 240.953 210.714L243.057 262.006L245.186 326.917L247.342 397.758Z" fill="black"/>
<path d="M246.634 397.758C220.254 402.265 196.087 389.342 196.087 389.342L196.325 384.964C196.325 384.964 196.924 335.326 195.257 331.521C193.591 327.715 192.304 308.418 193.25 305.456C194.196 302.494 189.821 258.078 189.821 258.078L189.106 240.049L163.19 229.509L174.771 205.35C176.332 201.961 177.677 198.477 178.799 194.919C180.806 188.647 190.162 182.485 190.162 182.485C190.162 182.485 199.748 176.33 203.532 176.562C207.315 176.793 212.289 171.114 212.289 171.114C215.962 161.759 220.01 165.995 220.01 165.995C220.01 166.44 219.624 166.639 219.829 167.38C222.66 177.341 239.93 210.102 240.245 210.675L242.375 261.967L244.504 326.878L246.634 397.758Z" fill="white"/>
<path opacity="0.1" d="M239.524 212.137C236.687 210.952 221.657 193.779 221.657 193.779V189.871C221.11 188.583 217.861 189.369 215.223 190.27L216.355 166.53L217.642 167.599C220.46 177.553 239.196 211.564 239.524 212.137Z" fill="black"/>
<path d="M240.239 210.714C237.395 209.529 222.364 192.356 222.364 192.356V188.448C221.818 187.16 218.568 187.946 215.93 188.847L217.069 165.107L218.356 166.176C221.181 176.13 239.923 210.147 240.239 210.714Z" fill="white"/>
<path opacity="0.1" d="M196.801 296.358C197.155 296.358 215.145 294.465 215.145 294.465C215.145 294.465 226.038 315.9 225.324 321.115C224.61 326.331 223.317 330.947 218.935 330.13C214.553 329.312 195.354 330.774 195.354 330.774L196.801 296.358Z" fill="black"/>
<path d="M196.087 294.935C196.441 294.935 214.431 293.042 214.431 293.042C214.431 293.042 225.318 314.483 224.61 319.692C223.902 324.902 222.596 329.525 218.221 328.707C213.846 327.889 194.64 329.351 194.64 329.351L196.087 294.935Z" fill="white"/>
<path d="M209.644 284.871C209.644 284.871 226.154 293.75 226.508 296.461C226.862 299.171 218.105 295.276 216.213 294.806C214.968 294.506 213.701 294.308 212.424 294.213L199.806 294.555L209.644 284.871Z" fill="#CF6F80"/>
<path opacity="0.1" d="M234.917 213.244C235.877 213.244 236.655 212.466 236.655 211.506C236.655 210.545 235.877 209.767 234.917 209.767C233.958 209.767 233.18 210.545 233.18 211.506C233.18 212.466 233.958 213.244 234.917 213.244Z" fill="black"/>
<path d="M234.917 212.536C235.877 212.536 236.655 211.758 236.655 210.797C236.655 209.837 235.877 209.059 234.917 209.059C233.958 209.059 233.18 209.837 233.18 210.797C233.18 211.758 233.958 212.536 234.917 212.536Z" fill="#3F3D56"/>
<path opacity="0.1" d="M238.115 288.502C239.075 288.502 239.853 287.724 239.853 286.764C239.853 285.803 239.075 285.025 238.115 285.025C237.156 285.025 236.378 285.803 236.378 286.764C236.378 287.724 237.156 288.502 238.115 288.502Z" fill="black"/>
<path d="M238.115 287.788C239.075 287.788 239.853 287.009 239.853 286.049C239.853 285.089 239.075 284.311 238.115 284.311C237.156 284.311 236.378 285.089 236.378 286.049C236.378 287.009 237.156 287.788 238.115 287.788Z" fill="#3F3D56"/>
<path opacity="0.1" d="M236.648 250.873C237.608 250.873 238.385 250.095 238.385 249.135C238.385 248.175 237.608 247.396 236.648 247.396C235.689 247.396 234.911 248.175 234.911 249.135C234.911 250.095 235.689 250.873 236.648 250.873Z" fill="black"/>
<path d="M236.648 250.165C237.608 250.165 238.385 249.387 238.385 248.426C238.385 247.466 237.608 246.688 236.648 246.688C235.689 246.688 234.911 247.466 234.911 248.426C234.911 249.387 235.689 250.165 236.648 250.165Z" fill="#3F3D56"/>
<path d="M276.694 293.853C276.694 293.853 277.878 295.63 276.694 296.461C275.51 297.291 276.81 299.3 276.81 299.3C276.81 299.3 273.857 301.032 275.157 302.591C276.456 304.149 275.633 311.187 275.633 311.187L272.081 317.072C272.081 317.072 272.293 320.864 272.306 325.99C272.306 333.987 271.837 345.229 269.237 350.355L269.597 392.407C269.597 392.407 257.16 396.953 246.75 395.569L245.206 328.089C245.206 328.089 247.458 289.822 248.288 282.482C248.773 278.671 248.971 274.829 248.879 270.988C248.879 270.988 248.526 259.501 247.335 254.17C247.335 254.17 246.048 231.074 245.92 224.68C245.862 221.621 246.023 212.697 246.203 204.21C246.402 194.932 246.628 186.181 246.628 186.181L244.279 167.586C244.279 167.586 246.628 167.348 247.335 168.294C247.652 168.59 247.997 168.856 248.365 169.086C252.418 171.829 266.741 180.264 266.741 180.264C266.741 180.264 274.668 183.419 276.566 187.939C278.464 192.459 279.783 195.666 280.703 196.954C281.623 198.242 282.125 204.294 282.125 204.294C282.125 204.294 284.853 215.433 286.983 217.32C289.112 219.207 290.669 231.209 290.669 231.209L271.849 246.018C271.849 246.018 270.196 270.654 269.842 271.607C269.488 272.56 276.694 293.853 276.694 293.853Z" fill="white"/>
<path d="M277.409 293.853C277.409 293.853 278.586 295.63 277.409 296.461C276.231 297.291 277.518 299.3 277.518 299.3C277.518 299.3 274.584 301.052 275.871 302.61C277.158 304.168 276.347 311.206 276.347 311.206L272.795 317.091C272.795 317.091 273.008 320.884 273.027 326.009C273.027 334.006 272.557 345.248 269.958 350.374L270.312 392.426C270.312 392.426 257.855 396.972 247.458 395.588L245.92 328.108C245.92 328.108 248.172 289.842 249.002 282.501C249.488 278.69 249.684 274.848 249.587 271.008C249.587 271.008 249.233 259.521 248.05 254.189C248.05 254.189 246.763 231.093 246.628 224.699C246.57 221.641 246.737 212.716 246.911 204.23C247.11 194.951 247.335 186.201 247.335 186.201L244.234 167.354C244.234 167.354 247.335 167.354 248.05 168.313C248.364 168.613 248.709 168.879 249.079 169.105C253.133 171.848 267.461 180.283 267.461 180.283C267.461 180.283 275.382 183.438 277.28 187.959C279.178 192.479 280.497 195.685 281.424 196.973C282.35 198.261 282.839 204.313 282.839 204.313C282.839 204.313 285.567 215.453 287.697 217.339C289.827 219.226 291.364 231.202 291.364 231.202L272.544 246.012C272.544 246.012 270.891 270.647 270.531 271.6C270.17 272.553 277.409 293.853 277.409 293.853Z" fill="white"/>
<path opacity="0.1" d="M254.87 191.667L256.568 196.625L247.625 205.64C247.824 196.368 248.05 187.611 248.05 187.611L244.948 168.764C244.948 168.764 248.049 168.764 248.764 169.724C249.077 170.023 249.422 170.286 249.793 170.509L257.398 192.466L254.87 191.667Z" fill="black"/>
<path d="M254.156 190.244L255.861 195.202L246.917 204.217C247.117 194.938 247.342 186.188 247.342 186.188L244.234 167.341C244.234 167.341 247.342 167.341 248.05 168.3C248.365 168.599 248.71 168.864 249.079 169.092L256.691 191.043L254.156 190.244Z" fill="white"/>
<path opacity="0.1" d="M254.156 141.186C254.161 143.506 253.796 145.813 253.075 148.018C252.953 148.037 252.829 148.031 252.71 148.001C252.59 147.971 252.478 147.918 252.38 147.844C252.212 142.049 249.362 136.608 245.856 131.978C244.871 130.581 243.677 129.343 242.317 128.308C240.941 127.274 239.23 126.79 237.517 126.95C235.587 127.214 233.882 128.527 231.932 128.695C229.358 128.907 227.055 127.123 224.501 127.033C223.462 127.043 222.438 127.275 221.496 127.712C220.554 128.149 219.716 128.783 219.038 129.57C217.696 131.159 216.699 133.01 216.11 135.005C215.099 138.03 214.548 141.19 214.476 144.38C214.444 146.183 214.27 148.443 212.597 149.099C212.723 147.774 212.573 146.436 212.155 145.171C211.738 143.907 211.062 142.742 210.172 141.753L210.133 141.714C210.133 141.534 210.133 141.366 210.133 141.186C210.083 138.261 210.616 135.356 211.7 132.639C212.783 129.922 214.397 127.449 216.446 125.363C218.495 123.277 220.939 121.62 223.635 120.489C226.331 119.358 229.224 118.775 232.148 118.775C235.071 118.775 237.964 119.358 240.66 120.489C243.356 121.62 245.8 123.277 247.849 125.363C249.898 127.449 251.512 129.922 252.596 132.639C253.679 135.356 254.212 138.261 254.162 141.186H254.156Z" fill="black"/>
<path d="M241.261 106.204C237.918 104.63 234.115 104.332 230.568 105.367C228.786 105.895 227.106 106.751 225.298 107.182C221.438 108.116 216.934 107.105 213.62 109.365C211.78 110.653 210.674 112.688 209.644 114.664L207.07 119.571C205.668 122.256 204.252 124.986 203.667 127.941C203.081 130.897 203.435 134.206 205.307 136.582C206.671 138.315 208.685 139.403 210.165 141.032C211.052 142.023 211.724 143.186 212.141 144.449C212.557 145.712 212.708 147.048 212.584 148.372C214.264 147.728 214.425 145.462 214.463 143.659C214.535 140.469 215.086 137.309 216.098 134.284C216.685 132.288 217.682 130.437 219.025 128.849C219.704 128.063 220.542 127.43 221.483 126.992C222.425 126.555 223.449 126.323 224.488 126.312C227.061 126.403 229.371 128.18 231.919 127.967C233.849 127.806 235.561 126.486 237.504 126.229C239.217 126.066 240.929 126.551 242.304 127.587C243.664 128.62 244.856 129.858 245.836 131.257C249.349 135.887 252.2 141.315 252.367 147.123C253.094 147.657 254.143 146.962 254.503 146.138C254.863 145.314 254.876 144.348 255.333 143.562C255.861 142.654 256.871 142.171 257.662 141.489C259.67 139.757 260.171 136.84 260.094 134.194C260.017 131.547 259.502 128.862 260.004 126.261C260.307 124.664 260.989 123.17 261.362 121.593C261.735 120.015 261.78 118.244 260.899 116.886C259.612 114.89 256.903 114.497 254.542 114.31C251.859 114.078 249.459 114.375 247.747 112.115C246.944 110.935 246.04 109.828 245.045 108.805C244.704 108.47 241.261 106.345 241.261 106.204Z" fill="#512E4E"/>
<path opacity="0.1" d="M171.329 241.988L164.605 229.548L162.475 248.742C162.475 248.742 163.659 257.267 163.421 258.574C163.183 259.881 168.273 271.6 168.273 271.6C168.273 271.6 185.085 301.567 191.95 303.112L215.145 286.526L208.994 278.709C208.994 278.709 206.865 277.878 206.331 278.709C206.331 278.709 194.91 259.044 193.726 257.621C192.542 256.198 192.774 253.359 192.774 253.359C192.774 253.359 190.998 251.466 191.59 249.689C192.182 247.911 188.16 241.749 188.16 241.749L191.828 238.317L171.329 241.988Z" fill="black"/>
<path d="M164.959 228.131L163.183 229.547L161.053 248.742C161.053 248.742 162.237 257.267 161.999 258.574C161.761 259.881 166.857 271.6 166.857 271.6C166.857 271.6 183.663 301.567 190.528 303.112L213.73 286.525L207.572 278.709C207.572 278.709 205.443 277.878 204.909 278.709C204.909 278.709 193.488 259.044 192.304 257.621C191.12 256.198 191.358 253.359 191.358 253.359C191.358 253.359 189.582 251.466 190.174 249.688C190.766 247.911 186.738 241.749 186.738 241.749L190.406 238.317L164.959 228.131Z" fill="white"/>
<path opacity="0.1" d="M275.157 303.325C276.444 304.889 275.633 311.914 275.633 311.914L272.081 317.799C272.081 317.799 272.293 321.598 272.306 326.717L266.335 328.585C265.796 328.753 265.224 328.79 264.667 328.693C264.11 328.595 263.585 328.366 263.134 328.024C262.684 327.681 262.322 327.236 262.079 326.726C261.835 326.215 261.718 325.654 261.735 325.088L262.765 291.857L276.694 297.188C275.511 298.013 276.81 300.034 276.81 300.034C276.81 300.034 273.857 301.76 275.157 303.325Z" fill="black"/>
<path d="M275.871 302.61C277.158 304.175 276.347 311.206 276.347 311.206L272.795 317.091C272.795 317.091 273.008 320.884 273.027 326.009L266.947 327.908C266.418 328.073 265.858 328.108 265.313 328.012C264.768 327.916 264.254 327.691 263.813 327.356C263.373 327.021 263.019 326.586 262.78 326.086C262.542 325.586 262.426 325.037 262.443 324.483L263.479 291.149L277.415 296.48C276.225 297.304 277.525 299.32 277.525 299.32C277.525 299.32 274.584 301.052 275.871 302.61Z" fill="white"/>
<path d="M280.484 286.77C280.484 286.77 279.538 292.816 277.17 293.171C274.803 293.525 273.741 302.951 271.38 302.616C269.018 302.282 270.582 293.853 270.666 292.218C270.749 290.582 268.092 283.808 270.08 282.269C272.068 280.731 278.361 282.269 278.361 282.269L280.484 286.77Z" fill="#CF6F80"/>
<path opacity="0.1" d="M285.522 240.21L289.987 231.196C289.987 231.196 291.763 238.066 291.763 241.736C291.763 245.406 294.247 245.767 294.247 245.767C294.247 245.767 296.968 248.987 295.534 251.33C294.099 253.674 293.52 259.508 293.52 259.508C293.52 259.508 293.989 270.641 291.86 272.18C289.73 273.718 289.286 277.395 289.286 277.395C289.286 277.395 285.374 284.381 285.496 286.043C285.619 287.704 280.053 298.953 280.053 298.953C280.053 298.953 282.775 284.974 266.915 278.934C266.915 278.934 266.792 274.188 267.976 272.888C269.16 271.587 271.007 270.995 269.849 264.421C268.69 257.847 269.514 249.991 269.514 248.413C269.514 246.836 273.066 236.997 273.066 236.997L285.522 240.21Z" fill="black"/>
<path d="M287.452 229.908L291.351 231.196C291.351 231.196 293.134 238.066 293.134 241.736C293.134 245.406 295.617 245.767 295.617 245.767C295.617 245.767 298.339 248.986 296.904 251.33C295.469 253.674 294.897 259.508 294.897 259.508C294.897 259.508 295.366 270.641 293.237 272.179C291.107 273.718 290.631 277.395 290.631 277.395C290.631 277.395 286.725 284.381 286.848 286.042C286.97 287.704 281.398 298.952 281.398 298.952C281.398 298.952 284.126 284.974 268.259 278.934C268.259 278.934 268.143 274.188 269.327 272.888C270.511 271.587 272.358 270.995 271.2 264.421C270.042 257.846 270.865 249.991 270.865 248.413C270.865 246.836 274.417 236.997 274.417 236.997L287.452 229.908Z" fill="white"/>
<path opacity="0.1" d="M201.331 463.557C201.331 463.557 207.547 459.649 211.626 462.488C215.705 465.328 201.331 463.557 201.331 463.557Z" fill="black"/>
<path opacity="0.1" d="M249.626 451.471C249.626 451.471 255.127 450.763 259.747 455.74C264.367 460.718 249.626 451.471 249.626 451.471Z" fill="black"/>
<g opacity="0.1">
<path opacity="0.1" d="M257.675 140.079C256.884 140.761 255.867 141.251 255.34 142.159C254.889 142.938 254.876 143.897 254.516 144.734C254.156 145.571 253.107 146.254 252.38 145.726C252.213 139.931 249.356 134.49 245.849 129.854C244.869 128.455 243.677 127.217 242.317 126.184C240.94 125.148 239.226 124.663 237.511 124.825C235.58 125.089 233.882 126.403 231.932 126.564C229.358 126.782 227.049 124.999 224.494 124.909C223.456 124.919 222.432 125.151 221.491 125.59C220.55 126.029 219.714 126.664 219.038 127.452C217.695 129.038 216.698 130.886 216.11 132.88C215.099 135.906 214.548 139.066 214.476 142.255C214.438 144.052 214.27 146.292 212.61 146.962C212.649 147.438 212.649 147.916 212.61 148.391C214.283 147.748 214.45 145.481 214.489 143.678C214.561 140.489 215.112 137.328 216.123 134.303C216.711 132.307 217.708 130.457 219.051 128.869C219.728 128.082 220.565 127.449 221.506 127.012C222.447 126.574 223.47 126.343 224.507 126.332C227.081 126.422 229.397 128.199 231.945 127.987C233.875 127.826 235.587 126.506 237.523 126.248C239.239 126.086 240.953 126.571 242.33 127.607C243.69 128.64 244.882 129.878 245.862 131.277C249.369 135.906 252.225 141.334 252.393 147.142C253.12 147.677 254.169 146.981 254.529 146.157C254.889 145.333 254.902 144.367 255.352 143.582C255.88 142.674 256.897 142.191 257.688 141.508C259.695 139.776 260.197 136.859 260.12 134.213C260.12 134.129 260.12 134.046 260.12 133.968C259.998 136.261 259.387 138.598 257.675 140.079Z" fill="black"/>
<path opacity="0.1" d="M210.178 139.622C208.698 137.993 206.678 136.904 205.32 135.179C204.177 133.651 203.524 131.812 203.448 129.905C203.246 132.288 203.911 134.664 205.32 136.595C206.678 138.327 208.698 139.416 210.178 141.045C211.599 142.638 212.452 144.658 212.604 146.788C212.702 145.492 212.538 144.189 212.122 142.957C211.705 141.726 211.044 140.591 210.178 139.622Z" fill="black"/>
<path opacity="0.1" d="M261.375 120.183C260.995 121.76 260.32 123.26 260.011 124.851C259.828 125.914 259.761 126.993 259.811 128.07C259.833 127.457 259.9 126.845 260.011 126.242C260.32 124.645 260.995 123.151 261.375 121.573C261.596 120.703 261.668 119.802 261.587 118.908C261.547 119.337 261.476 119.763 261.375 120.183Z" fill="black"/>
</g>
<path opacity="0.1" d="M85.4005 489.738C120.026 489.738 148.095 485.226 148.095 479.661C148.095 474.096 120.026 469.584 85.4005 469.584C50.7754 469.584 22.7061 474.096 22.7061 479.661C22.7061 485.226 50.7754 489.738 85.4005 489.738Z" fill="#57ACF9"/>
<path d="M87.4208 286.622H83.3866V377.52H87.4208V286.622Z" fill="#535461"/>
<path d="M112.771 377.243L112.521 381.339L112.16 387.134L112.012 389.542L111.658 395.337L111.504 397.745L111.144 403.54L107.077 469.262C106.9 472.09 105.654 474.744 103.591 476.684C101.527 478.624 98.803 479.705 95.9719 479.706H74.8292C71.9987 479.705 69.2751 478.624 67.213 476.684C65.1509 474.743 63.9055 472.089 63.7303 469.262L59.6832 403.495L59.3229 397.7L59.1749 395.292L58.8146 389.497L58.6666 387.089L58.3063 381.294L58.0489 377.198C58.0042 376.41 58.1209 375.621 58.3919 374.88C58.6628 374.138 59.0822 373.46 59.6245 372.887C60.1667 372.313 60.8203 371.857 61.5452 371.545C62.27 371.234 63.0508 371.074 63.8397 371.075H107.084C107.87 371.082 108.646 371.25 109.364 371.568C110.083 371.887 110.728 372.349 111.261 372.927C111.794 373.505 112.203 374.187 112.463 374.929C112.723 375.671 112.828 376.459 112.771 377.243Z" fill="#0B283F"/>
<path d="M112.52 381.339L112.16 387.114H58.6408L58.2805 381.339H112.52Z" fill="#57ACF9"/>
<path d="M112.012 389.522L111.658 395.305H59.1491L58.7888 389.522H112.012Z" fill="#57ACF9"/>
<path d="M111.504 397.719L111.15 403.495H59.6576L59.2972 397.719H111.504Z" fill="#57ACF9"/>
<path d="M52.1231 320.691C75.6142 337.702 85.4199 364.308 85.4199 364.308C85.4199 364.308 57.1096 363.336 33.612 346.324C10.1145 329.312 0.328156 302.713 0.328156 302.713C0.328156 302.713 28.6256 303.679 52.1231 320.691Z" fill="#57ACF9"/>
<path d="M0.308838 302.713C0.308838 302.713 29.7001 319.036 39.1261 332.551C48.5521 346.066 85.4198 364.308 85.4198 364.308" stroke="#535461" stroke-width="2" stroke-miterlimit="10"/>
<path d="M67.2884 286.422C80.0731 295.675 85.4199 310.156 85.4199 310.156C85.4199 310.156 70.0101 309.628 57.219 300.375C44.4278 291.123 39.0939 276.635 39.0939 276.635C39.0939 276.635 54.4973 277.163 67.2884 286.422Z" fill="#57ACF9"/>
<path d="M39.0939 276.635C39.0939 276.635 55.0892 285.521 60.2173 292.874C65.3453 300.227 85.4199 310.156 85.4199 310.156" stroke="#535461" stroke-width="2" stroke-miterlimit="10"/>
<path d="M103.982 309.422C89.2932 325.578 86.1855 346.691 86.1855 346.691C86.1855 346.691 106.897 341.604 121.573 325.442C136.25 309.281 139.37 288.174 139.37 288.174C139.37 288.174 118.672 293.267 103.982 309.422Z" fill="#57ACF9"/>
<path d="M139.383 288.18C139.383 288.18 120.248 304.741 115.384 316.151C110.52 327.561 86.1855 346.691 86.1855 346.691" stroke="#535461" stroke-width="2" stroke-miterlimit="10"/>
<path d="M643.203 303.737C643.203 303.737 632.58 250.847 636.647 244.267C636.647 244.267 636.795 238.15 636.55 230.352C636.55 230.056 636.55 229.76 636.55 229.457C637.266 229.935 638.012 230.365 638.783 230.745C642.53 232.671 646.831 233.227 650.943 232.316L647.726 228.73C646.954 227.873 646.15 226.946 645.983 225.813C645.815 224.68 646.279 223.669 646.678 222.658C649.734 214.931 649.895 205.215 644.007 199.317C639.034 194.359 637.824 187.958 632.426 183.432C628.482 180.116 626.314 175.254 624.267 170.554C622.537 166.581 620.793 162.576 619.802 158.365C619.03 155.075 618.721 151.669 617.66 148.456C616.598 145.243 614.61 142.12 611.502 140.684C610.395 140.175 609.167 139.885 608.156 139.209C606.831 138.314 606.033 136.859 605.074 135.584C600.204 129.145 583.893 132.938 576.172 135.552C574.073 136.21 572.129 137.288 570.459 138.72L570.529 138.604C570.587 138.508 570.658 138.411 570.722 138.314C569.877 138.998 569.147 139.813 568.561 140.729C567.435 142.513 566.965 144.592 566.026 146.524C564.893 148.81 558.594 155.191 561.303 157.76C561.493 157.932 561.71 158.072 561.946 158.172C562.963 158.596 564.083 158.708 565.163 158.494L565.048 158.771C564.122 161.038 563.648 163.463 563.651 165.912C563.651 176.491 572.37 185.067 583.134 185.067C585.158 185.069 587.169 184.759 589.098 184.147C589.143 184.391 589.182 184.636 589.227 184.881C589.227 184.977 589.259 185.074 589.272 185.17L588.931 185.647C588.914 185.617 588.895 185.59 588.873 185.563L578.772 199.69C577.227 200.778 568.335 207.217 567.834 212.046C567.306 217.333 566.778 223.521 566.778 223.521L566.708 224.847C566.266 225.216 565.75 225.485 565.194 225.635C564.639 225.785 564.058 225.813 563.49 225.716C560.338 225.201 560.338 237.306 560.338 237.306C560.338 237.306 558.24 239.238 556.799 237.564C555.358 235.89 551.549 241.562 551.549 241.562L527.678 242.593L527.131 242.625L525.844 238.639C525.706 238.219 525.407 237.87 525.013 237.669C524.619 237.467 524.162 237.43 523.74 237.564C523.641 237.597 523.544 237.638 523.451 237.686L523.361 237.738L523.193 237.854L523.11 237.931C523.064 237.973 523.021 238.018 522.981 238.066L522.904 238.156L522.865 238.195C522.717 238.4 522.618 238.638 522.578 238.889C522.538 239.139 522.557 239.395 522.634 239.637L523.74 243.056C519.133 243.983 514.424 246.598 518.265 253.796L498.795 250.197L505.094 255.49L537.612 262.206C537.181 262.978 537.464 264.099 538.809 265.676C544.6 272.482 555.152 274.33 559.398 274.807C560.52 277.317 561.921 279.693 563.574 281.889L563.207 288.67C563.207 288.67 552.456 340.348 550.487 342.969C551.481 341.842 552.391 340.643 553.209 339.383C550.088 350 545.726 364.533 544.581 366.709C542.74 370.186 541.035 384.255 543.133 385.157C543.776 385.434 545.616 385.298 548.242 385.099V386.264L548.126 430.429C548.126 430.429 548.653 457.517 547.206 460.099C545.758 462.681 545.372 468.097 545.372 468.097C545.372 468.097 539.581 478.779 534.994 483.073C534.962 483.107 534.928 483.137 534.891 483.164L534.749 482.159C534.749 482.159 529.235 489.126 517.036 488.733C517.036 488.733 509.695 493.511 520.581 493.769C531.468 494.026 545.372 493.382 545.372 493.382C545.372 493.382 555.081 478.573 563.214 480.504V491.727H565.704V480.324C566.859 479.563 567.847 478.576 568.609 477.421C569.371 476.267 569.891 474.97 570.137 473.608C570.35 472.205 570.194 470.77 569.684 469.446C569.174 468.121 568.328 466.953 567.229 466.055C566.735 465.609 566.339 465.065 566.065 464.457C565.792 463.85 565.647 463.193 565.639 462.527L565.549 462.604C565.549 462.379 565.492 462.147 565.466 461.909C564.752 456.114 563.857 444.157 567.016 435.31C571.347 423.179 572.659 406.283 569.506 396.225C568.489 393.01 567.654 389.741 567.004 386.432C566.926 386.013 566.856 385.614 566.791 385.241C568.946 385.532 571.08 385.962 573.18 386.528C580.483 388.544 596.459 388.917 610.099 388.808C610.132 389.181 610.17 389.574 610.215 389.967C610.458 392.697 610.967 395.397 611.734 398.028C613.445 403.179 614.23 425.889 614.23 425.889C614.23 425.889 616.437 444.562 615.234 452.16C614.591 456.384 613.947 460.627 613.58 464.89V464.974C613.58 464.974 609.964 475.276 607.32 480.871C607.256 481.013 607.185 481.155 607.12 481.29C606.415 481.354 605.721 481.508 605.055 481.747C605.055 481.747 601.51 488.83 597.978 490.002C594.445 491.174 595.616 495.031 603.614 493.614C611.611 492.197 623.688 491.038 623.688 491.038L624.21 483.814L626.667 480.736L626.024 487.941L628.643 487.426L628.295 478.663L632.317 473.628C632.317 473.628 637.174 469.301 629.955 460.788V460.975C629.878 460.853 629.807 460.724 629.724 460.602V460.563C628.527 458.709 627.575 455.251 629.318 449.115C632.471 438.027 634.305 427.963 634.305 427.963C634.305 427.963 641.344 401.003 632.883 388.247H633.256C632.389 386.453 631.776 384.545 631.435 382.581C631.392 382.349 631.354 382.111 631.319 381.867C637.58 381.506 643.724 380.373 648.737 377.926C648.717 377.9 645.7 313.923 643.203 303.737ZM563.722 259.115V259.244L562.435 259.308L563.722 259.115ZM559.308 259.727C559.097 259.774 558.899 259.868 558.729 260.004C558.176 260.787 557.829 261.697 557.719 262.65L555.712 262.199C555.712 262.199 554.303 261.897 552.276 261.555L551.317 260.589C553.955 260.371 556.696 260.049 559.308 259.727Z" fill="url(#paint1_linear_471_593)"/>
<path d="M625.728 478.753L624.962 487.877L627.53 487.362L627.144 477.465L625.728 478.753Z" fill="#1D2366"/>
<path d="M567.158 435.432C564.063 444.253 564.938 456.159 565.633 461.941C565.891 464.079 566.129 465.379 566.129 465.379C566.129 465.379 561.502 475.926 561.116 476.326C560.73 476.725 547.502 484.806 547.502 484.806L538.256 490.208C538.256 490.208 528.875 486.093 533.372 484.677C534.291 484.308 535.119 483.743 535.798 483.022C540.302 478.74 545.957 468.097 545.957 468.097C545.957 468.097 546.344 462.694 547.759 460.125C549.175 457.556 548.66 430.558 548.66 430.558L548.769 386.548V380.811L566.367 380.939C566.478 382.887 566.731 384.824 567.126 386.734C567.758 390.032 568.576 393.291 569.577 396.496C572.679 406.534 571.392 423.346 567.158 435.432Z" fill="#FFB0B1"/>
<path opacity="0.1" d="M566.129 465.379C566.129 465.379 561.502 475.926 561.116 476.325C560.73 476.725 547.502 484.805 547.502 484.805L538.256 490.208C538.256 490.208 528.875 486.093 533.372 484.677C534.291 484.308 535.119 483.743 535.798 483.022L536.197 485.836L539.279 485.707L565.659 461.954C565.89 464.079 566.129 465.379 566.129 465.379Z" fill="black"/>
<path d="M565.807 462.553L539.279 486.467L536.197 486.596L535.553 482.088C535.553 482.088 530.162 489.03 518.181 488.643C518.181 488.643 510.988 493.402 521.649 493.659C532.311 493.917 545.925 493.273 545.925 493.273C545.925 493.273 555.435 478.463 563.394 480.395V491.579H565.839V480.292C566.976 479.526 567.946 478.538 568.691 477.387C569.436 476.236 569.941 474.947 570.176 473.595C570.387 472.204 570.237 470.781 569.741 469.463C569.244 468.146 568.416 466.979 567.338 466.075C566.857 465.623 566.472 465.078 566.209 464.472C565.946 463.866 565.809 463.213 565.807 462.553Z" fill="#0B283F"/>
<path d="M628.173 449.185C626.462 455.302 627.395 458.747 628.566 460.595V460.634C630.067 462.916 631.112 465.468 631.641 468.148L631.744 468.728L619.674 486.338L613.124 488.914C613.124 488.914 602.591 485.314 604.515 484.284C604.997 484.033 605.75 482.694 606.612 480.846C609.186 475.276 612.737 464.999 612.737 464.999V464.916C613.111 460.673 613.703 456.442 614.359 452.231C615.536 444.652 613.374 426.05 613.374 426.05C613.374 426.05 612.602 403.431 610.929 398.286C610.174 395.67 609.672 392.988 609.43 390.276C609.083 387.056 609.006 384.404 609.006 384.404C609.006 384.404 615.942 374.745 628.656 385.176C629.672 386.008 630.567 386.979 631.313 388.061C640.096 400.565 633.024 428.111 633.024 428.111C633.024 428.111 631.255 438.13 628.173 449.185Z" fill="#FFB0B1"/>
<path opacity="0.1" d="M631.763 468.728L619.693 486.338L613.143 488.914C613.143 488.914 602.61 485.314 604.534 484.284C605.017 484.033 605.769 482.694 606.632 480.846C611.09 480.807 613.4 485.057 613.4 485.057L619.049 484.155C619.049 484.155 626.5 469.5 628.173 468.605C629.846 467.71 628.43 461.915 628.43 461.915V460.441C628.476 460.492 628.514 460.55 628.566 460.602V460.64C630.068 462.922 631.112 465.474 631.641 468.155L631.763 468.728Z" fill="black"/>
<path d="M613.786 485.437C613.786 485.437 610.569 479.526 604.405 481.708C604.405 481.708 600.937 488.791 597.469 489.937C594.001 491.084 595.16 494.947 602.996 493.537C610.833 492.127 622.646 490.961 622.646 490.961L623.161 483.756L631.126 473.602C631.126 473.602 635.875 469.294 628.81 460.814V462.289C628.81 462.289 630.226 468.084 628.553 468.979C626.88 469.874 619.455 484.535 619.455 484.535L613.786 485.437Z" fill="#0B283F"/>
<path opacity="0.1" d="M566.386 380.927C566.497 382.874 566.751 384.811 567.145 386.722C559.9 385.659 553.177 386.187 548.769 386.535V380.798L566.386 380.927Z" fill="black"/>
<path opacity="0.1" d="M632.027 389.664C632.027 389.664 621.733 390.166 609.456 390.27C609.109 387.05 609.032 384.397 609.032 384.397C609.032 384.397 615.968 374.739 628.681 385.17C629.698 386.002 630.593 386.973 631.339 388.055C631.538 388.603 631.768 389.141 632.027 389.664Z" fill="black"/>
<path d="M632.027 388.505C632.027 388.505 586.937 390.688 573.193 386.831C559.45 382.974 545.829 386.316 543.776 385.421C541.724 384.526 543.39 370.508 545.192 367.038C546.993 363.567 556.876 328.469 556.876 328.469L566.386 278.85L576.404 276.088L577.112 275.888L594.567 271.072L607.359 267.537C607.359 267.537 632.793 366.909 630.612 374.237C629.82 377.042 629.692 379.994 630.239 382.858C630.572 384.814 631.174 386.714 632.027 388.505Z" fill="#0B283F"/>
<path d="M533.237 244.917C533.237 244.917 524.229 254.576 531.05 259.959C537.87 265.341 542.354 260.474 542.354 260.474L533.237 244.917Z" fill="#DEEFFE"/>
<path opacity="0.1" d="M533.237 244.917C533.237 244.917 524.229 254.576 531.05 259.959C537.87 265.341 542.354 260.474 542.354 260.474L533.237 244.917Z" fill="black"/>
<path d="M606.014 181.416C606.014 181.416 604.959 182.421 603.369 183.902C601.105 186.02 597.752 189.117 594.78 191.712C590.662 195.299 587.265 197.932 588.481 195.685C589.697 193.438 589.465 189.523 588.86 185.859C588.815 185.615 588.777 185.37 588.732 185.132C588.231 182.441 587.567 179.783 586.744 177.173C586.744 177.173 593.396 168.571 597.077 165.178C598.447 163.89 599.406 163.362 599.464 164.257C599.528 165.461 600.429 168.12 601.549 170.94C601.581 171.03 601.613 171.114 601.652 171.204C602.398 173.136 603.241 175.119 603.981 176.832C605.113 179.459 606.014 181.416 606.014 181.416Z" fill="#FFB0B1"/>
<path opacity="0.1" d="M601.651 171.204C601.026 174.57 599.509 177.705 597.259 180.283C595.009 182.861 592.109 184.787 588.86 185.859C588.349 182.92 587.642 180.018 586.744 177.173C586.744 177.173 599.271 160.979 599.464 164.257C599.509 165.499 600.487 168.255 601.651 171.204Z" fill="black"/>
<path opacity="0.1" d="M587.612 190.186L589.234 187.901C589.234 187.901 590.308 194.455 594.259 191.564C598.209 188.673 598.402 213.321 598.402 213.321L594.162 276.764L563.523 274.929L564.391 244.273L567.859 228.82L576.436 206.355L581.538 198.93L587.612 190.186Z" fill="black"/>
<path d="M598.402 213.714L594.542 271.079L594.136 277.157L577.054 276.133L576.41 276.095L563.542 275.322L564.411 244.66L567.879 229.206L576.455 206.741L581.558 199.317L587.631 190.541L589.253 188.261C589.253 188.261 590.327 194.816 594.278 191.925L594.362 191.867C598.222 189.42 598.402 213.714 598.402 213.714Z" fill="#0B283F"/>
<path d="M568.31 223.836C568.31 223.836 566.772 227.056 563.683 226.534C560.595 226.013 560.602 238.124 560.602 238.124C560.602 238.124 558.549 240.056 557.133 238.382C555.718 236.708 551.986 242.367 551.986 242.367L528.604 243.398C528.604 243.398 539.008 248.156 536.969 262.553C536.969 262.553 572.292 260.364 573.45 257.022C574.609 253.681 568.31 223.836 568.31 223.836Z" fill="white"/>
<path opacity="0.03" d="M568.31 223.836C568.31 223.836 566.772 227.056 563.683 226.534C560.595 226.013 560.602 238.124 560.602 238.124C560.602 238.124 558.549 240.056 557.133 238.382C555.718 236.708 551.986 242.367 551.986 242.367L528.604 243.398C528.604 243.398 539.008 248.156 536.969 262.553C536.969 262.553 572.292 260.364 573.45 257.022C574.609 253.681 568.31 223.836 568.31 223.836Z" fill="black"/>
<path d="M500.359 250.963L506.523 256.23L557.262 266.9L550.97 260.474L500.359 250.963Z" fill="white"/>
<path d="M587.709 192.215C586.866 193.503 584.453 200.096 582.439 205.852C580.76 210.649 579.357 214.867 579.357 214.867C579.357 214.867 576.082 236.205 574.409 240.062C572.736 243.919 573.644 258.961 573.644 258.961L567.409 296.107C567.409 296.107 564.584 315.262 560.222 326.704C555.917 337.966 551.124 343.246 550.976 343.413C552.906 340.799 563.426 289.327 563.426 289.327L566.901 224.409C566.901 224.409 567.409 218.241 567.924 212.967C568.438 207.694 578.862 200.495 578.862 200.495L588.912 186.194C589.922 187.547 589.246 189.903 587.709 192.215Z" fill="white"/>
<path d="M561.502 275.644C561.502 275.644 546.704 275 539.536 266.385C532.368 257.769 556.104 262.946 556.104 262.946L562.274 264.363L561.502 275.644Z" fill="#FFB0B1"/>
<path opacity="0.1" d="M630.612 374.243C629.819 377.049 629.692 380.001 630.238 382.864C614.095 384.011 596.826 379.645 596.826 379.645C593.609 382.607 585.135 386.973 585.135 386.973L580.515 329.666C577.562 321.939 576.404 281.458 576.404 281.458C576.404 281.458 576.668 279.34 577.047 276.165C577.047 276.088 577.047 276.004 577.079 275.927C578.231 267.061 580.515 250.416 581.635 248.169C583.179 245.078 576.886 236.856 576.886 236.856L579.749 212.42L580.097 209.471C586.132 206.773 590.758 198.158 590.758 198.158L594.31 191.931C598.171 189.452 598.37 213.746 598.37 213.746L594.509 271.111L607.301 267.576C607.301 267.576 632.793 366.915 630.612 374.243Z" fill="black"/>
<path d="M647.18 378.203C629.582 386.947 597.598 378.847 597.598 378.847C594.381 381.809 585.907 386.174 585.907 386.174L581.281 328.868C578.334 321.141 577.176 280.66 577.176 280.66C577.176 280.66 580.895 250.455 582.439 247.371C582.889 246.469 582.671 245.13 582.137 243.687C579.511 236.822 578.545 229.433 579.318 222.124L580.554 211.622L580.895 208.679C586.936 205.975 591.563 197.359 591.563 197.359L594.78 191.719L600.699 181.327L603.504 176.407L603.981 176.839L607.616 180.135C607.616 180.135 609.16 181.423 611.476 183.355C616.514 187.605 625.22 195.087 629.711 199.665C633.661 203.695 634.91 219.374 635.27 231.177C635.508 238.948 635.366 245.04 635.366 245.04C631.384 251.601 641.801 304.278 641.801 304.278C644.226 314.458 647.18 378.203 647.18 378.203Z" fill="white"/>
<path opacity="0.03" d="M613.4 197.23C613.4 197.23 601.323 220.237 602.726 228.981C604.129 237.725 608.118 247.621 606.194 249.933C605.533 250.809 604.679 251.52 603.697 252.01C602.716 252.5 601.635 252.757 600.538 252.76C598.608 252.888 593.461 256.488 593.461 256.874C593.461 257.261 588.706 257.261 584.453 259.063C580.2 260.866 573.92 261.89 573.92 261.89C573.92 261.89 561.695 261.504 560.557 262.663C559.418 263.822 558.247 270.756 560.685 276.288C563.124 281.819 565.833 285.946 567.879 286.699C569.925 287.453 582.909 283.1 593.441 282.07C603.974 281.039 615.408 272.688 615.408 272.688C615.408 272.688 627.999 268.181 630.206 260.602C632.413 253.024 627.51 211.37 627.51 211.37C627.51 211.37 623.804 191.957 613.4 197.23Z" fill="black"/>
<path opacity="0.03" d="M611.856 195.299C611.856 195.299 599.779 218.311 601.195 227.049C602.61 235.787 606.586 245.69 604.656 248.008C603.998 248.884 603.144 249.596 602.164 250.087C601.184 250.577 600.103 250.833 599.007 250.834C597.077 250.963 591.929 254.563 591.929 254.949C591.929 255.335 587.175 255.335 582.922 257.132C578.669 258.928 572.389 259.958 572.389 259.958C572.389 259.958 560.164 259.572 559.032 260.731C557.899 261.89 556.715 268.831 559.16 274.356C561.605 279.88 564.308 284.014 566.354 284.768C568.4 285.521 581.384 281.168 591.917 280.144C602.449 279.121 613.883 270.756 613.883 270.756C613.883 270.756 626.468 266.249 628.649 258.677C630.83 251.105 625.953 209.439 625.953 209.439C625.953 209.439 622.26 190.032 611.856 195.299Z" fill="black"/>
<path d="M613.021 196.072C613.021 196.072 600.944 219.084 602.359 227.822C603.775 236.56 607.751 246.463 605.827 248.774C605.169 249.653 604.315 250.366 603.333 250.858C602.352 251.35 601.269 251.606 600.172 251.607C598.241 251.736 593.094 255.335 593.094 255.715C593.094 256.095 588.346 256.102 584.086 257.905C579.827 259.707 573.554 260.731 573.554 260.731C573.554 260.731 561.329 260.345 560.19 261.504C559.051 262.663 557.88 269.604 560.319 275.129C562.757 280.653 565.466 284.787 567.512 285.54C569.558 286.294 582.542 281.941 593.075 280.911C603.607 279.881 615.041 271.529 615.041 271.529C615.041 271.529 627.633 267.022 629.839 259.443C632.046 251.865 627.176 210.211 627.176 210.211C627.176 210.211 623.418 190.83 613.021 196.072Z" fill="white"/>
<path opacity="0.1" d="M612.757 257.795C612.757 257.795 603.106 255.863 606.464 259.083C609.823 262.302 609.804 265.122 613.915 264.994C618.026 264.865 612.757 257.795 612.757 257.795Z" fill="black"/>
<path opacity="0.1" d="M629.067 327.065C629.067 327.065 624.705 330.02 633.05 336.833C641.395 343.645 629.067 327.065 629.067 327.065Z" fill="black"/>
<path opacity="0.1" d="M620.742 351.359C620.742 351.745 619.197 365.524 624.975 368.969C630.753 372.414 620.742 351.359 620.742 351.359Z" fill="black"/>
<path d="M529.003 243.365C524.345 243.526 514.282 244.949 519.5 254.692C524.114 263.313 531.867 257.55 536.229 253.178C535.165 249.102 532.579 245.59 529.003 243.365Z" fill="#FFB0B1"/>
<path d="M536.287 253.102L536.481 252.901L536.287 253.102Z" fill="#FFB0B1"/>
<path opacity="0.1" d="M611.476 183.747C606.535 187.128 602.391 189.98 601.581 190.573C599.367 192.215 595.147 201.854 592.425 206.773C590.257 210.733 583.211 211.75 580.554 212.001L580.895 209.059C586.937 206.354 591.563 197.739 591.563 197.739L603.505 176.787L607.616 180.528C607.616 180.528 609.16 181.816 611.476 183.747Z" fill="black"/>
<path d="M611.476 183.361C606.535 186.742 602.391 189.594 601.581 190.193C599.367 191.828 595.147 201.467 592.425 206.387C590.257 210.347 583.211 211.364 580.554 211.615L580.895 208.673C586.937 205.968 591.563 197.353 591.563 197.353L603.505 176.401L607.616 180.129C607.616 180.129 609.16 181.404 611.476 183.361Z" fill="#DEEFFE"/>
<path d="M601.967 166.955C601.97 170.82 600.798 174.595 598.608 177.779C596.022 181.543 592.173 184.255 587.759 185.422C583.346 186.589 578.66 186.134 574.553 184.14C570.446 182.146 567.189 178.745 565.374 174.553C563.558 170.361 563.304 165.657 564.658 161.294C566.012 156.931 568.884 153.199 572.752 150.773C576.621 148.348 581.23 147.391 585.744 148.076C590.257 148.761 594.376 151.042 597.352 154.506C600.329 157.969 601.966 162.386 601.967 166.955Z" fill="#FFB0B1"/>
<path opacity="0.1" d="M635.27 231.183C632.657 229.574 630.529 227.287 629.112 224.564C628.038 222.439 627.324 219.986 625.49 218.479C623.836 217.127 621.629 216.798 619.57 216.193C612.802 214.191 607.127 208.009 606.915 200.952C606.812 197.63 607.847 194.314 607.378 191.023C607.111 189.161 606.371 187.399 605.229 185.904C604.662 185.19 604.04 184.52 603.369 183.902C602.469 183.052 601.523 182.228 600.699 181.326C600.18 180.768 599.727 180.153 599.348 179.491C599.042 178.95 598.794 178.378 598.608 177.785C597.321 173.844 598.492 169.17 597.077 165.184L596.999 164.965C596.465 163.549 595.378 162.132 593.866 162.023C592.354 161.913 591.061 163.169 589.62 163.729C586.602 164.901 583.346 162.905 580.83 160.87C578.315 158.835 575.477 156.511 572.279 156.962C570.163 157.264 568.49 158.706 566.54 159.453C566.1 159.624 565.646 159.755 565.183 159.846C566.832 155.729 569.864 152.314 573.756 150.19C577.648 148.066 582.157 147.365 586.51 148.207C590.862 149.049 594.786 151.381 597.607 154.804C600.427 158.226 601.969 162.525 601.967 166.961C601.969 168.301 601.829 169.637 601.548 170.947C601.581 171.037 601.613 171.121 601.651 171.211C602.398 173.143 603.241 175.126 603.981 176.838L607.616 180.135C607.616 180.135 609.16 181.423 611.476 183.355C616.514 187.604 625.22 195.086 629.711 199.664C633.661 203.708 634.897 219.38 635.27 231.183Z" fill="black"/>
<path d="M566.315 147.689C567.235 145.816 567.692 143.717 568.792 141.939C570.407 139.364 573.225 137.715 576.121 136.717C583.681 134.11 599.657 130.324 604.431 136.717C605.371 138.005 606.149 139.435 607.449 140.323C608.44 140.999 609.636 141.289 610.724 141.798C613.767 143.227 615.71 146.344 616.746 149.524C617.782 152.705 618.091 156.118 618.85 159.395C619.822 163.6 621.527 167.586 623.225 171.546C625.226 176.22 627.35 181.069 631.21 184.372C636.48 188.879 637.644 195.26 642.534 200.205C648.325 206.077 648.138 215.768 645.153 223.463C644.76 224.473 644.316 225.529 644.471 226.605C644.625 227.68 645.423 228.659 646.176 229.515L649.341 233.089C641.852 234.898 633.378 230.983 629.891 224.113C628.817 221.988 628.102 219.541 626.262 218.028C624.615 216.676 622.402 216.354 620.349 215.749C613.58 213.74 607.906 207.552 607.693 200.495C607.59 197.179 608.626 193.863 608.156 190.579C607.895 188.704 607.153 186.929 606.001 185.428C604.232 183.116 601.562 181.564 600.12 178.989C597.682 174.681 599.535 169.086 597.778 164.463C597.238 163.046 596.157 161.63 594.645 161.52C593.133 161.411 591.839 162.666 590.392 163.226C587.381 164.398 584.125 162.409 581.609 160.368C579.093 158.326 576.256 156.008 573.052 156.466C570.935 156.762 569.268 158.204 567.319 158.957C565.878 159.511 562.957 160.007 561.695 158.79C559.032 156.337 565.202 149.982 566.315 147.689Z" fill="#591D4B"/>
<path opacity="0.1" d="M631.68 221.988C630.599 219.863 629.891 217.416 628.051 215.91C626.404 214.557 624.19 214.229 622.131 213.624C615.369 211.621 609.694 205.434 609.475 198.376C609.372 195.06 610.408 191.738 609.945 188.454C609.676 186.591 608.934 184.829 607.79 183.335C606.014 181.024 603.344 179.472 601.909 176.896C599.47 172.595 601.323 167 599.56 162.37C599.026 160.96 597.939 159.543 596.433 159.427C594.928 159.312 593.622 160.58 592.18 161.14C589.169 162.312 585.907 160.316 583.398 158.281C580.888 156.247 578.038 153.922 574.84 154.373C572.724 154.676 571.051 156.118 569.108 156.865C567.666 157.418 564.739 157.921 563.478 156.704C560.827 154.128 566.997 147.786 568.104 145.506C569.024 143.626 569.481 141.534 570.587 139.757C570.645 139.66 570.71 139.563 570.774 139.467C569.946 140.153 569.232 140.966 568.657 141.875C567.557 143.652 567.1 145.738 566.18 147.625C565.067 149.904 558.897 156.266 561.554 158.822C562.841 160.046 565.736 159.543 567.177 158.99C569.108 158.236 570.793 156.794 572.91 156.498C576.127 156.041 578.958 158.365 581.468 160.4C583.977 162.434 587.258 164.43 590.257 163.259C591.698 162.698 592.959 161.436 594.503 161.552C596.047 161.668 597.077 163.078 597.637 164.495C599.393 169.118 597.54 174.713 599.979 179.021C601.42 181.552 604.09 183.136 605.859 185.46C607.011 186.962 607.754 188.736 608.015 190.611C608.485 193.895 607.449 197.211 607.552 200.527C607.764 207.61 613.439 213.772 620.208 215.781C622.247 216.386 624.473 216.708 626.121 218.06C627.967 219.573 628.694 222.02 629.749 224.145C633.237 231.015 641.711 234.93 649.2 233.121L647.707 231.434C641.215 231.53 634.646 227.835 631.68 221.988Z" fill="black"/>
<path opacity="0.1" d="M587.323 192.601C586.48 193.889 584.067 200.482 582.053 206.238C580.168 205.504 578.456 200.823 578.456 200.823L588.506 186.516C589.536 187.933 588.86 190.283 587.323 192.601Z" fill="black"/>
<path d="M587.709 192.215C586.866 193.502 584.453 200.096 582.439 205.852C580.554 205.125 578.842 200.437 578.842 200.437L588.893 186.136C589.922 187.546 589.246 189.903 587.709 192.215Z" fill="#DEEFFE"/>
<path d="M529.274 257.995L523.702 240.41C523.636 240.204 523.611 239.987 523.629 239.772C523.647 239.556 523.707 239.346 523.807 239.154C523.906 238.962 524.042 238.792 524.207 238.653C524.373 238.513 524.564 238.408 524.77 238.343C525.184 238.213 525.633 238.253 526.019 238.453C526.405 238.653 526.696 238.998 526.829 239.412L532.401 256.977L531.847 260.654L529.274 257.995Z" fill="#BE8B87"/>
<path opacity="0.1" d="M524.229 238.865C524.645 238.733 525.096 238.772 525.483 238.972C525.87 239.172 526.162 239.518 526.295 239.934L531.867 257.499L531.448 260.255L531.854 260.68L532.407 257.003L526.803 239.438C526.67 239.024 526.379 238.679 525.993 238.479C525.608 238.279 525.159 238.239 524.744 238.369C524.395 238.482 524.094 238.709 523.888 239.013C523.998 238.954 524.112 238.904 524.229 238.865Z" fill="white"/>
<path d="M529.274 257.995L532.401 257.003L531.944 260.016L531.847 260.68L530.934 259.727L529.274 257.995Z" fill="#EFC8C4"/>
<path d="M530.934 259.727C530.988 259.658 531.056 259.601 531.133 259.559C531.178 259.531 531.231 259.516 531.284 259.516C531.338 259.516 531.39 259.531 531.436 259.559C531.479 259.612 531.516 259.671 531.545 259.733C531.587 259.804 531.645 259.865 531.714 259.911C531.783 259.956 531.862 259.986 531.944 259.997L531.847 260.641L530.934 259.727Z" fill="#727A9C"/>
<path d="M523.67 246.656C523.67 246.656 534.846 246.591 532.214 251.35C529.582 256.108 525.471 256.681 525.471 256.681L523.67 246.656Z" fill="#FFB0B1"/>
<path d="M454.161 33.1089H453.679C434.479 33.1089 417.5 43.2759 407.732 58.2786C397.965 43.2759 380.986 33.1089 361.786 33.1089H361.304C346.895 33.2463 333.123 39.0688 322.98 49.311C312.836 59.5532 307.142 73.3875 307.134 87.8075C307.134 105.714 314.971 131.122 330.252 152.029C359.367 191.867 407.732 226.721 407.732 226.721C407.732 226.721 456.098 191.873 485.206 152.029C500.494 131.122 508.324 105.714 508.324 87.8075C508.316 73.3886 502.623 59.5553 492.481 49.3132C482.34 39.0712 468.569 33.248 454.161 33.1089ZM447.258 155.094C445.071 155.086 442.938 154.416 441.139 153.173C439.339 151.929 437.958 150.171 437.175 148.127H425.697C424.941 148.123 424.205 147.882 423.593 147.439C422.98 146.995 422.521 146.372 422.28 145.655L418.754 135.024L407.597 174.038C407.38 174.789 406.925 175.449 406.301 175.919C405.677 176.389 404.917 176.644 404.136 176.645H403.911C403.095 176.606 402.318 176.288 401.709 175.744C401.101 175.2 400.696 174.464 400.565 173.658L389.067 104.452L380.664 145.404C380.471 146.182 380.024 146.873 379.393 147.366C378.762 147.86 377.984 148.128 377.183 148.127H361.014C360.529 148.148 360.046 148.07 359.592 147.899C359.138 147.727 358.723 147.466 358.373 147.13C358.023 146.794 357.744 146.39 357.554 145.944C357.363 145.497 357.265 145.017 357.265 144.531C357.265 144.046 357.363 143.565 357.554 143.119C357.744 142.672 358.023 142.269 358.373 141.933C358.723 141.597 359.138 141.335 359.592 141.164C360.046 140.992 360.529 140.915 361.014 140.935H374.352L386.255 85.8758C386.451 85.0618 386.923 84.341 387.59 83.8366C388.258 83.3321 389.08 83.0755 389.916 83.1105C390.752 83.1455 391.549 83.4699 392.173 84.0283C392.796 84.5868 393.206 85.3445 393.333 86.172L405.075 156.768L415.074 121.863C415.282 121.128 415.722 120.48 416.329 120.016C416.935 119.551 417.675 119.296 418.439 119.287H418.51C419.266 119.288 420.003 119.527 420.615 119.971C421.227 120.415 421.684 121.041 421.92 121.76L428.296 140.954H437.034C437.655 139.066 438.785 137.385 440.301 136.099C441.816 134.813 443.657 133.97 445.62 133.665C447.584 133.359 449.593 133.603 451.427 134.368C453.261 135.133 454.848 136.391 456.013 138.002C457.178 139.613 457.875 141.514 458.028 143.497C458.181 145.48 457.784 147.466 456.88 149.237C455.977 151.008 454.602 152.494 452.907 153.532C451.212 154.571 449.264 155.12 447.277 155.12L447.258 155.094Z" fill="#57ACF9"/>
</g>
<defs>
<linearGradient id="paint0_linear_471_593" x1="229.268" y1="498.932" x2="229.268" y2="102.72" gradientUnits="userSpaceOnUse">
<stop stop-color="#808080" stop-opacity="0.25"/>
<stop offset="0.54" stop-color="#808080" stop-opacity="0.12"/>
<stop offset="1" stop-color="#808080" stop-opacity="0.1"/>
</linearGradient>
<linearGradient id="paint1_linear_471_593" x1="143620" y1="298948" x2="143620" y2="95568.3" gradientUnits="userSpaceOnUse">
<stop stop-color="#808080" stop-opacity="0.25"/>
<stop offset="0.54" stop-color="#808080" stop-opacity="0.12"/>
<stop offset="1" stop-color="#808080" stop-opacity="0.1"/>
</linearGradient>
<clipPath id="clip0_471_593">
<rect width="711" height="504" fill="white"/>
</clipPath>
</defs>
</svg>
