<svg width="217" height="202" viewBox="0 0 217 202" fill="none" xmlns="http://www.w3.org/2000/svg">
<path fill-rule="evenodd" clip-rule="evenodd" d="M83.7422 26.4085C49.8285 36.7574 16.4032 58.985 15.703 94.4733C15.0037 129.916 47.5778 153.359 81.0058 165.088C114.713 176.916 154.301 178.709 176.876 151.027C201.665 120.63 202.805 75.9876 179.308 44.5482C157.832 15.8113 118.02 15.9484 83.7422 26.4085Z" fill="#EFF7FF"/>
<path d="M145.53 127.872C146.458 127.872 147.364 127.597 148.135 127.082C148.907 126.566 149.508 125.834 149.863 124.977C150.217 124.12 150.31 123.177 150.129 122.268C149.948 121.358 149.502 120.523 148.846 119.867C148.19 119.211 147.355 118.764 146.445 118.583C145.535 118.403 144.592 118.495 143.736 118.85C142.879 119.205 142.146 119.806 141.631 120.577C141.116 121.349 140.841 122.255 140.841 123.183C140.841 124.426 141.335 125.619 142.214 126.499C143.094 127.378 144.286 127.872 145.53 127.872ZM145.53 121.62C145.839 121.62 146.142 121.711 146.399 121.883C146.656 122.055 146.856 122.299 146.974 122.585C147.093 122.87 147.124 123.184 147.063 123.488C147.003 123.791 146.854 124.069 146.635 124.288C146.417 124.507 146.138 124.655 145.835 124.716C145.532 124.776 145.218 124.745 144.932 124.627C144.646 124.509 144.402 124.308 144.23 124.051C144.059 123.794 143.967 123.492 143.967 123.183C143.967 122.768 144.132 122.371 144.425 122.077C144.718 121.784 145.116 121.62 145.53 121.62Z" fill="#0B283F"/>
<path d="M151.783 105.988H138.526C136.117 96.0921 130.347 87.339 122.202 81.224C122.755 80.6965 123.17 80.0414 123.41 79.3161C123.65 78.5908 123.709 77.8175 123.58 77.0644C123.451 76.3112 123.14 75.6012 122.673 74.9967C122.205 74.3922 121.597 73.9117 120.9 73.5975L124.964 59.2466C125.231 58.3177 125.278 57.3396 125.103 56.3893C124.927 55.439 124.533 54.5425 123.952 53.7702C123.371 52.9979 122.619 52.371 121.755 51.9388C120.89 51.5065 119.938 51.2808 118.971 51.2794H116.144C115.321 49.8508 114.137 48.6642 112.71 47.8391C111.283 47.014 109.664 46.5796 108.015 46.5796C106.367 46.5796 104.748 47.014 103.321 47.8391C101.894 48.6642 100.709 49.8508 99.8871 51.2794H97.0579C96.0925 51.2813 95.1408 51.5071 94.2775 51.939C93.4141 52.3709 92.6627 52.9971 92.0822 53.7684C91.5017 54.5398 91.108 55.4352 90.9321 56.3844C90.7561 57.3336 90.8026 58.3106 91.068 59.2388L95.1321 73.5975C94.4353 73.9119 93.8264 74.3926 93.359 74.9975C92.8916 75.6024 92.58 76.313 92.4517 77.0666C92.3234 77.8202 92.3823 78.5938 92.6232 79.3193C92.8641 80.0448 93.2796 80.6999 93.8332 81.2271C85.7073 87.3602 79.9408 96.104 77.5033 105.988H65.8112C64.9042 105.984 64.0157 106.245 63.2542 106.737C62.4928 107.23 61.8913 107.934 61.5232 108.763C61.1552 109.592 61.0365 110.51 61.1817 111.405C61.327 112.3 61.7298 113.134 62.3411 113.804C61.557 114.656 61.1218 115.772 61.1218 116.93C61.1218 118.088 61.557 119.204 62.3411 120.057C61.8803 120.559 61.5359 121.158 61.3325 121.809C61.129 122.46 61.0715 123.148 61.1641 123.824C61.2566 124.499 61.4968 125.147 61.8678 125.719C62.2387 126.292 62.7312 126.775 63.3102 127.136C62.9 127.833 62.6838 128.627 62.6838 129.435C62.6838 130.244 62.9 131.038 63.3102 131.735C62.4498 132.275 61.7888 133.081 61.427 134.031C61.0652 134.98 61.0223 136.022 61.3048 136.998C61.5872 137.974 62.1797 138.832 62.9927 139.441C63.8057 140.051 64.795 140.379 65.8112 140.377H90.8211C91.684 140.374 92.5292 140.132 93.2633 139.679C93.9974 139.225 94.5917 138.578 94.9805 137.807C99.1176 139.501 103.545 140.374 108.015 140.377H151.783C152.612 140.377 153.407 140.048 153.993 139.461C154.579 138.875 154.909 138.08 154.909 137.251V109.115C154.909 108.286 154.579 107.49 153.993 106.904C153.407 106.318 152.612 105.988 151.783 105.988ZM151.783 113.582C150.708 113.303 149.727 112.741 148.942 111.956C148.156 111.17 147.595 110.19 147.315 109.115H151.783V113.582ZM97.0735 79.4155C96.659 79.4155 96.2614 79.2508 95.9682 78.9576C95.6751 78.6645 95.5104 78.2669 95.5104 77.8524C95.5104 77.4378 95.6751 77.0402 95.9682 76.7471C96.2614 76.4539 96.659 76.2892 97.0735 76.2892H118.957C119.372 76.2892 119.769 76.4539 120.062 76.7471C120.356 77.0402 120.52 77.4378 120.52 77.8524C120.52 78.2669 120.356 78.6645 120.062 78.9576C119.769 79.2508 119.372 79.4155 118.957 79.4155H97.0735ZM94.5819 55.6467C94.8688 55.261 95.242 54.9478 95.6717 54.7323C96.1014 54.5167 96.5756 54.4049 97.0563 54.4056H98.7758C98.686 54.9219 98.6395 55.4447 98.6366 55.9687V62.2212C98.6366 62.6358 98.8013 63.0333 99.0945 63.3265C99.3876 63.6196 99.7852 63.7843 100.2 63.7843C100.614 63.7843 101.012 63.6196 101.305 63.3265C101.598 63.0333 101.763 62.6358 101.763 62.2212V55.9687C101.76 55.1081 101.937 54.2563 102.282 53.4677C102.768 52.3519 103.569 51.4022 104.588 50.7352C105.606 50.0682 106.797 49.7129 108.014 49.7129C109.231 49.7129 110.422 50.0682 111.44 50.7352C112.458 51.4022 113.259 52.3519 113.746 53.4677C114.092 54.256 114.269 55.1078 114.268 55.9687V62.2212C114.268 62.6358 114.432 63.0333 114.726 63.3265C115.019 63.6196 115.416 63.7843 115.831 63.7843C116.245 63.7843 116.643 63.6196 116.936 63.3265C117.229 63.0333 117.394 62.6358 117.394 62.2212V55.9687C117.391 55.4447 117.344 54.9218 117.253 54.4056H118.973C119.454 54.4093 119.929 54.5243 120.359 54.7415C120.788 54.9587 121.162 55.2724 121.451 55.6579C121.74 56.0434 121.935 56.4905 122.023 56.9641C122.11 57.4378 122.087 57.9252 121.955 58.3884L117.775 73.163H98.2552L94.0739 58.3806C93.9391 57.9169 93.9148 57.4281 94.003 56.9533C94.0913 56.4785 94.2895 56.031 94.5819 55.6467ZM65.8112 109.115H90.8211C91.2356 109.115 91.6332 109.279 91.9263 109.573C92.2195 109.866 92.3842 110.263 92.3842 110.678C92.3842 111.092 92.2195 111.49 91.9263 111.783C91.6332 112.076 91.2356 112.241 90.8211 112.241H65.8112C65.3966 112.241 64.999 112.076 64.7059 111.783C64.4128 111.49 64.2481 111.092 64.2481 110.678C64.2481 110.263 64.4128 109.866 64.7059 109.573C64.999 109.279 65.3966 109.115 65.8112 109.115ZM65.8112 129.435C65.8112 129.021 65.9759 128.623 66.269 128.33C66.5622 128.037 66.9597 127.872 67.3743 127.872H92.3842C92.7987 127.872 93.1963 128.037 93.4895 128.33C93.7826 128.623 93.9473 129.021 93.9473 129.435C93.9473 129.85 93.7826 130.247 93.4895 130.54C93.1963 130.834 92.7987 130.998 92.3842 130.998H67.3743C66.9597 130.998 66.5622 130.834 66.269 130.54C65.9759 130.247 65.8112 129.85 65.8112 129.435ZM65.8112 124.746C65.3966 124.746 64.999 124.581 64.7059 124.288C64.4128 123.995 64.2481 123.597 64.2481 123.183C64.2481 122.768 64.4128 122.371 64.7059 122.077C64.999 121.784 65.3966 121.62 65.8112 121.62H90.8211C91.2356 121.62 91.6332 121.784 91.9263 122.077C92.2195 122.371 92.3842 122.768 92.3842 123.183C92.3842 123.597 92.2195 123.995 91.9263 124.288C91.6332 124.581 91.2356 124.746 90.8211 124.746H65.8112ZM64.2481 116.93C64.2481 116.516 64.4128 116.118 64.7059 115.825C64.999 115.532 65.3966 115.367 65.8112 115.367H90.8211C91.2356 115.367 91.6332 115.532 91.9263 115.825C92.2195 116.118 92.3842 116.516 92.3842 116.93C92.3842 117.345 92.2195 117.742 91.9263 118.036C91.6332 118.329 91.2356 118.493 90.8211 118.493H65.8112C65.3966 118.493 64.999 118.329 64.7059 118.036C64.4128 117.742 64.2481 117.345 64.2481 116.93ZM90.8211 137.251H65.8112C65.3966 137.251 64.999 137.086 64.7059 136.793C64.4128 136.5 64.2481 136.102 64.2481 135.688C64.2481 135.273 64.4128 134.876 64.7059 134.582C64.999 134.289 65.3966 134.125 65.8112 134.125H90.8211C91.2356 134.125 91.6332 134.289 91.9263 134.582C92.2195 134.876 92.3842 135.273 92.3842 135.688C92.3842 136.102 92.2195 136.5 91.9263 136.793C91.6332 137.086 91.2356 137.251 90.8211 137.251ZM95.3541 134.556C95.2509 134.147 95.0932 133.755 94.8852 133.388C95.5554 132.969 96.108 132.386 96.4911 131.695C96.8742 131.003 97.0752 130.226 97.0752 129.435C97.0752 128.645 96.8742 127.867 96.4911 127.176C96.108 126.484 95.5554 125.901 94.8852 125.482C95.3812 124.634 95.5912 123.648 95.4843 122.671C95.3773 121.694 94.959 120.778 94.2912 120.057C95.0753 119.204 95.5105 118.088 95.5105 116.93C95.5105 115.772 95.0753 114.656 94.2912 113.804C94.9024 113.134 95.3052 112.3 95.4505 111.405C95.5957 110.51 95.4771 109.592 95.109 108.763C94.741 107.934 94.1395 107.23 93.378 106.737C92.6165 106.245 91.728 105.984 90.8211 105.988H80.703C83.0133 96.7848 89.9582 87.0325 97.519 82.5417H118.51C128.105 88.2283 136.151 101.721 136.151 112.241C136.151 126.031 123.529 137.251 108.015 137.251C103.653 137.246 99.3401 136.328 95.3541 134.556ZM139.278 112.241C139.268 111.196 139.197 110.152 139.064 109.115H144.108C144.435 111.031 145.349 112.798 146.724 114.173C148.099 115.548 149.866 116.462 151.783 116.79V129.576C149.866 129.903 148.099 130.818 146.724 132.192C145.349 133.567 144.435 135.334 144.108 137.251H122.273C132.355 132.576 139.278 123.131 139.278 112.241ZM147.315 137.251C147.595 136.176 148.156 135.195 148.942 134.41C149.727 133.624 150.708 133.063 151.783 132.783V137.251H147.315Z" fill="#0B283F"/>
<path d="M112.705 102.862C112.705 103.277 112.869 103.674 113.163 103.968C113.456 104.261 113.853 104.425 114.268 104.425C114.682 104.425 115.08 104.261 115.373 103.968C115.666 103.674 115.831 103.277 115.831 102.862C115.829 101.061 115.206 99.3161 114.067 97.9209C112.928 96.5257 111.343 95.5658 109.578 95.203V95.0467C109.578 94.6321 109.414 94.2345 109.121 93.9414C108.827 93.6483 108.43 93.4836 108.015 93.4836C107.601 93.4836 107.203 93.6483 106.91 93.9414C106.617 94.2345 106.452 94.6321 106.452 95.0467V95.203C104.685 95.5618 103.097 96.5203 101.956 97.9162C100.815 99.3121 100.192 101.059 100.192 102.862C100.192 104.665 100.815 106.413 101.956 107.808C103.097 109.204 104.685 110.163 106.452 110.522V119.771C105.541 119.448 104.751 118.852 104.192 118.064C103.632 117.276 103.33 116.334 103.326 115.367C103.326 114.953 103.161 114.555 102.868 114.262C102.575 113.969 102.177 113.804 101.763 113.804C101.348 113.804 100.951 113.969 100.658 114.262C100.364 114.555 100.2 114.953 100.2 115.367C100.202 117.168 100.825 118.913 101.964 120.309C103.103 121.704 104.688 122.664 106.452 123.026V123.183C106.452 123.597 106.617 123.995 106.91 124.288C107.203 124.581 107.601 124.746 108.015 124.746C108.43 124.746 108.827 124.581 109.121 124.288C109.414 123.995 109.578 123.597 109.578 123.183V123.026C111.345 122.668 112.934 121.709 114.075 120.313C115.215 118.917 115.839 117.17 115.839 115.367C115.839 113.564 115.215 111.817 114.075 110.421C112.934 109.025 111.345 108.067 109.578 107.708V98.4605C110.49 98.7827 111.279 99.3785 111.839 100.166C112.398 100.954 112.701 101.896 112.705 102.862ZM103.326 102.862C103.33 101.896 103.632 100.954 104.192 100.166C104.752 99.3785 105.541 98.7827 106.452 98.4605V107.264C105.541 106.942 104.752 106.346 104.192 105.558C103.632 104.77 103.33 103.829 103.326 102.862ZM112.705 115.367C112.701 116.334 112.398 117.275 111.839 118.063C111.279 118.851 110.49 119.447 109.578 119.769V110.965C110.49 111.288 111.279 111.883 111.839 112.671C112.398 113.459 112.701 114.401 112.705 115.367Z" fill="#0B283F"/>
</svg>
